<?xml version="1.0" standalone="no"?>
<!DOCTYPE svg PUBLIC "-//W3C//DTD SVG 1.1//EN" "http://www.w3.org/Graphics/SVG/1.1/DTD/svg11.dtd" >
<svg>
<metadata>
Created by FontForge 20090914 at Wed May 15 12:13:07 2013
 By www-data
Copyright (c) 2010 by Caroline Hadilaksono. All rights reserved.
</metadata>
<defs>
<font id="Junction" horiz-adv-x="755" >
  <font-face 
    font-family="Junction"
    font-weight="400"
    font-stretch="normal"
    units-per-em="1000"
    panose-1="0 0 0 0 0 0 0 0 0 0"
    ascent="750"
    descent="-250"
    x-height="550"
    cap-height="770"
    bbox="-61 -275.001 1006 1005"
    underline-thickness="50"
    underline-position="-50"
    unicode-range="U+0020-U+FB04"
  />
<missing-glyph horiz-adv-x="260" 
 />
    <glyph glyph-name="ff" unicode="ff" horiz-adv-x="652" 
d="M452 550h162.002v-70h-162v-480h-83v480h-188v-480h-83v480h-71v70h71v96c0 26 2.66699 49.833 8 71.5s14.166 40.5 26.499 56.5s28.333 28.5 48 37.5s43.834 13.5 72.501 13.5c14 0 28.167 -1.66699 42.5 -5s28.166 -7.5 41.499 -12.5s25.833 -10.5 37.5 -16.5
s21.5 -11.333 29.5 -16c12.667 15.333 28.667 27.5 48 36.5s43.333 13.5 72 13.5c19.333 0 39.333 -3.33301 60 -10s39.667 -14 57 -22c20 -9.33301 39 -20 57 -32l-51 -51c-14 8 -28 15.333 -42 22c-12 5.33301 -25.167 10.5 -39.5 15.5s-28.166 7.5 -41.499 7.5
c-16.667 0 -29.834 -2.83301 -39.501 -8.5s-16.834 -13.334 -21.501 -23.001s-7.66699 -21.167 -9 -34.5s-2 -27.666 -2 -42.999v-96zM181.002 550l188.002 -0.000976562v96c0 22.667 2 44 6 64c-0.666992 0.666992 -5 3.33398 -13 8.00098s-18 9.66699 -30 15
s-25 10.333 -39 15s-27.333 7 -40 7c-16.667 0 -29.834 -2.83301 -39.501 -8.5s-16.834 -13.334 -21.501 -23.001s-7.66699 -21.167 -9 -34.5s-2 -27.666 -2 -42.999v-96z" />
    <glyph glyph-name="fi" unicode="fi" horiz-adv-x="580" 
d="M186 550l309.998 -0.000976562v-550h-83v480h-227v-480h-83v480h-71v70h71v96c0 26 3 49.833 9 71.5s15.5 40.5 28.5 56.5s29.833 28.5 50.5 37.5s45.334 13.5 74.001 13.5c26 0 51.833 -4.66699 77.5 -14s49.167 -19.666 70.5 -30.999
c24.667 -12.667 48.334 -27.334 71.001 -44.001l-51 -51c-20 12.667 -39.667 24.334 -59 35.001c-17.333 8.66699 -35.5 16.667 -54.5 24s-36.833 11 -53.5 11s-30.167 -2.83301 -40.5 -8.5s-18.333 -13.334 -24 -23.001s-9.66699 -21.167 -12 -34.5
s-3.5 -27.666 -3.5 -42.999v-96z" />
    <glyph glyph-name="fl" unicode="fl" horiz-adv-x="617" 
d="M506 820v-674c0 -11.333 0.5 -23.5 1.5 -36.5s4.83301 -22.833 11.5 -29.5c14 -14 35.333 -21 64 -21l-3 -71c-8 0 -17.333 0.333008 -28 1s-21.667 2.16699 -33 4.5s-22.333 5.66602 -33 9.99902s-20 10.5 -28 18.5c-8.66699 8.66699 -15.334 18.334 -20.001 29.001
s-8.16699 21.5 -10.5 32.5s-3.66602 21.833 -3.99902 32.5s-0.5 20.667 -0.5 30v674h83zM186 550h162.001v-70h-162v-480h-83v480h-71v70h71v96c0 26 2.66699 49.833 8 71.5s14.166 40.5 26.499 56.5s28.333 28.5 48 37.5s43.834 13.5 72.501 13.5
c21.333 0 42.833 -3.66699 64.5 -11s41.167 -15.333 58.5 -24v-80c-14 8 -28 15.333 -42 22c-12 5.33301 -25.167 10.5 -39.5 15.5s-28.166 7.5 -41.499 7.5c-16.667 0 -29.834 -2.83301 -39.501 -8.5s-16.834 -13.334 -21.501 -23.001s-7.66699 -21.167 -9 -34.5
s-2 -27.666 -2 -42.999v-96z" />
    <glyph glyph-name="f_f_i" unicode="ffi" horiz-adv-x="851" 
d="M457 550l309.999 -0.000976562v-550h-83v480h-227v-480h-83v480h-188v-480h-83v480h-71v70h71v96c0 26 2.66699 49.833 8 71.5s14.166 40.5 26.499 56.5s28.333 28.5 48 37.5s43.834 13.5 72.501 13.5c14 0 28.333 -1.83301 43 -5.5s29 -8.16699 43 -13.5
s26.833 -11 38.5 -17s21.5 -11.333 29.5 -16c13.333 16 30 28.667 50 38s44.667 14 74 14c26 0 51.833 -4.66699 77.5 -14s49.167 -19.666 70.5 -30.999c24.667 -12.667 48.334 -27.334 71.001 -44.001l-51 -51c-20 12.667 -39.667 24.334 -59 35.001
c-17.333 8.66699 -35.5 16.667 -54.5 24s-36.833 11 -53.5 11s-30.167 -2.83301 -40.5 -8.5s-18.333 -13.334 -24 -23.001s-9.66699 -21.167 -12 -34.5s-3.5 -27.666 -3.5 -42.999v-96zM185.999 549.999h188.001v96c0 24 2.33301 45.333 7 64c-14 8 -28 15.333 -42 22
c-12 5.33301 -25.167 10.5 -39.5 15.5s-28.166 7.5 -41.499 7.5c-16.667 0 -29.834 -2.83301 -39.501 -8.5s-16.834 -13.334 -21.501 -23.001s-7.66699 -21.167 -9 -34.5s-2 -27.666 -2 -42.999v-96z" />
    <glyph glyph-name="f_f_l" unicode="ffl" horiz-adv-x="888" 
d="M777 820v-674c0 -11.333 0.5 -23.5 1.5 -36.5s4.83301 -22.833 11.5 -29.5c14 -14 35.333 -21 64 -21l-3 -71c-8 0 -17.333 0.333008 -28 1s-21.667 2.16699 -33 4.5s-22.333 5.66602 -33 9.99902s-20 10.5 -28 18.5c-8.66699 8.66699 -15.334 18.334 -20.001 29.001
s-8.16699 21.5 -10.5 32.5s-3.66602 21.833 -3.99902 32.5s-0.5 20.667 -0.5 30v674h83zM457 550h162.002v-70h-162v-480h-83v480h-188v-480h-83v480h-71v70h71v96c0 26 2.66699 49.833 8 71.5s14.166 40.5 26.499 56.5s28.333 28.5 48 37.5s43.834 13.5 72.501 13.5
c14 0 28.167 -1.66699 42.5 -5s28.166 -7.5 41.499 -12.5s25.833 -10.5 37.5 -16.5s21.5 -11.333 29.5 -16c12.667 15.333 28.667 27.5 48 36.5s43.333 13.5 72 13.5c21.333 0 42.833 -3.66699 64.5 -11s41.167 -15.333 58.5 -24v-80c-14 8 -28 15.333 -42 22
c-12 5.33301 -25.167 10.5 -39.5 15.5s-28.166 7.5 -41.499 7.5c-16.667 0 -29.834 -2.83301 -39.501 -8.5s-16.834 -13.334 -21.501 -23.001s-7.66699 -21.167 -9 -34.5s-2 -27.666 -2 -42.999v-96zM186.002 550l188.002 -0.000976562v96c0 22.667 2 44 6 64
c-0.666992 0.666992 -5 3.33398 -13 8.00098s-18 9.66699 -30 15s-25 10.333 -39 15s-27.333 7 -40 7c-16.667 0 -29.834 -2.83301 -39.501 -8.5s-16.834 -13.334 -21.501 -23.001s-7.66699 -21.167 -9 -34.5s-2 -27.666 -2 -42.999v-96z" />
    <glyph glyph-name="fj" unicode="fj" horiz-adv-x="580" 
d="M186 550l309.999 -0.00195312v-593c0 -31.333 -4.33301 -60.166 -13 -86.499s-19.667 -49.333 -33 -69s-28 -36 -44 -49s-31.667 -22.167 -47 -27.5l-25 79c10 1.33301 19.667 6.33301 29 15s17.666 20 24.999 34s13.333 29.833 18 47.5s7 36.5 7 56.5v523h-227v-480h-83
v480h-71v70h71v96c0 26 3 49.833 9 71.5s15.5 40.5 28.5 56.5s29.833 28.5 50.5 37.5s45.334 13.5 74.001 13.5c26 0 51.833 -4.66699 77.5 -14s49.167 -19.666 70.5 -30.999c24.667 -12.667 48.334 -27.334 71.001 -44.001l-51 -51c-20 12.667 -39.667 24.334 -59 35.001
c-17.333 8.66699 -35.5 16.667 -54.5 24s-36.833 11 -53.5 11s-30.167 -2.83301 -40.5 -8.5s-18.333 -13.334 -24 -23.001s-9.66699 -21.167 -12 -34.5s-3.5 -27.666 -3.5 -42.999v-96z" />
    <glyph glyph-name=".notdef" horiz-adv-x="260" 
 />
    <glyph glyph-name="space" unicode=" " horiz-adv-x="260" 
 />
    <glyph glyph-name="space" unicode="&#xa0;" horiz-adv-x="260" 
 />
    <glyph glyph-name="exclam" unicode="!" horiz-adv-x="292" 
d="M109 184l-13 636h99l-13 -636h-73zM84 56c0 17.333 6 31.833 18 43.5s27 17.5 45 17.5c17.333 0 31.833 -5.83301 43.5 -17.5s17.5 -26.167 17.5 -43.5c0 -18 -5.83301 -33 -17.5 -45s-26.167 -18 -43.5 -18c-18 0 -33 6 -45 18s-18 27 -18 45z" />
    <glyph glyph-name="quotedbl" unicode="&#x22;" horiz-adv-x="376" 
d="M215 714c0 16 5.33398 29.167 16.001 39.5s24 15.5 40 15.5c21.333 0 36.833 -7.83301 46.5 -23.5s14.5 -35.167 14.5 -58.5c-0.666992 -28 -7 -56.833 -19 -86.5s-28.667 -57.5 -50 -83.5l-46 25c14.667 18 27.167 36.333 37.5 55s17.166 39 20.499 61
c-18 0 -32.5 5.33301 -43.5 16s-16.5 24 -16.5 40zM44.001 714c0 16 5.33398 29.167 16.001 39.5s24 15.5 40 15.5c21.333 0 36.833 -7.83301 46.5 -23.5s14.5 -35.167 14.5 -58.5c-0.666992 -28 -7 -56.833 -19 -86.5s-28.667 -57.5 -50 -83.5l-46 25
c14.667 18 27.167 36.333 37.5 55s17.166 39 20.499 61c-18 0 -32.5 5.33301 -43.5 16s-16.5 24 -16.5 40z" />
    <glyph glyph-name="numbersign" unicode="#" horiz-adv-x="823" 
d="M111 560h171l52 210h74l-52 -210h176l52 210h74l-52 -210h178l-17 -72h-179l-43 -177h184l-17 -72h-185l-58 -239h-74l58 239h-176l-58 -239h-74l58 239h-164l17 72h165l43 177h-170zM295 311h176l43 177h-176z" />
    <glyph glyph-name="dollar" unicode="$" horiz-adv-x="618" 
d="M282 -14c-50 6 -93.3359 20.6621 -130.003 43.9951s-69.334 58 -98.001 104l62 55c22 -36 46.167 -64 72.5 -84s57.5 -33 93.5 -39v299c-26.667 8.66699 -52.167 18.334 -76.5 29.001s-45.666 24 -63.999 40s-32.833 35.167 -43.5 57.5s-15.667 49.5 -15 81.5
c0.666992 41.333 7.83398 75.333 21.501 102s30.5 47.834 50.5 63.501s41.333 26.834 64 33.501s43.667 11 63 13v57h68v-59c36.667 -4.66699 68.5 -14.667 95.5 -30s51.833 -36.333 74.5 -63l-60 -51c-15.333 16 -31.666 29.5 -48.999 40.5s-37.666 18.5 -60.999 22.5v-266
c28 -9.33301 55 -19.833 81 -31.5s49.333 -26.334 70 -44.001s37.167 -39.167 49.5 -64.5s18.5 -55.666 18.5 -90.999c0 -34.667 -5.83301 -65.167 -17.5 -91.5s-27.5 -48.666 -47.5 -66.999s-43.333 -32.666 -70 -42.999s-54.667 -16.833 -84 -19.5v-51h-68v53z
M482.997 204.995c0 20 -3.5 37.165 -10.5 51.498s-16.5 27 -28.5 38s-26.167 20.333 -42.5 28s-33.5 14.834 -51.5 21.501v-280c18.667 2 36 6.5 52 13.5s30 16.333 42 28s21.5 25.834 28.5 42.501s10.5 35.667 10.5 57zM168.997 572.993
c-0.666992 -15.333 1.83398 -28.833 7.50098 -40.5s13.5 -22 23.5 -31s22.167 -17 36.5 -24s29.5 -13.5 45.5 -19.5v246c-12 -1.33301 -24.333 -4.33301 -37 -9s-24.5 -12 -35.5 -22s-20.333 -23.167 -28 -39.5s-11.834 -36.5 -12.501 -60.5z" />
    <glyph glyph-name="percent" unicode="%" horiz-adv-x="1001" 
d="M59 570c0 40.667 5.83301 74.334 17.5 101.001s26.5 48 44.5 64s38.167 27.333 60.5 34s44.5 10 66.5 10s44.333 -3.33301 67 -10s43.167 -18 61.5 -34s33.166 -37.5 44.499 -64.5s17 -61.167 17 -102.5c0 -40.667 -5.83301 -74.334 -17.5 -101.001s-26.5 -48 -44.5 -64
s-38.167 -27.167 -60.5 -33.5s-44.5 -9.5 -66.5 -9.5s-44.167 3.33301 -66.5 10s-42.666 18 -60.999 34s-33.333 37.5 -45 64.5s-17.5 60.833 -17.5 101.5zM836 814l-580 -861h-96l580 861h96zM248 713c-13.333 0 -26.166 -2.00098 -38.499 -6.00098
s-23.333 -11.167 -33 -21.5s-17.5 -24.666 -23.5 -42.999s-9 -42.5 -9 -72.5s3 -54.333 9 -73s13.833 -33.334 23.5 -44.001s20.834 -17.834 33.501 -21.501s25.667 -5.5 39 -5.5s26.166 1.83301 38.499 5.5s23.333 10.667 33 21s17.5 24.666 23.5 42.999s9 42.5 9 72.5
c0 30.667 -3 55.334 -9 74.001s-13.833 33.334 -23.5 44.001s-20.834 17.834 -33.501 21.501s-25.667 5.5 -39 5.5zM563 194.999c0 40.667 5.83301 74.334 17.5 101.001s26.5 48 44.5 64s38.167 27.333 60.5 34s44.5 10 66.5 10s44.333 -3.33301 67 -10s43.167 -18 61.5 -34
s33.166 -37.5 44.499 -64.5s17 -61.167 17 -102.5c0 -40.667 -5.83301 -74.334 -17.5 -101.001s-26.5 -48 -44.5 -64s-38.167 -27.167 -60.5 -33.5s-44.5 -9.5 -66.5 -9.5s-44.167 3.33301 -66.5 10s-42.666 18 -60.999 34s-33.333 37.5 -45 64.5s-17.5 60.833 -17.5 101.5z
M752 337.999c-13.333 0 -26.166 -2.00098 -38.499 -6.00098s-23.333 -11.167 -33 -21.5s-17.5 -24.666 -23.5 -42.999s-9 -42.5 -9 -72.5s3 -54.333 9 -73s13.833 -33.334 23.5 -44.001s20.834 -17.834 33.501 -21.501s25.667 -5.5 39 -5.5s26.166 1.83301 38.499 5.5
s23.333 10.667 33 21s17.5 24.666 23.5 42.999s9 42.5 9 72.5c0 30.667 -3 55.334 -9 74.001s-13.833 33.334 -23.5 44.001s-20.834 17.834 -33.501 21.501s-25.667 5.5 -39 5.5z" />
    <glyph glyph-name="ampersand" unicode="&#x26;" horiz-adv-x="884" 
d="M59 200c0 26.667 4.8291 50.667 14.4961 72s22.5 41 38.5 59s34.667 34.333 56 49s44 28.667 68 42c-30.667 34 -55.5 65.667 -74.5 95s-28.5 59 -28.5 89c0 31.333 6.33301 57.5 19 78.5s29.167 37.833 49.5 50.5s43 21.667 68 27s50.167 8 75.5 8
c24.667 0 49.5 -2.66699 74.5 -8s47.333 -14.333 67 -27s35.667 -29.5 48 -50.5s18.5 -47.167 18.5 -78.5c0 -22 -5.33301 -42 -16 -60s-25 -34.667 -43 -50s-38.667 -30 -62 -44s-47.666 -27.333 -72.999 -40l87 -94.5l97 -102.5c16.667 26 31.334 52.667 44.001 80
s26.667 56 42 86l65 -32l-48.5 -98c-15.667 -32 -32.167 -62.333 -49.5 -91c26 -25.333 48.333 -45.5 67 -60.5s30.667 -23.167 36 -24.5c11.333 -3.33301 22.833 -2 34.5 4s23.834 23.333 36.501 52l60 -35c-11.333 -26 -22.833 -46.167 -34.5 -60.5
s-23.167 -24.833 -34.5 -31.5s-22.333 -10.167 -33 -10.5s-20.334 0.166992 -29.001 1.5c-13.333 2 -33.166 11.667 -59.499 29s-56.166 41.333 -89.499 72c-27.333 -31.333 -60 -56.333 -98 -75s-85.333 -28 -142 -28c-26 0 -53.667 3.66699 -83 11s-56.5 19.333 -81.5 36
s-45.667 38 -62 64s-24.5 58 -24.5 96zM282.996 373c-19.333 -10.667 -37.333 -21.833 -54 -33.5s-31.5 -24.5 -44.5 -38.5s-23.167 -29.333 -30.5 -46s-11 -35 -11 -55c0 -22 6.5 -41 19.5 -57s28.5 -29.167 46.5 -39.5s36.5 -17.833 55.5 -22.5s34.167 -7 45.5 -7
c42 0.666992 77.667 8.16699 107 22.5s55 32.5 77 54.5l-112.5 116.5zM468.996 606.001c0 20 -3.66797 36.499 -11.001 49.499s-16.833 23.333 -28.5 31s-25 13.167 -40 16.5s-29.833 5 -44.5 5c-15.333 0 -30.5 -1.66699 -45.5 -5s-28.667 -8.83301 -41 -16.5
s-22.333 -18 -30 -31s-11.5 -29.5 -11.5 -49.5c0 -18 8.83301 -39 26.5 -63s40.5 -51 68.5 -81c20 10 39.5 20.333 58.5 31s35.833 21.834 50.5 33.501s26.334 24 35.001 37s13 27.167 13 42.5z" />
    <glyph glyph-name="quotesingle" unicode="'" horiz-adv-x="205" 
d="M44 715c0 16 5.33398 29.167 16.001 39.5s24 15.5 40 15.5c21.333 0 36.833 -7.83301 46.5 -23.5s14.5 -35.167 14.5 -58.5c-0.666992 -28 -7 -56.833 -19 -86.5s-28.667 -57.5 -50 -83.5l-46 25c14.667 18 27.167 36.333 37.5 55s17.166 39 20.499 61
c-18 0 -32.5 5.33301 -43.5 16s-16.5 24 -16.5 40z" />
    <glyph glyph-name="parenleft" unicode="(" horiz-adv-x="336" 
d="M307 700c-22 -8 -41.333 -21.667 -58 -41s-31.167 -42 -43.5 -68s-22.5 -54.333 -30.5 -85s-14.333 -61.167 -19 -91.5s-8 -59.5 -10 -87.5s-3 -52.333 -3 -73s1 -45 3 -73s5.33301 -57.167 10 -87.5s11 -60.833 19 -91.5s18.167 -59 30.5 -85s26.833 -48.667 43.5 -68
s36 -32.666 58 -39.999l-6 -70c-32 3.33301 -60.167 15 -84.5 35s-45.5 45 -63.5 75s-33 63.5 -45 100.5s-21.667 74 -29 111s-12.5 72.5 -15.5 106.5s-4.5 63 -4.5 87s1.5 53 4.5 87s8.16699 69.667 15.5 107s17 74.666 29 111.999s27 71 45 101s39.167 55 63.5 75
s52.5 31.333 84.5 34z" />
    <glyph glyph-name="parenright" unicode=")" horiz-adv-x="336" 
d="M35 770c32 -2.66699 60.167 -14 84.5 -34s45.5 -45 63.5 -75s33 -63.667 45 -101s21.667 -74.666 29 -111.999s12.5 -73 15.5 -107s4.5 -63 4.5 -87s-1.5 -53 -4.5 -87s-8.16699 -69.5 -15.5 -106.5s-17 -74 -29 -111s-27 -70.5 -45 -100.5s-39.167 -55 -63.5 -75
s-52.5 -31.667 -84.5 -35l-6 70c22 7.33301 41.333 20.666 58 39.999s31.167 42 43.5 68s22.5 54.333 30.5 85s14.333 61.167 19 91.5s8 59.5 10 87.5s3 52.333 3 73s-1 45 -3 73s-5.33301 57.167 -10 87.5s-11 60.833 -19 91.5s-18.167 59 -30.5 85
s-26.833 48.667 -43.5 68s-36 33 -58 41z" />
    <glyph glyph-name="asterisk" unicode="*" horiz-adv-x="616" 
d="M73 632l202 -81l-2 219h70l-2 -219l202 81l25 -65l-207 -81l144 -160l-58 -49l-139 172l-138 -172l-60 49l144 160l-206 81z" />
    <glyph glyph-name="plus" unicode="+" horiz-adv-x="648" 
d="M285 0v242h-236v67h236v241h67v-241h247v-67h-247v-242h-67z" />
    <glyph glyph-name="comma" unicode="," horiz-adv-x="200" 
d="M39 49c0 16 5.33398 29.167 16.001 39.5s24 15.5 40 15.5c21.333 0 36.833 -7.83301 46.5 -23.5s14.5 -35.167 14.5 -58.5c-0.666992 -28 -7 -56.833 -19 -86.5s-28.667 -57.5 -50 -83.5l-46 25c14.667 18 27.167 36.333 37.5 55s17.166 39 20.499 61
c-18 0 -32.5 5.33301 -43.5 16s-16.5 24 -16.5 40z" />
    <glyph glyph-name="hyphen" unicode="-" horiz-adv-x="344" 
d="M290 240h-236v70h236v-70z" />
    <glyph glyph-name="period" unicode="." horiz-adv-x="205" 
d="M44 53c0 16.667 5.66699 30.334 17 41.001s25.666 16 42.999 16c16.667 0 30.334 -5.33301 41.001 -16s16 -24.334 16 -41.001c0 -17.333 -5.33301 -31.666 -16 -42.999s-24.334 -17 -41.001 -17c-17.333 0 -31.666 5.66699 -42.999 17s-17 25.666 -17 42.999z" />
    <glyph glyph-name="slash" unicode="/" horiz-adv-x="352" 
d="M333 770l-231 -770h-83l231 770h83z" />
    <glyph glyph-name="zero" unicode="0" horiz-adv-x="610" 
d="M59 279c0 56 7.33301 102.833 22 140.5s33.667 67.834 57 90.501s49.666 38.834 78.999 48.501s58.666 14.5 87.999 14.5s58.666 -4.83301 87.999 -14.5s55.666 -25.834 78.999 -48.501s42.333 -52.834 57 -90.501s22 -84.5 22 -140.5s-7.33301 -102.833 -22 -140.5
s-33.667 -67.834 -57 -90.501s-49.666 -38.834 -78.999 -48.501s-58.666 -14.5 -87.999 -14.5s-58.666 4.83301 -87.999 14.5s-55.666 25.834 -78.999 48.501s-42.333 52.834 -57 90.501s-22 84.5 -22 140.5zM467 279c0 42 -4.83301 77.167 -14.5 105.5s-22.167 51 -37.5 68
s-32.666 29 -51.999 36s-38.666 10.5 -57.999 10.5s-38.666 -3.5 -57.999 -10.5s-36.666 -19 -51.999 -36s-27.833 -39.667 -37.5 -68s-14.5 -63.5 -14.5 -105.5s4.83301 -77.167 14.5 -105.5s22.167 -51 37.5 -68s32.666 -29 51.999 -36s38.666 -10.5 57.999 -10.5
s38.666 3.5 57.999 10.5s36.666 19 51.999 36s27.833 39.667 37.5 68s14.5 63.5 14.5 105.5z" />
    <glyph glyph-name="one" unicode="1" horiz-adv-x="363" 
d="M192 0v470l-89 -75l-54 62l143 108h89v-565h-89z" />
    <glyph glyph-name="two" unicode="2" horiz-adv-x="536" 
d="M112 401c-10.667 10 -19.668 18.998 -27.001 26.998l-19 19c-5.33301 5.33301 -8 8.33301 -8 9c7.33301 12 16.666 25 27.999 39s25.166 27 41.499 39s35.333 22.167 57 30.5s46.167 12.5 73.5 12.5c58 0 104.167 -15.333 138.5 -46s51.5 -75.667 51.5 -135
c0 -20 -4.66699 -40.833 -14 -62.5s-21.666 -43 -36.999 -64s-32.666 -41.333 -51.999 -61s-38.666 -38 -57.999 -55s-38.166 -32.167 -56.499 -45.5s-33.833 -24 -46.5 -32h298v-76h-433v64l23.5 17l58.5 44.5c23.333 18.333 48.5 39.333 75.5 63
s52.167 47.834 75.5 72.501s42.666 48.667 57.999 72s23 44.333 23 63c-0.666992 36.667 -11 63.334 -31 80.001s-45 24.667 -75 24c-24.667 -0.666992 -46 -6 -64 -16s-33 -21.333 -45 -34c-14 -14.667 -26 -31 -36 -49z" />
    <glyph glyph-name="three" unicode="3" horiz-adv-x="543" 
d="M55 474c10.667 18.667 24.668 35.6611 42.001 50.9941c14 12.667 32 24.334 54 35.001s48.333 16 79 16c22.667 0 44.167 -3.83301 64.5 -11.5s38.166 -18.5 53.499 -32.5s27.5 -30.667 36.5 -50s13.5 -40.333 13.5 -63c0 -15.333 -2.5 -29.833 -7.5 -43.5
s-11.667 -26.334 -20 -38.001s-17.833 -22.667 -28.5 -33s-21.334 -19.833 -32.001 -28.5c23.333 -3.33301 45.333 -10.166 66 -20.499s39 -23.666 55 -39.999s28.833 -35.333 38.5 -57s14.834 -45.167 15.501 -70.5c0 -50 -9.33301 -93.333 -28 -130s-42.167 -67 -70.5 -91
s-59.333 -41.833 -93 -53.5s-65.167 -17.5 -94.5 -17.5c-24 -0.666992 -46 2.33301 -66 9s-37.333 13.667 -52 21c-17.333 8.66699 -33 19 -47 31l53 50c7.33301 -6.66699 16.666 -12.334 27.999 -17.001c9.33301 -4 21 -7.66699 35 -11s30.333 -4.33301 49 -3
c20.667 0 42.834 4.16699 66.501 12.5s45.667 21.166 66 38.499s37.333 39.333 51 66s20.5 58.334 20.5 95.001c0 15.333 -3.33301 30.333 -10 45s-15.5 27.667 -26.5 39s-23.833 20.333 -38.5 27s-30 10 -46 10c-18 0 -35.333 -1.33301 -52 -4s-31.5 -5.66699 -44.5 -9
s-23.667 -6.16602 -32 -8.49902l-12.5 -3.5v68c23.333 8.66699 45.5 18.334 66.5 29.001s39.5 22.834 55.5 36.501s28.833 28.834 38.5 45.501s14.5 35.334 14.5 56.001c0 24 -8.66699 43 -26 57s-37 21 -59 21c-23.333 0 -43 -3.66699 -59 -11s-29.333 -15.333 -40 -24
c-12 -10 -22 -21.333 -30 -34z" />
    <glyph glyph-name="four" unicode="4" horiz-adv-x="621" 
d="M592 0h-105v-204h-89v204h-364v47l392 519h61v-490h105v-76zM398 76v336l-240 -325l-14 -14v-1l19 4h235z" />
    <glyph glyph-name="five" unicode="5" horiz-adv-x="596" 
d="M178 290c14.667 6.66699 30.498 12.666 47.498 17.999s38.167 8 63.5 8c40 0 75.167 -5.66699 105.5 -17s55.833 -27 76.5 -47s36.167 -43.833 46.5 -71.5s15.5 -57.5 15.5 -89.5c0 -52.667 -6.33301 -97.667 -19 -135s-30.334 -67.833 -53.001 -91.5
s-49.667 -41 -81 -52s-65.333 -16.5 -102 -16.5c-33.333 0 -62.833 4.33301 -88.5 13s-47.5 18.667 -65.5 30c-21.333 12 -39.666 26.333 -54.999 43l48 59c14 -13.333 29.667 -25.333 47 -36c14.667 -9.33301 31.667 -17.5 51 -24.5s40.333 -10.5 63 -10.5
c24 0 46.5 4.16699 67.5 12.5s39.5 21.333 55.5 39s28.5 40.334 37.5 68.001s13.5 60.834 13.5 99.501c0 17.333 -3.33301 35 -10 53s-16.667 34.5 -30 49.5s-30.166 27.333 -50.499 37s-44.5 14.5 -72.5 14.5c-22.667 0 -45.167 -2.33301 -67.5 -7
s-44.166 -14.334 -65.499 -29.001h-66v358h386v-75h-298v-200z" />
    <glyph glyph-name="six" unicode="6" horiz-adv-x="608" 
d="M340 461c28 0 54.6699 -3.83301 80.0029 -11.5s47.5 -20.334 66.5 -38.001s34.167 -40.834 45.5 -69.501s17 -63.667 17 -105c0 -23.333 -3.83301 -49.5 -11.5 -78.5s-20.5 -56.333 -38.5 -82s-42 -47.334 -72 -65.001s-67 -26.5 -111 -26.5
c-80.667 0 -143 30.833 -187 92.5s-66 150.5 -66 266.5c0 56.667 7 110.334 21 161.001s33.667 95.334 59 134.001s55.166 69.334 89.499 92.001s72.166 34 113.499 34c22 0 42.5 -2.83301 61.5 -8.5s36.167 -12.334 51.5 -20.001s28 -15 38 -22l21 -14.5l-53 -55
c-9.33301 7.33301 -20 14 -32 20c-10 5.33301 -22.167 10.166 -36.5 14.499s-29.833 6.5 -46.5 6.5c-26 0 -49 -5.66699 -69 -17s-37.667 -26.5 -53 -45.5s-28.333 -40.667 -39 -65s-19.334 -49.666 -26.001 -75.999s-11.667 -52.666 -15 -78.999s-5.33301 -50.5 -6 -72.5
c16.667 25.333 33.5 46.333 50.5 63s34 30 51 40s33.5 17 49.5 21s31.667 6 47 6zM316.003 58c28.667 0 52.499 6.33301 71.499 19s34.333 28.167 46 46.5s20 37.833 25 58.5s7.5 39 7.5 55c0 28 -3.5 51.667 -10.5 71s-16.167 34.833 -27.5 46.5s-24.666 20 -39.999 25
s-31.333 7.5 -48 7.5c-14 0 -28.833 -2.5 -44.5 -7.5s-31.5 -13.5 -47.5 -25.5s-32.167 -28.5 -48.5 -49.5s-31.833 -47.5 -46.5 -79.5c10.667 -54 30 -95.333 58 -124s63 -43 105 -43z" />
    <glyph glyph-name="seven" unicode="7" horiz-adv-x="506" 
d="M45 566h432v-59l-37.5 -77l-49.5 -98l-58 -110.5l-62 -113l-62 -106.5c-20.667 -34 -40.167 -64.5 -58.5 -91.5s-35 -49.333 -50 -67s-27.833 -28.834 -38.5 -33.501l-57 53c10 6.66699 24 21.834 42 45.501s38.167 53 60.5 88s45.833 73.833 70.5 116.5l73 130
l68.5 128.5l56.5 111.5h-330v83z" />
    <glyph glyph-name="eight" unicode="8" horiz-adv-x="582" 
d="M499 601c0 -26 -5.33398 -49.998 -16.001 -71.998s-23.834 -42 -39.501 -60s-32.334 -33.833 -50.001 -47.5s-33.5 -24.834 -47.5 -33.501c22 -15.333 43.333 -31.333 64 -48s39 -34.167 55 -52.5s28.833 -37.833 38.5 -58.5s14.5 -42.334 14.5 -65.001
c0 -31.333 -5.33301 -57.5 -16 -78.5s-24 -38.167 -40 -51.5s-33.667 -23.333 -53 -30s-37.333 -11.5 -54 -14.5s-31.167 -4.5 -43.5 -4.5h-21.5c-2 0 -9 0.166992 -21 0.5s-26.333 2 -43 5s-34.5 7.83301 -53.5 14.5s-36.5 16.667 -52.5 30s-29.333 30.5 -40 51.5
s-16 46.833 -16 77.5c0 26 5 50.333 15 73s22.5 43.667 37.5 63s31.5 36.5 49.5 51.5s35 27.5 51 37.5c-18.667 14.667 -36.167 30 -52.5 46s-30.5 32.833 -42.5 50.5s-21.5 36 -28.5 55s-10.5 39.167 -10.5 60.5c0 30.667 6.16699 56.5 18.5 77.5s28.333 38 48 51
s41.834 22.167 66.501 27.5s49.334 8 74.001 8s49.334 -2.66699 74.001 -8s47 -14.5 67 -27.5s36.333 -30 49 -51s19 -46.833 19 -77.5zM434.999 164.002c0 14.667 -4.5 29.835 -13.5 45.502s-21 31.167 -36 46.5s-32.333 30.833 -52 46.5l-61.5 47.5
c-14 -8.66699 -28.167 -19.167 -42.5 -31.5s-27.5 -26.333 -39.5 -42s-22.167 -32.834 -30.5 -51.501s-13.166 -39 -14.499 -61c0 -28 7.16699 -49.5 21.5 -64.5s30.333 -25.833 48 -32.5s34.167 -10.334 49.5 -11.001s24 -1 26 -1s10.833 0.333008 26.5 1
s32.167 4.16699 49.5 10.5s33.166 17 47.499 32s21.5 36.833 21.5 65.5zM286.999 431.003c9.33301 4.66699 21.3311 11.999 35.998 21.999s28.834 22.333 42.501 37s25.334 31.334 35.001 50.001s14.5 39 14.5 61c0 19.333 -3.66699 35.333 -11 48s-17 22.834 -29 30.501
s-25.5 13 -40.5 16s-29.833 4.5 -44.5 4.5s-29.5 -1.5 -44.5 -4.5s-28.5 -8.33301 -40.5 -16s-21.667 -17.834 -29 -30.501s-11 -28.667 -11 -48c0 -16 3.33301 -31.5 10 -46.5s15.667 -29.5 27 -43.5s24.333 -27.667 39 -41s30 -26.333 46 -39z" />
    <glyph glyph-name="nine" unicode="9" horiz-adv-x="608" 
d="M268 89c-28 0 -54.665 3.83105 -79.998 11.498s-47.5 20.334 -66.5 38.001s-34.167 40.834 -45.5 69.501s-17 63.667 -17 105c0 23.333 3.83301 49.5 11.5 78.5s20.5 56.333 38.5 82s42 47.334 72 65.001s67 26.5 111 26.5c80.667 0 143 -30.833 187 -92.5
s66 -150.5 66 -266.5c0 -56.667 -7 -110.5 -21 -161.5s-33.667 -95.667 -59 -134s-55.333 -68.833 -90 -91.5s-72.334 -34 -113.001 -34c-22 0 -42.5 2.83301 -61.5 8.5s-36.167 12.334 -51.5 20.001s-28 15 -38 22l-21 14.5l53 55c9.33301 -8 20 -15 32 -21
c10 -5.33301 22 -10 36 -14s29.667 -6 47 -6c25.333 0 48.166 5.66699 68.499 17s38.166 26.5 53.499 45.5s28.333 40.667 39 65s19.334 49.666 26.001 75.999s11.667 52.666 15 78.999s5.33301 50.5 6 72.5c-16.667 -25.333 -33.5 -46.333 -50.5 -63s-34 -30 -51 -40
s-33.667 -17 -50 -21s-31.833 -6 -46.5 -6zM292.002 491.998c-28.667 0 -52.499 -6.33301 -71.499 -19s-34.333 -28.167 -46 -46.5s-20 -37.833 -25 -58.5s-7.5 -39 -7.5 -55c0 -28 3.5 -51.667 10.5 -71s16.167 -34.833 27.5 -46.5s24.666 -20 39.999 -25
s31.333 -7.5 48 -7.5c14 0 28.833 2.5 44.5 7.5s31.5 13.5 47.5 25.5s32 28.5 48 49.5s31.667 47.5 47 79.5c-10.667 54 -30 95.333 -58 124s-63 43 -105 43z" />
    <glyph glyph-name="colon" unicode=":" horiz-adv-x="255" 
d="M69 53c0 16.667 5.66699 30.334 17 41.001s25.666 16 42.999 16c16.667 0 30.334 -5.33301 41.001 -16s16 -24.334 16 -41.001c0 -17.333 -5.33301 -31.666 -16 -42.999s-24.334 -17 -41.001 -17c-17.333 0 -31.666 5.66699 -42.999 17s-17 25.666 -17 42.999zM69 413
c0 16.667 5.66699 30.334 17 41.001s25.666 16 42.999 16c16.667 0 30.334 -5.33301 41.001 -16s16 -24.334 16 -41.001c0 -17.333 -5.33301 -31.666 -16 -42.999s-24.334 -17 -41.001 -17c-17.333 0 -31.666 5.66699 -42.999 17s-17 25.666 -17 42.999z" />
    <glyph glyph-name="semicolon" unicode=";" horiz-adv-x="260" 
d="M74 49c0 16 5.33398 29.167 16.001 39.5s24 15.5 40 15.5c21.333 0 36.833 -7.83301 46.5 -23.5s14.5 -35.167 14.5 -58.5c-0.666992 -28 -7 -56.833 -19 -86.5s-28.667 -57.5 -50 -83.5l-46 25c14.667 18 27.167 36.333 37.5 55s17.166 39 20.499 61
c-18 0 -32.5 5.33301 -43.5 16s-16.5 24 -16.5 40zM69.001 413c0 16.667 5.66699 30.334 17 41.001s25.666 16 42.999 16c16.667 0 30.334 -5.33301 41.001 -16s16 -24.334 16 -41.001c0 -17.333 -5.33301 -31.666 -16 -42.999s-24.334 -17 -41.001 -17
c-17.333 0 -31.666 5.66699 -42.999 17s-17 25.666 -17 42.999z" />
    <glyph glyph-name="less" unicode="&#x3c;" horiz-adv-x="698" 
d="M74 316l555 251v-72l-476 -215l476 -215v-72l-555 251v72z" />
    <glyph glyph-name="equal" unicode="=" horiz-adv-x="659" 
d="M605 328h-551v67h551v-67zM605 168h-551v67h551v-67z" />
    <glyph glyph-name="greater" unicode="&#x3e;" horiz-adv-x="698" 
d="M624 244l-555 -251v72l475 215l-475 215v72l555 -251v-72z" />
    <glyph glyph-name="question" unicode="?" horiz-adv-x="502" 
d="M383 640c0 10 -1.16699 21.335 -3.5 34.002s-7.66602 24.667 -15.999 36s-20.833 20.833 -37.5 28.5s-39 11.5 -67 11.5c-26 0 -49.167 -6.16699 -69.5 -18.5s-37.833 -26.166 -52.5 -41.499c-17.333 -17.333 -32 -37.333 -44 -60l-53 50c16 26 35 49.333 57 70
c18.667 17.333 41.5 33.333 68.5 48s58.167 22 93.5 22c44.667 0 80.667 -6.33301 108 -19s48.333 -28.167 63 -46.5s24.5 -37.833 29.5 -58.5s7.5 -39.334 7.5 -56.001c0 -27.333 -4.66699 -52.333 -14 -75s-21.333 -43.667 -36 -63s-31 -37.666 -49 -54.999l-54 -50
c-22 -20 -40.833 -38.833 -56.5 -56.5s-23.5 -33.5 -23.5 -47.5c0 -16 4.5 -29.5 13.5 -40.5s22.167 -24.167 39.5 -39.5l-58 -48c-10.667 9.33301 -20.334 18.5 -29.001 27.5s-16.167 18.333 -22.5 28s-11.333 20.5 -15 32.5s-5.5 25.667 -5.5 41
c0 32 9.83301 60.5 29.5 85.5s44.5 50.833 74.5 77.5c14 12.667 28.167 26.167 42.5 40.5s27.166 29.166 38.499 44.499s20.833 31.166 28.5 47.499s11.834 33.166 12.501 50.499zM194 49.002c0 16 5.33301 29.167 16 39.5s24 15.5 40 15.5s29.167 -5.16699 39.5 -15.5
s15.5 -23.5 15.5 -39.5s-5.16699 -29.333 -15.5 -40s-23.5 -16 -39.5 -16s-29.333 5.33301 -40 16s-16 24 -16 40z" />
    <glyph glyph-name="at" unicode="@" horiz-adv-x="1060" 
d="M420 19c-48 0.666992 -82.4951 18.0029 -103.495 52.0029s-31.5 79 -31.5 135c0 54.667 9.16699 105 27.5 151s41.333 85.333 69 118s57.5 58.167 89.5 76.5s62 27.5 90 27.5c12.667 0 25.167 -1 37.5 -3s24.666 -5.83301 36.999 -11.5s24.333 -13.834 36 -24.501
s23.167 -24.334 34.5 -41.001c2 9.33301 3.83301 17.5 5.5 24.5l4.5 18.5c1.33301 6 2.66602 11.333 3.99902 16l78 -18l-51 -227l-19 -84l-16 -73.5l-11.5 -52.5c-3 -13.333 -4.5 -20.333 -4.5 -21c1.33301 -1.33301 8.16602 -1 20.499 1s27.333 6.5 45 13.5
s36.5 16.833 56.5 29.5s38.333 29.167 55 49.5s30 44.666 40 72.999s14.333 61.5 13 99.5c0 40.667 -8.16699 81.334 -24.5 122.001s-40.333 77.334 -72 110.001s-70.667 59.167 -117 79.5s-99.5 30.5 -159.5 30.5c-55.333 0 -108.333 -12 -159 -36s-95.167 -56 -133.5 -96
s-69 -85.833 -92 -137.5s-34.5 -104.834 -34.5 -159.501c0 -55.333 11.5 -106 34.5 -152s53.667 -85.833 92 -119.5s82.833 -59.834 133.5 -78.501s103.667 -28 159 -28c26 0 50.667 1.16699 74 3.5s47.5 7.83301 72.5 16.5s51.833 21.5 80.5 38.5s61 40.5 97 70.5l50 -62
c-41.333 -34 -78.333 -60.667 -111 -80s-63.5 -34 -92.5 -44s-57.167 -16.333 -84.5 -19s-56 -4 -86 -4c-66 0 -129.167 11.5 -189.5 34.5s-113.5 54.833 -159.5 95.5s-82.5 89 -109.5 145s-40.5 117 -40.5 183s13.5 129.667 40.5 191s63.5 115.5 109.5 162.5
s99.167 84.667 159.5 113s123.5 42.5 189.5 42.5c72.667 0 137.167 -12.5 193.5 -37.5s103.666 -57.5 141.999 -97.5s67.5 -85.167 87.5 -135.5s30 -100.833 30 -151.5c0 -45.333 -6.16699 -85 -18.5 -119s-28.5 -63.167 -48.5 -87.5s-42.167 -44.333 -66.5 -60
s-48.5 -28.167 -72.5 -37.5s-46.333 -15.833 -67 -19.5s-37.334 -5.5 -50.001 -5.5c-30 0 -49.167 8.33301 -57.5 25s-9.83301 38 -4.5 64c-13.333 -11.333 -27.5 -22.5 -42.5 -33.5s-31 -20.667 -48 -29s-34.667 -14.833 -53 -19.5s-37.5 -7 -57.5 -7zM365.005 206.003
c0 -38 4.33496 -67.333 13.002 -88s23 -31.667 43 -33c27.333 -0.666992 53.666 5.83301 78.999 19.5s48.333 29.334 69 47.001s38 35 52 52s23.333 28.833 28 35.5l37 168c-10 24 -20.167 43.167 -30.5 57.5s-20.833 25.166 -31.5 32.499s-21.167 12 -31.5 14
s-20.833 3 -31.5 3c-20 0 -41.333 -7.5 -64 -22.5s-43.834 -36 -63.501 -63s-36 -59.333 -49 -97s-19.5 -79.5 -19.5 -125.5z" />
    <glyph glyph-name="A" unicode="A" horiz-adv-x="708" 
d="M400 770l284 -770h-93l-97 262h-281l-96 -262h-93l284 770h92zM354 672c-0.666992 -9.33301 -1.66797 -18.333 -3.00098 -27s-2.66602 -15.667 -3.99902 -21l-106 -286h225l-106 286c-1.33301 4.66699 -2.33301 9.66699 -3 15c-2 8.66699 -3 19.667 -3 33z" />
    <glyph glyph-name="B" unicode="B" horiz-adv-x="635" 
d="M299 775c35.333 0 67.501 -3.50293 96.501 -10.5029s54 -18.667 75 -35s37.667 -38.5 50 -66.5s19.5 -63 21.5 -105c-0.666992 -40.667 -8.16699 -73.5 -22.5 -98.5s-32.833 -44.833 -55.5 -59.5c23.333 -10 42.333 -22.5 57 -37.5s26 -30.667 34 -47
s13.5 -32.333 16.5 -48s4.5 -29.167 4.5 -40.5c0 -10 -0.333008 -22.667 -1 -38s-3.5 -31.5 -8.5 -48.5s-12.833 -34 -23.5 -51s-25.834 -32.167 -45.501 -45.5s-44.5 -24.166 -74.5 -32.499s-67 -12.166 -111 -11.499h-140h-88v757c25.333 2.66699 56 6.33398 92 11.001
s77 7 123 7zM172.001 75.9971l140.002 -0.000976562c44 0 78 5.33301 102 16s41.667 23.667 53 39s18 31.833 20 49.5s3 33.167 3 46.5c0 8 -1.66699 19 -5 33s-10.833 27.833 -22.5 41.5s-28.334 25.334 -50.001 35.001s-50.834 14.5 -87.501 14.5h-153v-275z
M457.003 559.996c0 25.333 -3.16699 46.5 -9.5 63.5s-14.833 30.833 -25.5 41.5s-23.167 18.5 -37.5 23.5s-29.5 8.16699 -45.5 9.5c-30 2.66699 -59.333 2.83398 -88 0.500977s-55 -5.16602 -79 -8.49902v-263h108.5c33.667 0 63.167 3.66699 88.5 11
s45.833 20.166 61.5 38.499s24.5 46.166 26.5 83.499z" />
    <glyph glyph-name="C" unicode="C" horiz-adv-x="642" 
d="M535 624c-10 14 -22.998 26.6709 -38.998 38.0039c-13.333 9.33301 -30.333 18.166 -51 26.499s-45.667 12.5 -75 12.5c-27.333 0 -54.333 -7 -81 -21s-50.334 -35 -71.001 -63s-37.334 -63.167 -50.001 -105.5s-19 -91.833 -19 -148.5c0 -42 5.83301 -81 17.5 -117
s27.667 -67.333 48 -94s43.833 -47.834 70.5 -63.501s55 -23.834 85 -24.501c32.667 -0.666992 61.167 3.5 85.5 12.5s44.833 19.167 61.5 30.5s29.167 21.833 37.5 31.5l12.5 14.5l55 -55c-8 -6.66699 -18 -16.5 -30 -29.5s-27.833 -25.833 -47.5 -38.5
s-44 -23.667 -73 -33s-64.5 -13.333 -106.5 -12c-44 1.33301 -84.833 11.666 -122.5 30.999s-70 45.666 -97 78.999s-48.167 72.833 -63.5 118.5s-23 95.5 -23 149.5c0 69.333 8.66699 130.333 26 183s40.5 96.667 69.5 132s62.333 62 100 80s76.5 27 116.5 27
c40.667 0 75.167 -5.5 103.5 -16.5s51.166 -23.167 68.499 -36.5c20.667 -15.333 37.334 -32.666 50.001 -51.999z" />
    <glyph glyph-name="D" unicode="D" horiz-adv-x="712" 
d="M84 0l0.000976562 756.999c24 2.66699 45.5 5.16699 64.5 7.5s36.5 4.33301 52.5 6s31.167 2.83398 45.5 3.50098s29.166 1 44.499 1c46 0 90.833 -4.83301 134.5 -14.5s82.334 -28.667 116.001 -57s60.667 -68.333 81 -120s30.5 -119.5 30.5 -203.5
c0 -60.667 -7.66699 -114.5 -23 -161.5s-36.833 -86.667 -64.5 -119s-60.834 -57 -99.501 -74s-81 -25.5 -127 -25.5h-167h-88zM565.001 379.999c0 47.333 -4.16699 90.667 -12.5 130s-22.833 73 -43.5 101s-48.5 49.833 -83.5 65.5s-79.167 23.5 -132.5 23.5
c-32.667 0 -59.167 -1.5 -79.5 -4.5s-34.166 -5.16699 -41.499 -6.5v-613h167c32 0 61.833 7 89.5 21s51.667 34 72 60s36.166 57.833 47.499 95.5s17 80.167 17 127.5z" />
    <glyph glyph-name="E" unicode="E" horiz-adv-x="560" 
d="M84 0v770h318c16 0 30.5 0.166992 43.5 0.5s24.167 0.833008 33.5 1.5c10.667 0.666992 20 1.66699 28 3v-80h-335v-258h285v-76h-285v-285h244c16 0 30.5 0.166992 43.5 0.5s24.167 0.833008 33.5 1.5c10.667 0.666992 20 1.66699 28 3v-81h-437z" />
    <glyph glyph-name="F" unicode="F" horiz-adv-x="538" 
d="M84 0v770h318c16 0 30.5 0.166992 43.5 0.5s24.167 0.833008 33.5 1.5c10.667 0.666992 20 1.66699 28 3v-79h-335v-259h285v-76h-285v-361h-88z" />
    <glyph glyph-name="G" unicode="G" horiz-adv-x="748" 
d="M663 147c0 -22.667 -7.00391 -43.8369 -21.0039 -63.5039s-32.5 -36.667 -55.5 -51s-48.833 -25.666 -77.5 -33.999s-57.667 -12.833 -87 -13.5c-49.333 0 -92.5 5.83301 -129.5 17.5s-69 27.167 -96 46.5s-49.333 41.833 -67 67.5s-31.667 52.834 -42 81.501
s-17.666 57.5 -21.999 86.5s-6.5 56.833 -6.5 83.5c0 78 11.5 143.667 34.5 197s52.167 96.166 87.5 128.499s74 55.666 116 69.999s82 21.5 120 21.5c39.333 0 73.666 -6.16699 102.999 -18.5s54.333 -25.833 75 -40.5c23.333 -17.333 44 -37 62 -59l-59 -58
c-13.333 18.667 -28.666 35.334 -45.999 50.001c-15.333 12.667 -34 24.167 -56 34.5s-47 15.5 -75 15.5c-27.333 0 -56.666 -6.16699 -87.999 -18.5s-60.666 -32.166 -87.999 -59.499s-50 -62.5 -68 -105.5s-27 -95.5 -27 -157.5c0 -30.667 3.66699 -63.667 11 -99
s21 -68.166 41 -98.499s47.333 -55.5 82 -75.5s79.334 -30 134.001 -30c14.667 0 31.334 2.5 50.001 7.5s36.167 11.833 52.5 20.5s30.166 18.334 41.499 29.001s17 22 17 34v144h-90c-12 0 -26.667 0.333008 -44 1s-33 4.66699 -47 12v72c16 -4 32.833 -6.16699 50.5 -6.5
s32.167 -0.5 43.5 -0.5h171v-231z" />
    <glyph glyph-name="H" unicode="H" horiz-adv-x="740" 
d="M84 0v770h88v-334h396v334h88v-770h-88v360h-396v-360h-88z" />
    <glyph glyph-name="I" unicode="I" horiz-adv-x="256" 
d="M84 0v770h88v-770h-88z" />
    <glyph glyph-name="J" unicode="J" horiz-adv-x="284" 
d="M201 770l-0.00195312 -787.001c0 -40 -6.16699 -74.167 -18.5 -102.5s-27.666 -51.833 -45.999 -70.5s-38 -33.5 -59 -44.5s-39.833 -19.167 -56.5 -24.5l-32 79c15.333 4 30.333 10.167 45 18.5s27.834 19 39.501 32s21.167 28.833 28.5 47.5s11 40.334 11 65.001v787
h88z" />
    <glyph glyph-name="K" unicode="K" horiz-adv-x="612" 
d="M172 770v-341l266 341h109l-282 -360c13.333 -1.33301 29.5 -7 48.5 -17s36.167 -23 51.5 -39c7.33301 -8 16.833 -20.667 28.5 -38l38.5 -59.5l44 -71.5l45 -73.5l42 -65c13.333 -19.667 25 -35.167 35 -46.5h-1h-103c-6 6 -13.833 16.5 -23.5 31.5l-33 52l-38 62.5
l-37 62.5l-32 52.5c-9.66699 15.333 -17.167 26.333 -22.5 33c-17.333 22 -37.5 36.333 -60.5 43s-48.167 7 -75.5 1v-338h-88v770h88z" />
    <glyph glyph-name="L" unicode="L" horiz-adv-x="555" 
d="M84 770h88v-694h244c16 0 30.5 0.166992 43.5 0.5s24.167 0.833008 33.5 1.5c10.667 0.666992 20 1.66699 28 3v-81h-437v770z" />
    <glyph glyph-name="M" unicode="M" horiz-adv-x="849" 
d="M84 0v770h88l251 -660l1 -7l1 7l252 660h88v-770h-88v540l1 17l-4 -17l-207 -540h-85l-207 540l-4 16l1 -16v-540h-88z" />
    <glyph glyph-name="N" unicode="N" horiz-adv-x="722" 
d="M84 0v770h88v-1l372 -605l7 -14l-1 14v606h88v-770h-88v1l-372 607l-7 14l1 -14v-608h-88z" />
    <glyph glyph-name="O" unicode="O" 
d="M380 785c36.667 0 73.6709 -6.33496 111.004 -19.002s71.166 -34.167 101.499 -64.5s55.166 -71.166 74.499 -122.499s29 -115.666 29 -192.999c0 -78.667 -9.16699 -143.834 -27.5 -195.501s-42.5 -92.667 -72.5 -123s-64.167 -51.666 -102.5 -63.999
s-77.166 -18.5 -116.499 -18.5c-36.667 0 -73.834 6 -111.501 18s-71.834 33.167 -102.501 63.5s-55.667 71.166 -75 122.499s-29 116.333 -29 195c0 78 9.66699 142.833 29 194.5s44.333 92.834 75 123.501s65.167 52.167 103.5 64.5s76.166 18.5 113.499 18.5z
M380.004 709.998c-26 0 -52.832 -5.33691 -80.499 -16.0039s-52.667 -28.667 -75 -54s-40.833 -58.666 -55.5 -99.999s-22 -92.666 -22 -153.999c0 -62 7.16699 -113.833 21.5 -155.5s32.833 -75 55.5 -100s47.5 -42.833 74.5 -53.5s53.167 -16 78.5 -16
c27.333 0 54.666 5.16699 81.999 15.5s52 28 74 53s40 58.167 54 99.5s21 93 21 155c0 60.667 -6.83301 111.834 -20.5 153.501s-31.5 75.334 -53.5 101.001s-46.5 44 -73.5 55s-53.833 16.5 -80.5 16.5z" />
    <glyph glyph-name="P" unicode="P" horiz-adv-x="617" 
d="M84 0l0.000976562 770h88v-30c23.333 13.333 49 24.166 77 32.499s57 12.5 87 12.5c34 0 65.333 -6.16699 94 -18.5s53.167 -29.666 73.5 -51.999s36.166 -49 47.499 -80s17 -65.167 17 -102.5c0 -96.667 -21 -169.5 -63 -218.5s-100.667 -73.5 -176 -73.5
c-34 0 -63.5 5.16699 -88.5 15.5s-47.833 22.5 -68.5 36.5v-292h-88zM483.001 532c0 26 -4.00098 49.666 -12.001 70.999s-19.5 39.833 -34.5 55.5s-33.5 27.834 -55.5 36.501s-46.667 13 -74 13c-23.333 0 -46.333 -4.5 -69 -13.5s-44.667 -21.5 -66 -37.5v-272
c23.333 -20.667 48.5 -36.667 75.5 -48s55.5 -17 85.5 -17c44.667 0 80.834 17.333 108.501 52s41.5 88 41.5 160z" />
    <glyph glyph-name="Q" unicode="Q" 
d="M380 785c36.667 0 73.6709 -6.33789 111.004 -19.0049s71.166 -34.167 101.499 -64.5s55.166 -71.166 74.499 -122.499s29 -115.666 29 -192.999c0 -70.667 -7.5 -130.334 -22.5 -179.001s-35 -88.5 -60 -119.5s-53.833 -54.333 -86.5 -70s-66.334 -25.5 -101.001 -29.5
c4.66699 -5.33301 10 -10.833 16 -16.5s13.167 -11 21.5 -16s18.333 -9 30 -12s25.167 -4.5 40.5 -4.5c14 0 29 1.33301 45 4s32.333 6.66699 49 12l22 -72c-6.66699 -3.33301 -15 -6 -25 -8s-20.5 -3.66699 -31.5 -5s-21.833 -2.33301 -32.5 -3s-19.667 -1 -27 -1
c-32.667 0.666992 -61 5.33398 -85 14.001s-44.5 19.334 -61.5 32.001s-30.5 26 -40.5 40s-17 26.333 -21 37c-33.333 4.66699 -66 14.834 -98 30.501s-60.5 38.834 -85.5 69.501s-45.167 70.167 -60.5 118.5s-23 107.166 -23 176.499c0 78 9.66699 142.833 29 194.5
s44.333 92.834 75 123.501s65.167 52.167 103.5 64.5s76.166 18.5 113.499 18.5zM380.004 709.995c-26 0 -52.832 -5.33691 -80.499 -16.0039s-52.667 -28.667 -75 -54s-40.833 -58.666 -55.5 -99.999s-22 -92.666 -22 -153.999c0 -62 7.16699 -113.833 21.5 -155.5
s32.833 -75 55.5 -100s47.5 -42.833 74.5 -53.5s53.167 -16 78.5 -16c27.333 0 54.666 5.16699 81.999 15.5s52 28 74 53s40 58.167 54 99.5s21 93 21 155c0 60.667 -6.83301 111.834 -20.5 153.501s-31.5 75.334 -53.5 101.001s-46.5 44 -73.5 55s-53.833 16.5 -80.5 16.5z
" />
    <glyph glyph-name="R" unicode="R" horiz-adv-x="653" 
d="M84 0l0.000976562 770h88v-31c26.667 16.667 53.5 28.334 80.5 35.001s56.5 10.334 88.5 11.001c63.333 0 113.666 -19.5 150.999 -58.5s58 -92.833 62 -161.5c0 -39.333 -5.16699 -72.833 -15.5 -100.5s-23.666 -50.834 -39.999 -69.501s-34.833 -33.167 -55.5 -43.5
s-41.667 -17.833 -63 -22.5c22 -18 43.5 -41.667 64.5 -71l64 -91.5l65.5 -92c22 -29.667 45 -53.834 69 -72.501v-2h-107c-14.667 11.333 -29.334 26.5 -44.001 45.5s-29.5 39.5 -44.5 61.5l-46 68c-15.667 23.333 -31.5 45 -47.5 65s-32.5 37.333 -49.5 52
s-34.167 24.667 -51.5 30h-81v-322h-88zM320.001 397c16 0 32.6689 2.49902 50.002 7.49902s33.166 13.667 47.499 26s26.333 29.333 36 51s14.5 49.5 14.5 83.5c0 42.667 -12.5 76.834 -37.5 102.501s-59.5 38.5 -103.5 38.5c-29.333 0 -56.333 -4 -81 -12
s-49.334 -20.333 -74.001 -37v-260h148z" />
    <glyph glyph-name="S" unicode="S" horiz-adv-x="618" 
d="M116 191c26 -42 55.3281 -73.1719 87.9951 -93.5049s72.334 -31.166 119.001 -32.499c21.333 0 41.666 3 60.999 9s36.333 14.833 51 26.5s26.334 26.5 35.001 44.5s13 39 13 63c0 23.333 -4.83301 43 -14.5 59s-22.667 29.5 -39 40.5s-35.166 20.167 -56.499 27.5
l-66 22c-29.333 8.66699 -57.5 18.334 -84.5 29.001s-51 24 -72 40s-37.667 35.667 -50 59s-18.166 52.333 -17.499 87c0.666992 46 9.33398 82.833 26.001 110.5s36.5 49.167 59.5 64.5s47 25.5 72 30.5s46.5 7.5 64.5 7.5c49.333 0 90.833 -8 124.5 -24
s63.834 -40 90.501 -72l-60 -51c-19.333 20.667 -40.666 37 -63.999 49s-53.666 18 -90.999 18c-11.333 0 -24.5 -1.5 -39.5 -4.5s-29.5 -9.33301 -43.5 -19s-26 -23.167 -36 -40.5s-15.667 -40.333 -17 -69c-0.666992 -19.333 3.33301 -35.666 12 -48.999
s20.5 -25 35.5 -35s32.5 -18.667 52.5 -26s40.667 -14.333 62 -21c29.333 -9.33301 58.166 -19.666 86.499 -30.999s53.833 -25.666 76.5 -42.999s40.834 -38.833 54.501 -64.5s20.5 -57.167 20.5 -94.5s-6.83301 -70 -20.5 -98s-32 -51.333 -55 -70
s-49.333 -32.5 -79 -41.5s-60.834 -13.5 -93.501 -13.5c-60.667 2 -112.334 14.833 -155.001 38.5s-80 61.167 -112 112.5z" />
    <glyph glyph-name="T" unicode="T" horiz-adv-x="556" 
d="M7 770h542v-76h-229v-694h-88v694h-225v76z" />
    <glyph glyph-name="U" unicode="U" horiz-adv-x="683" 
d="M599 239c0 -37.333 -4.50195 -69.502 -13.502 -96.502s-20.667 -49.833 -35 -68.5s-30.666 -33.667 -48.999 -45s-37 -20 -56 -26s-37.5 -10 -55.5 -12s-34 -3 -48 -3s-30.167 1 -48.5 3s-37 6.16699 -56 12.5s-37.667 15.166 -56 26.499s-34.666 26.333 -48.999 45
s-26 41.334 -35 68.001s-13.5 58.667 -13.5 96v531h88v-529c0 -38.667 6.16699 -69.667 18.5 -93s27.333 -41.166 45 -53.499s36.334 -20.333 56.001 -24s36.5 -5.5 50.5 -5.5s30.667 2 50 6s37.666 12.333 54.999 25s32.333 30.334 45 53.001s19 52.667 19 90v531h88v-531
v0z" />
    <glyph glyph-name="V" unicode="V" horiz-adv-x="684" 
d="M296 0l-274 770h93l224 -633l3 -13l3 13l224 633h93l-274 -770h-92z" />
    <glyph glyph-name="W" unicode="W" horiz-adv-x="976" 
d="M243 0l-218 770h90l162 -610l2 -12l2 12l160 610h93l160 -612l2 -12l2 12l162 612h91l-218 -770h-73l-170 594l-3 18l-3 -18l-168 -594h-73z" />
    <glyph glyph-name="X" unicode="X" horiz-adv-x="655" 
d="M626 770l-245 -386l245 -384h-107l-192 299l-190 -299h-108l244 384l-244 386h105l193 -301l192 301h107z" />
    <glyph glyph-name="Y" unicode="Y" horiz-adv-x="615" 
d="M606 770l-254 -401v-369h-87v369l-256 401h103l197 -309l198 309h99z" />
    <glyph glyph-name="Z" unicode="Z" horiz-adv-x="611" 
d="M562 15c-7.33301 -4 -17.5 -6.83301 -30.5 -8.5s-26.167 -3.16699 -39.5 -4.5c-15.333 -1.33301 -31.333 -2 -48 -2h-395v82l385 606h-375v82h482v-80l-385 -608h290c13.333 0 27 0.666992 41 2c11.333 1.33301 23.833 3 37.5 5s26.167 5 37.5 9v-83z" />
    <glyph glyph-name="bracketleft" unicode="[" horiz-adv-x="357" 
d="M288 710h-120v-910h120v-60h-204v1030h204v-60z" />
    <glyph glyph-name="backslash" unicode="\" horiz-adv-x="362" 
d="M107 770l231 -770h-83l-231 770h83z" />
    <glyph glyph-name="bracketright" unicode="]" horiz-adv-x="357" 
d="M69 -200h120v910h-120v60h204v-1030h-204v60z" />
    <glyph glyph-name="asciicircum" unicode="^" horiz-adv-x="652" 
d="M362 550l251 -550h-72l-215 471l-215 -471h-72l251 550h72z" />
    <glyph glyph-name="underscore" unicode="_" horiz-adv-x="659" 
d="M605 -64h-551v64h551v-64z" />
    <glyph glyph-name="grave" unicode="`" horiz-adv-x="343" 
d="M158 756l131 -146h-69l-166 146h104z" />
    <glyph glyph-name="a" unicode="a" horiz-adv-x="562" 
d="M110 407l-5.5 10.5059l-11.5 23l-11 23c-3.33301 7 -5 10.833 -5 11.5l40.5 22c18.333 10 39.5 19.667 63.5 29s49.667 17.666 77 24.999s55 11 83 11c28.667 0 51.667 -5.83301 69 -17.5s30.833 -25.667 40.5 -42s16 -33.666 19 -51.999s4.5 -33.833 4.5 -46.5v-296
c0 -1.33301 0.166992 -4.33301 0.5 -9s2.16602 -10.5 5.49902 -17.5s8.66602 -14.333 15.999 -22s18 -14.834 32 -21.501l-54 -50c-24 9.33301 -41.667 21.666 -53 36.999s-19.333 31.666 -24 48.999c-24 -25.333 -52 -46 -84 -62s-66.667 -24 -104 -24
c-5.33301 0 -16.5 1.33301 -33.5 4s-34.5 9 -52.5 19s-34 25 -48 45s-21 47.333 -21 82c0 18 2.33301 36.167 7 54.5s14.167 35.833 28.5 52.5s34.5 31.5 60.5 44.5s60 22.5 102 28.5l88 13c22 3.33301 39 6.66602 51 9.99902v63c0 5.33301 -0.5 12.5 -1.5 21.5
s-3.66699 17.833 -8 26.5s-10.666 16.167 -18.999 22.5s-19.5 9.5 -33.5 9.5s-29.167 -2 -45.5 -6s-32.666 -8.83301 -48.999 -14.5s-32 -11.834 -47 -18.501s-28.167 -12.834 -39.5 -18.501l-27.5 -14zM206 58.0059c17.333 -1.33301 34.8301 0.496094 52.4971 5.49609
s34.667 11.833 51 20.5s31.5 18.834 45.5 30.501s26 23.834 36 36.501v118c-15.333 -3.33301 -32.666 -6.33301 -51.999 -9s-45.333 -6.66699 -78 -12c-27.333 -4 -49.166 -9.83301 -65.499 -17.5s-29 -16.5 -38 -26.5s-14.833 -20.667 -17.5 -32s-4 -22.666 -4 -33.999
c0 -17.333 3 -31.166 9 -41.499s12.833 -18.333 20.5 -24s15.334 -9.5 23.001 -11.5s13.5 -3 17.5 -3z" />
    <glyph glyph-name="b" unicode="b" horiz-adv-x="624" 
d="M353 562c37.333 0 69.666 -7.66699 96.999 -23s49.833 -35.833 67.5 -61.5s30.834 -55.334 39.501 -89.001s13 -68.5 13 -104.5c0 -94 -20.5 -166.833 -61.5 -218.5s-97.5 -77.5 -169.5 -77.5c-25.333 0 -53.333 5.33301 -84 16s-60 27.334 -88 50.001v-54h-83v820h83
v-341c10.667 12 22.167 23 34.5 33s26 18.833 41 26.5s31.5 13.5 49.5 17.5s38.333 6 61 6zM353 480c-24 0 -45.834 -2.99805 -65.501 -8.99805s-37 -14 -52 -24s-28.167 -21.167 -39.5 -33.5s-21 -24.833 -29 -37.5v-230c24.667 -24.667 53 -44 85 -58s61 -21 87 -21
c44.667 0 80.334 19.167 107.001 57.5s40 91.5 40 159.5c0 25.333 -2.83301 49.666 -8.5 72.999s-14 44.166 -25 62.499s-24.833 33 -41.5 44s-36 16.5 -58 16.5z" />
    <glyph glyph-name="c" unicode="c" horiz-adv-x="508" 
d="M290 562c28 0 52.668 -4.49512 74.001 -13.4951s39 -19.167 53 -30.5c16.667 -12.667 30.667 -27.334 42 -44.001l-53 -50c-7.33301 11.333 -16.666 21.666 -27.999 30.999c-9.33301 8 -21.333 15.333 -36 22s-32.667 10 -54 10c-17.333 0 -34.833 -4.5 -52.5 -13.5
s-33.834 -22.667 -48.501 -41s-26.5 -41.5 -35.5 -69.5s-13.5 -60.667 -13.5 -98c0 -27.333 3.5 -53.333 10.5 -78s16.667 -46.334 29 -65.001s27.5 -33.334 45.5 -44.001s38 -16 60 -16c10 0 19.833 0.666992 29.5 2s19.667 4.16602 30 8.49902
s21.666 10.666 33.999 18.999s25.833 19.5 40.5 33.5l52 -50c-20 -20 -38.5 -35.833 -55.5 -47.5s-33 -20.5 -48 -26.5s-29.333 -9.66699 -43 -11s-26.834 -2 -39.501 -2c-34.667 0 -66 7.16699 -94 21.5s-52 33.833 -72 58.5s-35.5 53.834 -46.5 87.501
s-16.5 70.167 -16.5 109.5c0 52 7.33301 96.667 22 134s33.334 68 56.001 92s48 41.833 76 53.5s55.333 17.5 82 17.5z" />
    <glyph glyph-name="d" unicode="d" horiz-adv-x="639" 
d="M254 -8c-30.667 0 -58.333 7.49902 -83 22.499s-45.667 35.167 -63 60.5s-30.666 54.5 -39.999 87.5s-14 67.5 -14 103.5c0 94 20.833 166.833 62.5 218.5s98.5 77.5 170.5 77.5c27.333 0 55.5 -6.5 84.5 -19.5s57.833 -31.833 86.5 -56.5v334h84v-688
c-0.666992 -13.333 1 -26 5 -38c3.33301 -10 9 -20.167 17 -30.5s20 -18.166 36 -23.499l-53 -54c-17.333 6 -31.166 13.5 -41.499 22.5s-18.5 18.5 -24.5 28.5s-10.333 19.833 -13 29.5s-4.33398 18.5 -5.00098 26.5c-26.667 -30 -57.334 -54.5 -92.001 -73.5
s-73.667 -28.167 -117 -27.5zM254.001 72.999c26.667 -2 50.668 1.33496 72.001 10.002s40.5 20 57.5 34s31.667 29.167 44 45.5s22.5 30.833 30.5 43.5v183c-28 27.333 -57 49.333 -87 66s-58 25 -84 25c-44.667 0 -80.334 -18.667 -107.001 -56s-40 -90 -40 -158
c0 -25.333 2.66699 -49.333 8 -72s13 -42.834 23 -60.501s22 -31.834 36 -42.501s29.667 -16.667 47 -18z" />
    <glyph glyph-name="e" unicode="e" horiz-adv-x="577" 
d="M54 269c0 40 5.50488 77.8311 16.5049 113.498s26.833 66.667 47.5 93s45.5 47.333 74.5 63s61.5 23.5 97.5 23.5c34 0 63.167 -5.16699 87.5 -15.5s44.666 -23.333 60.999 -39s29.333 -33.167 39 -52.5s17.167 -38.166 22.5 -56.499s8.66602 -34.666 9.99902 -48.999
s2 -24.833 2 -31.5v-39h-375c-1.33301 -32.667 1.16699 -62.334 7.5 -89.001s16.166 -49.667 29.499 -69s30 -34.333 50 -45s43.333 -16 70 -16c7.33301 0 16.666 0.333008 27.999 1s24.333 4 39 10s30.667 15.5 48 28.5s35.666 32.167 54.999 57.5l51 -49
c-25.333 -31.333 -49 -55.166 -71 -71.499s-42.5 -28 -61.5 -35s-36 -11 -51 -12s-27.5 -1.5 -37.5 -1.5c-40 0 -75 7.5 -105 22.5s-55 35.333 -75 61s-35 55.5 -45 89.5s-15 70 -15 108zM290.005 489.998c-18.667 0 -35.5 -3.5 -50.5 -10.5s-28.333 -16.667 -40 -29
s-21.834 -26.833 -30.501 -43.5s-15.667 -34.667 -21 -54h279c-2 14 -6 29 -12 45s-14.333 30.833 -25 44.5s-24.167 25 -40.5 34s-36.166 13.5 -59.499 13.5z" />
    <glyph glyph-name="f" unicode="f" horiz-adv-x="393" 
d="M186 550h162.001v-70h-162v-480h-83v480h-71v70h71v96c0 26 2.66699 49.833 8 71.5s14.166 40.5 26.499 56.5s28.333 28.5 48 37.5s43.834 13.5 72.501 13.5c19.333 0 39.333 -3.33301 60 -10s39.667 -14 57 -22c20 -9.33301 39 -20 57 -32l-51 -51
c-14 8 -28 15.333 -42 22c-12 5.33301 -25.167 10.5 -39.5 15.5s-28.166 7.5 -41.499 7.5c-16.667 0 -29.834 -2.83301 -39.501 -8.5s-16.834 -13.334 -21.501 -23.001s-7.66699 -21.167 -9 -34.5s-2 -27.666 -2 -42.999v-96z" />
    <glyph glyph-name="g" unicode="g" horiz-adv-x="613" 
d="M161 388c0 -28.667 4.66699 -51.3301 14 -67.9971s20.833 -29.334 34.5 -38.001s28.167 -14.334 43.5 -17.001s29.333 -4 42 -4s26.667 1.66699 42 5s29.666 9.66602 42.999 18.999s24.666 22.333 33.999 39s14 38 14 64c0 20.667 -4.66699 38 -14 52
s-20.666 25.5 -33.999 34.5s-27.666 15.5 -42.999 19.5s-29.333 6 -42 6s-26.667 -2 -42 -6s-29.833 -10.5 -43.5 -19.5s-25.167 -20.5 -34.5 -34.5s-14 -31.333 -14 -52zM92 122.004c0 17.333 6.83301 35.0049 20.5 53.0049s30.5 35 50.5 51
c-23.333 13.333 -43.333 32.666 -60 57.999s-25 60 -25 104c0 31.333 7.5 58.166 22.5 80.499s33.5 40.5 55.5 54.5s45.5 24.333 70.5 31s47.833 10 68.5 10s43 -3 67 -9c20.667 18.667 44.334 33.167 71.001 43.5s53.334 15.5 80.001 15.5
c9.33301 0 19.166 -0.833008 29.499 -2.5s20.5 -4.16699 30.5 -7.5l-14 -70c-12 4 -27.333 6 -46 6c-28.667 0 -55.667 -5.33301 -81 -16c22 -14 40.667 -32.167 56 -54.5s23 -49.5 23 -81.5c0 -40 -7.33301 -72.333 -22 -97s-33 -44 -55 -58s-45.5 -23.5 -70.5 -28.5
s-47.833 -7.5 -68.5 -7.5c-9.33301 0 -19 0.333008 -29 1s-20.333 2 -31 4c-16 -11.333 -29.833 -24 -41.5 -38s-17.5 -28 -17.5 -42c2 -2 8.16699 -3.5 18.5 -4.5s22.166 -1.66699 35.499 -2l38.5 -1c12.333 -0.333008 21.5 -0.5 27.5 -0.5
c32.667 -2 65.834 -5.33301 99.501 -10s64.167 -12.834 91.5 -24.501s49.666 -27.834 66.999 -48.501s26 -47.667 26 -81c0 -30 -5.66699 -58.667 -17 -86s-28.5 -51.333 -51.5 -72s-52.167 -37 -87.5 -49s-77 -18 -125 -18c-31.333 0 -61.5 4.66699 -90.5 14
s-54.5 22.166 -76.5 38.499s-39.667 35.166 -53 56.499s-20 44 -20 68c0 22 2.16699 40.833 6.5 56.5s10.333 29.334 18 41.001s16.5 22 26.5 31s21 17.833 33 26.5c-14 6 -26 14 -36 24s-15 23.667 -15 41zM299 -201.991c34 0 63.333 4.16406 88 12.4971
s45.167 19.5 61.5 33.5s28.5 30.167 36.5 48.5s12 37.5 12 57.5c0 18 -6.33301 32.667 -19 44s-28.667 20.166 -48 26.499s-41 10.833 -65 13.5s-47.333 4.66699 -70 6c-9.33301 0 -20.333 0.166992 -33 0.5s-25.667 0.5 -39 0.5c-12 -7.33301 -23 -14.666 -33 -21.999
s-18.667 -16.166 -26 -26.499s-13 -22.666 -17 -36.999s-6 -32.166 -6 -53.499c0 -14.667 4.66699 -28.334 14 -41.001s21.5 -23.667 36.5 -33s31.833 -16.666 50.5 -21.999s37.667 -8 57 -8z" />
    <glyph glyph-name="h" unicode="h" horiz-adv-x="604" 
d="M84 0l0.00195312 820.002h84v-376c15.333 14.667 32.166 29.167 50.499 43.5s37.833 27 58.5 38s42 19.833 64 26.5s44.333 10 67 10c45.333 0 77.833 -15.333 97.5 -46s29.5 -72.334 29.5 -125.001v-391h-84v391c0 27.333 -3.33301 48.666 -10 63.999s-17.667 23 -33 23
c-26 0 -51 -4.5 -75 -13.5s-46.333 -20.333 -67 -34s-39.334 -28 -56.001 -43s-30.667 -28.5 -42 -40.5v-347h-84z" />
    <glyph glyph-name="i" unicode="i" horiz-adv-x="271" 
d="M177 550v-550h-83v550h83zM84 719c0 14.667 4.83301 26.834 14.5 36.501s22.167 14.5 37.5 14.5c14.667 0 26.834 -4.83301 36.501 -14.5s14.5 -21.834 14.5 -36.501c0 -15.333 -4.83301 -27.833 -14.5 -37.5s-21.834 -14.5 -36.501 -14.5
c-15.333 0 -27.833 4.83301 -37.5 14.5s-14.5 22.167 -14.5 37.5z" />
    <glyph glyph-name="j" unicode="j" horiz-adv-x="220" 
d="M126 550l0.000976562 -593.001c0 -31.333 -4.33301 -60.166 -13 -86.499s-19.667 -49.333 -33 -69s-28 -36 -44 -49s-31.667 -22.167 -47 -27.5l-25 79c10 1.33301 19.667 6.33301 29 15s17.666 20 24.999 34s13.333 29.833 18 47.5s7 36.5 7 56.5v593h83z
M33.001 718.999c0 14.667 4.83301 26.834 14.5 36.501s22.167 14.5 37.5 14.5c14.667 0 26.834 -4.83301 36.501 -14.5s14.5 -21.834 14.5 -36.501c0 -15.333 -4.83301 -27.833 -14.5 -37.5s-21.834 -14.5 -36.501 -14.5c-15.333 0 -27.833 4.83301 -37.5 14.5
s-14.5 22.167 -14.5 37.5z" />
    <glyph glyph-name="k" unicode="k" horiz-adv-x="553" 
d="M456 0c-4.66699 1.33301 -11.832 6.5 -21.499 15.5s-20.834 20.333 -33.501 34l-41 45.5l-43.5 50l-41.5 48l-35 40c-10 10.667 -18.667 18.834 -26 24.501s-14.666 9.5 -21.999 11.5c-4 1.33301 -8.5 1.66602 -13.5 0.999023s-8.5 -1.33398 -10.5 -2.00098v-268h-84v820
h84v-464c1.33301 1.33301 7 5.33301 17 12l36.5 25.5c14.333 10.333 29.833 22.166 46.5 35.499s32.834 27 48.501 41s29.834 27.833 42.501 41.5s22 26.5 28 38.5h85c-4 -14 -14 -30.667 -30 -50s-35.167 -39.166 -57.5 -59.499s-46 -40.5 -71 -60.5l-69.5 -54
c9.33301 -3.33301 18.666 -8.16602 27.999 -14.499s18.666 -14.5 27.999 -24.5l41.5 -48l54 -61l57.5 -63.5l53.5 -57c16.333 -17 30.166 -30.833 41.499 -41.5s18.333 -16 21 -16h-113z" />
    <glyph glyph-name="l" unicode="l" horiz-adv-x="278" 
d="M167 820v-674c0 -11.333 0.5 -23.5 1.5 -36.5s4.83301 -22.833 11.5 -29.5c14 -14 35.333 -21 64 -21l-3 -71c-8 0 -17.333 0.333008 -28 1s-21.667 2.16699 -33 4.5s-22.333 5.66602 -33 9.99902s-20 10.5 -28 18.5c-8.66699 8.66699 -15.334 18.334 -20.001 29.001
s-8.16699 21.5 -10.5 32.5s-3.66602 21.833 -3.99902 32.5s-0.5 20.667 -0.5 30v674h83z" />
    <glyph glyph-name="m" unicode="m" horiz-adv-x="907" 
d="M84 0l0.000976562 550.002h84v-99c12.667 14 26.667 27.667 42 41s31.666 25.166 48.999 35.499s35.666 18.666 54.999 24.999s40 9.5 62 9.5c38 0 66.833 -9.16699 86.5 -27.5s32.167 -47.166 37.5 -86.499c12.667 14.667 26.834 28.834 42.501 42.501
s32.167 25.834 49.5 36.501s36 19.167 56 25.5s41 9.5 63 9.5c45.333 0 77.833 -15.333 97.5 -46s29.5 -72.334 29.5 -125.001v-391h-84v391c0 27.333 -3.33301 48.666 -10 63.999s-17.667 23 -33 23c-25.333 0 -48.666 -4.5 -69.999 -13.5s-40.5 -20 -57.5 -33
s-32.167 -27 -45.5 -42l-35 -40.5v-349h-84v391c0 27.333 -3.33301 48.666 -10 63.999s-17.667 23 -33 23c-24 0 -46.333 -4.5 -67 -13.5s-39.834 -20 -57.501 -33s-33.5 -27 -47.5 -42s-26 -28.5 -36 -40.5v-349h-84z" />
    <glyph glyph-name="n" unicode="n" horiz-adv-x="604" 
d="M84 0l-0.000976562 550.001h84v-106c15.333 14.667 32.166 29.167 50.499 43.5s37.833 27 58.5 38s42 19.833 64 26.5s44.333 10 67 10c45.333 0 77.833 -15.333 97.5 -46s29.5 -72.334 29.5 -125.001v-391h-84v391c0 27.333 -3.33301 48.666 -10 63.999
s-17.667 23 -33 23c-25.333 0 -49.5 -4.33301 -72.5 -13s-44.667 -19.5 -65 -32.5s-39.166 -27.167 -56.499 -42.5s-32.666 -29.666 -45.999 -42.999v-347h-84z" />
    <glyph glyph-name="o" unicode="o" horiz-adv-x="586" 
d="M54 275c0 52.667 6.83301 97.167 20.5 133.5s31.667 65.833 54 88.5s47.833 39.167 76.5 49.5s58 15.5 88 15.5s59.333 -5.16699 88 -15.5s54.167 -26.833 76.5 -49.5s40.333 -52.334 54 -89.001s20.5 -81 20.5 -133c0 -53.333 -6.83301 -98.166 -20.5 -134.499
s-31.667 -65.833 -54 -88.5s-47.833 -39 -76.5 -49s-58 -15 -88 -15s-59.333 4.83301 -88 14.5s-54.167 25.667 -76.5 48s-40.333 51.833 -54 88.5s-20.5 82 -20.5 136zM448 275c0 38.667 -4.5 71.834 -13.5 99.501s-20.833 50.167 -35.5 67.5
s-31.334 30.166 -50.001 38.499s-37.334 12.5 -56.001 12.5c-19.333 0 -38.166 -3.83301 -56.499 -11.5s-34.833 -20.167 -49.5 -37.5s-26.5 -39.833 -35.5 -67.5s-13.5 -61.5 -13.5 -101.5c0 -39.333 4.5 -73 13.5 -101s20.833 -50.667 35.5 -68s31.167 -30 49.5 -38
s37.166 -12 56.499 -12c18.667 0 37.334 3.83301 56.001 11.5s35.334 20.167 50.001 37.5s26.5 40 35.5 68s13.5 62 13.5 102z" />
    <glyph glyph-name="p" unicode="p" horiz-adv-x="622" 
d="M84 -260l-0.000976562 810h82v-92c11.333 14.667 24.166 28.334 38.499 41.001s30 23.667 47 33s35.333 16.666 55 21.999s40.834 8 63.501 8c30.667 0 58.167 -7.83301 82.5 -23.5s45 -36.167 62 -61.5s30.167 -54.833 39.5 -88.5s14 -68.5 14 -104.5
c0 -94 -20.5 -166.833 -61.5 -218.5s-97.5 -77.5 -169.5 -77.5c-25.333 0 -53.166 7 -83.499 21s-59.5 32.333 -87.5 55v-324h-82zM369.999 480c-26 0 -49.834 -4.33008 -71.501 -12.9971s-41 -19.667 -58 -33s-31.667 -27.5 -44 -42.5s-22.5 -28.833 -30.5 -41.5v-194
c12 -12 25.333 -23.333 40 -34s29.5 -19.834 44.5 -27.501s29.833 -13.667 44.5 -18s28.667 -6.5 42 -6.5c44.667 0 80.334 18.667 107.001 56s40 90 40 158c0 25.333 -2.66699 49.666 -8 72.999s-13 44.166 -23 62.499s-22 33 -36 44s-29.667 16.5 -47 16.5z" />
    <glyph glyph-name="q" unicode="q" horiz-adv-x="624" 
d="M252 -12c-30.667 0 -58.1689 7.83398 -82.502 23.501s-45 36.167 -62 61.5s-30.167 54.833 -39.5 88.5s-14 68.5 -14 104.5c0 94 20.5 166.833 61.5 218.5s97.5 77.5 169.5 77.5c24.667 0 52.334 -5.33301 83.001 -16s60 -27.334 88 -50.001v54h84v-810h-84v365
c-11.333 -14 -24.166 -28.167 -38.499 -42.5s-30 -27 -47 -38s-35.5 -19.833 -55.5 -26.5s-41 -10 -63 -10zM251.998 67.001c26 -0.666992 49.668 4 71.001 14s40.5 22.5 57.5 37.5s31.833 30.833 44.5 47.5s23 31.334 31 44.001v184c-12.667 12 -26.167 23.5 -40.5 34.5
s-29 20.5 -44 28.5s-30 14.5 -45 19.5s-28.833 7.5 -41.5 7.5c-44.667 0 -80.334 -19.333 -107.001 -58s-40 -92 -40 -160c0 -25.333 2.66699 -49.833 8 -73.5s13 -44.834 23 -63.501s22 -33.667 36 -45s29.667 -17 47 -17z" />
    <glyph glyph-name="r" unicode="r" horiz-adv-x="436" 
d="M168 550v-75.002c17.333 30 37.833 52 61.5 66s49.5 21 77.5 21c21.333 0 40.333 -2.83301 57 -8.5s30.667 -12.167 42 -19.5c12.667 -8 24 -17 34 -27l-58 -56c-4.66699 5.33301 -10.667 10.333 -18 15c-6 4 -13.5 7.66699 -22.5 11s-19.167 5 -30.5 5
c-16 0 -31.167 -4.33301 -45.5 -13s-27.5 -19.667 -39.5 -33s-22.833 -28.166 -32.5 -44.499s-18.167 -32.166 -25.5 -47.499v-344h-84v550h84z" />
    <glyph glyph-name="s" unicode="s" horiz-adv-x="502" 
d="M156 405c0 -12 3.16602 -22.1689 9.49902 -30.502s14.833 -15.5 25.5 -21.5s22.834 -11.333 36.501 -16l42.5 -14c22 -6.66699 44 -13.834 66 -21.501s41.667 -17.834 59 -30.501s31.333 -28.5 42 -47.5s16 -43.167 16 -72.5c0 -28 -5.5 -52.167 -16.5 -72.5
s-25.667 -37.166 -44 -50.499s-39.166 -23.333 -62.499 -30s-47 -10 -71 -10c-20 0 -40.333 2.33301 -61 7s-40.5 11.667 -59.5 21s-36.5 21 -52.5 35s-30 30.333 -42 49l58 47c15.333 -28 37.666 -49.667 66.999 -65s60 -23.333 92 -24c14 0 27.5 1.83301 40.5 5.5
s24.5 9.33398 34.5 17.001s18.167 17.334 24.5 29.001s9.5 25.5 9.5 41.5c0 14 -3.66699 26.167 -11 36.5s-17 19.166 -29 26.499s-25.333 13.5 -40 18.5l-44 14.5c-21.333 6 -42.166 12.833 -62.499 20.5s-38.833 17.334 -55.5 29.001s-30 26.167 -40 43.5s-15 39 -15 65
c0 33.333 6.66699 60.333 20 81s29.166 36.667 47.499 48s37.5 18.833 57.5 22.5s36.667 5.5 50 5.5c36 0 69 -5.83301 99 -17.5s54.667 -27.167 74 -46.5l-54 -52c-13.333 14 -30.333 25.167 -51 33.5s-43.334 12.5 -68.001 12.5c-7.33301 0 -16.166 -1 -26.499 -3
s-20.333 -6.16699 -30 -12.5s-18 -15.166 -25 -26.499s-10.5 -26.333 -10.5 -45z" />
    <glyph glyph-name="t" unicode="t" horiz-adv-x="398" 
d="M44 552l70 -0.00195312v198h84v-198h132v-70h-132v-322c0 -9.33301 0.333008 -19.666 1 -30.999s2.5 -22 5.5 -32s8 -18.5 15 -25.5s17.167 -10.5 30.5 -10.5c16.667 0 31.5 3.5 44.5 10.5s25.833 16.5 38.5 28.5l51 -49c-22 -23.333 -45.5 -39.666 -70.5 -48.999
s-53.5 -14 -85.5 -14c-42 0 -71.5 15.667 -88.5 47s-25.5 73 -25.5 125v322h-70v70z" />
    <glyph glyph-name="u" unicode="u" horiz-adv-x="604" 
d="M196 69c24.667 0 48.502 4.33398 71.502 13.001s44.833 19.667 65.5 33s39.667 27.666 57 42.999s32.666 30 45.999 44v348h84v-550h-84v97c-15.333 -14.667 -32.333 -28.667 -51 -42s-38.334 -25 -59.001 -35s-42 -17.833 -64 -23.5s-44 -8.5 -66 -8.5
c-45.333 0 -77.833 15.167 -97.5 45.5s-29.5 72.166 -29.5 125.499v391h84v-391c0 -27.333 3.33301 -49.166 10 -65.499s17.667 -24.5 33 -24.5z" />
    <glyph glyph-name="v" unicode="v" horiz-adv-x="522" 
d="M112 550l143.002 -425.002l3 -19c0 -1.33301 0.166992 -1.16602 0.5 0.500977s0.666016 3.66699 0.999023 6s0.666016 4.83301 0.999023 7.5s0.5 4.33398 0.5 5.00098c11.333 42.667 24.5 87.667 39.5 135s30.167 91.333 45.5 132s29.5 75.5 42.5 104.5
s23.167 46.833 30.5 53.5h91c-10 -10.667 -20.5 -26.667 -31.5 -48s-22.5 -45.833 -34.5 -73.5s-23.833 -57.5 -35.5 -89.5l-33.5 -96c-25.333 -74.667 -51 -155.667 -77 -243h-73l-210 550h97z" />
    <glyph glyph-name="w" unicode="w" horiz-adv-x="777" 
d="M184 0l-159 550h91l109 -410l3 -21l3 21l117 410h72l117 -410l4 -21l3 21l22 82l24.5 89l24.5 87c8 28 15.5 53 22.5 75s13.333 39.833 19 53.5s10.167 21.5 13.5 23.5h82c-3.33301 -3.33301 -8.5 -13.833 -15.5 -31.5s-14.833 -39.667 -23.5 -66l-28 -88.5l-30 -99
l-77 -265h-71l-123 424l-121 -424h-79z" />
    <glyph glyph-name="x" unicode="x" horiz-adv-x="582" 
d="M160 550l135.999 -198.999l41.5 60l45.5 64.5c14.667 20.333 27.667 37.5 39 51.5s18.666 21.667 21.999 23h104c-3.33301 -1.33301 -9.66602 -7.5 -18.999 -18.5l-33 -40.5l-40.5 -53.5l-42.5 -58l-39.5 -54.5l-30.5 -43l200 -282h-106l-142 212l-41.5 -60l-48.5 -69
l-43 -57.5c-12.667 -16.333 -20.667 -24.833 -24 -25.5h-104c3.33301 1.33301 10.333 8.16602 21 20.499s22.834 27.5 36.501 45.5l44.5 59l46 62.5l39.5 55.5l26.5 38l-194 269h106z" />
    <glyph glyph-name="y" unicode="y" horiz-adv-x="513" 
d="M105 550l149 -386.001l53.5 129l51.5 121c16 36.667 30 67.5 42 92.5s20.333 39.5 25 43.5h95c-4.66699 -4.66699 -9.33398 -10 -14.001 -16s-10.667 -16 -18 -30s-16.5 -33.333 -27.5 -58l-43 -100.5l-65.5 -157l-93 -227.5
c-12.667 -31.333 -26.5 -62.166 -41.5 -92.499s-35.167 -57.833 -60.5 -82.5c-27.333 -26 -53.5 -42.5 -78.5 -49.5s-46.167 -10.833 -63.5 -11.5l-21 73c30.667 2 53.334 7 68.001 15s27.334 17.333 38.001 28c6 6 11.833 12.333 17.5 19s11.5 15.334 17.5 26.001
s12.667 23.667 20 39s15.666 34.666 24.999 57.999l27 67l-192 500h89z" />
    <glyph glyph-name="z" unicode="z" horiz-adv-x="516" 
d="M477 17c-3.33301 -4 -9.00098 -7 -17.001 -9s-16 -3.66699 -24 -5c-9.33301 -1.33301 -19.666 -2.33301 -30.999 -3h-356v71l310 409h-310v70h411v-70l-310 -409h256c10 0 19.667 0.666992 29 2c8 1.33301 16 3 24 5s14 5.33301 18 10v-71z" />
    <glyph glyph-name="braceleft" unicode="{" horiz-adv-x="468" 
d="M283 830c16.667 0 32 -1.83203 46 -5.49902s26.333 -7.5 37 -11.5c12 -4.66699 23 -10 33 -16l-28 -70c-6.66699 3.33301 -14 6.33301 -22 9c-7.33301 2.66699 -16.333 5 -27 7s-23.667 3 -39 3c-5.33301 0 -9.5 -2.5 -12.5 -7.5s-5.33301 -11 -7 -18
s-2.83398 -14.333 -3.50098 -22s-1 -14.5 -1 -20.5v-299c0 -0.666992 -0.5 -4.5 -1.5 -11.5s-3.5 -15.333 -7.5 -25s-10.333 -20 -19 -31s-20.667 -20.833 -36 -29.5c16 -8.66699 28.333 -18.5 37 -29.5s15 -21.333 19 -31s6.33301 -18 7 -25s1 -10.833 1 -11.5v-299
c0 -6 0.333008 -12.833 1 -20.5s1.83398 -15 3.50098 -22s4 -13 7 -18s7.16699 -7.5 12.5 -7.5c15.333 0 28.333 0.833008 39 2.5s19.667 3.83398 27 6.50098c8 2.66699 15.333 6 22 10l28 -70c-10 -6.66699 -21 -12.334 -33 -17.001c-10.667 -4 -23 -7.66699 -37 -11
s-29.333 -5 -46 -5c-23.333 0 -42 5.5 -56 16.5s-24.833 24.5 -32.5 40.5s-12.834 32.667 -15.501 50s-4 32.333 -4 45v298c-0.666992 13.333 -4.66699 25.333 -12 36c-6 9.33301 -15.5 17.833 -28.5 25.5s-31.5 11.5 -55.5 11.5v50c24 0 42.5 3.66699 55.5 11
s22.5 15.666 28.5 24.999c7.33301 10.667 11.333 23 12 37v298c0 12.667 1.33301 27.667 4 45s7.83398 34 15.501 50s18.5 29.5 32.5 40.5s32.667 16.5 56 16.5z" />
    <glyph glyph-name="bar" unicode="|" horiz-adv-x="244" 
d="M84 -260v1090h76v-1090h-76z" />
    <glyph glyph-name="braceright" unicode="}" horiz-adv-x="468" 
d="M185 746c-15.333 0 -28.502 -1 -39.502 -3s-20.167 -4.33301 -27.5 -7c-8.66699 -2.66699 -15.667 -5.66699 -21 -9l-28 70c10 6 21 11.333 33 16c10.667 4 23 7.83301 37 11.5s29.333 5.5 46 5.5c22.667 0 41.167 -5.5 55.5 -16.5s25.333 -24.5 33 -40.5
s12.834 -32.667 15.501 -50s4 -32.333 4 -45v-298c0.666992 -14 4.66699 -26.333 12 -37c6 -9.33301 15.333 -17.666 28 -24.999s31.334 -11 56.001 -11v-50c-23.333 0 -41.5 -3.5 -54.5 -10.5s-22.5 -14.833 -28.5 -23.5s-9.66699 -16.834 -11 -24.501s-2 -12.167 -2 -13.5
v-299c0 -12.667 -1.33301 -27.667 -4 -45s-7.83398 -34 -15.501 -50s-18.667 -29.5 -33 -40.5s-32.833 -16.5 -55.5 -16.5c-16.667 0 -32 1.66699 -46 5s-26.333 7 -37 11c-12 4.66699 -23 10.334 -33 17.001l28 70c5.33301 -4 12.333 -7.33301 21 -10
c7.33301 -2.66699 16.5 -4.83398 27.5 -6.50098s24.167 -2.5 39.5 -2.5c4.66699 0 8.66699 2.5 12 7.5s5.83301 11 7.5 18s2.83398 14.333 3.50098 22s1 14.5 1 20.5v298c0.666992 11.333 3.33398 23 8.00098 35c4 10 10.333 20.667 19 32s20.667 21.666 36 30.999
c-15.333 8.66699 -27.333 18.5 -36 29.5s-15 21.333 -19 31s-6.33301 17.834 -7 24.501s-1 10.667 -1 12v299c0 6 -0.333008 12.833 -1 20.5s-1.83398 15 -3.50098 22s-4.16699 13 -7.5 18s-7.33301 7.5 -12 7.5z" />
    <glyph glyph-name="asciitilde" unicode="~" horiz-adv-x="650" 
d="M54 349c8.66699 7.33301 19.6641 14.6689 32.9971 22.002c11.333 6 25.833 11.667 43.5 17s39.167 9.66602 64.5 12.999c18 2 38 1 60 -3s44.667 -9 68 -15c20.667 -4.66699 42.834 -9 66.501 -13s44.834 -5 63.501 -3c19.333 2 36 5 50 9s25.667 8 35 12
c10.667 4.66699 19.334 9.66699 26.001 15l32 -56c-10 -7.33301 -21.667 -14.333 -35 -21c-11.333 -5.33301 -25.5 -10.666 -42.5 -15.999s-36.167 -9 -57.5 -11c-22.667 -2.66699 -46.5 -1.83398 -71.5 2.49902s-50.167 9.5 -75.5 15.5c-20 5.33301 -39.667 9.5 -59 12.5
s-36.666 3.83301 -51.999 2.5c-21.333 -2.66699 -39.333 -5.83398 -54 -9.50098s-26.334 -7.5 -35.001 -11.5c-10.667 -4.66699 -18.667 -9.66699 -24 -15z" />
    <glyph glyph-name="exclamdown" unicode="&#xa1;" horiz-adv-x="292" 
d="M183.007 374.012l12.999 -635.962h-98.9941l12.999 635.962h72.9961zM208.005 502.004c0 -17.333 -6 -31.832 -17.999 -43.498s-26.998 -17.499 -44.9971 -17.499c-17.332 0 -31.8311 5.83301 -43.4971 17.499s-17.499 26.165 -17.499 43.498
c0 17.999 5.83301 32.998 17.499 44.9971s26.165 17.999 43.4971 17.999c17.999 0 32.998 -6 44.9971 -17.999s17.999 -26.998 17.999 -44.9971z" />
    <glyph glyph-name="cent" unicode="&#xa2;" horiz-adv-x="508" 
d="M396 655l-28.999 -108c15.333 -6.66699 28.833 -14.167 40.5 -22.5s21.167 -16.166 28.5 -23.499c8.66699 -8.66699 16.334 -17.667 23.001 -27l-53 -50c-4 6 -8.66699 12 -14 18c-5.33301 5.33301 -11.5 10.833 -18.5 16.5s-15.5 10.834 -25.5 15.501l-106 -405
c12 -4.66699 25.667 -7 41 -7c10 0 19.833 0.666992 29.5 2s19.667 4.16602 30 8.49902s21.666 10.666 33.999 18.999s25.833 19.5 40.5 33.5l52 -50c-20 -20 -38.5 -35.833 -55.5 -47.5s-33 -20.5 -48 -26.5s-29.333 -9.66699 -43 -11s-26.834 -2 -39.501 -2
c-20 0 -40 2.66699 -60 8l-22 -86h-58l28 109c-36.667 22.667 -65.334 55.667 -86.001 99s-31 92.333 -31 147c0 52 7.33301 96.667 22 134s33.334 68 56.001 92s48 41.833 76 53.5s55.333 17.5 82 17.5c4 0 8 -0.166992 12 -0.5s7.66699 -0.833008 11 -1.5l25 95h58z
M138.001 265c0 -33.333 4.83398 -64 14.501 -92s23.167 -51.667 40.5 -71l101 385h-6c-17.333 0 -34.833 -4.5 -52.5 -13.5s-33.834 -22.667 -48.501 -41s-26.5 -41.5 -35.5 -69.5s-13.5 -60.667 -13.5 -98z" />
    <glyph glyph-name="sterling" unicode="&#xa3;" horiz-adv-x="589" 
d="M166 53c-11.333 0 -21.6602 -3.32812 -30.9932 -9.99512s-17.666 -13.667 -24.999 -21c-8 -9.33301 -15.333 -19.666 -22 -30.999l-62 34c8 14.667 17.667 28.334 29 41.001c9.33301 11.333 20.666 22.166 33.999 32.499s28.666 18.166 45.999 23.499l27 144h-72v70h86
l21 105.5l21 102l19 89l15 65.5c6.66699 26 16.667 47.167 30 63.5s27.5 29.166 42.5 38.499s29.667 15.833 44 19.5s26.166 5.5 35.499 5.5c15.333 0 29.166 -2.16699 41.499 -6.5s24.166 -10.333 35.499 -18s22.666 -17 33.999 -28l36 -36.5l-54 -44
c-18 19.333 -33.833 34.666 -47.5 45.999s-28.834 17 -45.501 17c-4 0 -9.33301 -1 -16 -3s-13.5 -5.83301 -20.5 -11.5s-13.667 -13.334 -20 -23.001s-11.5 -22.167 -15.5 -37.5s-8.66699 -35.5 -14 -60.5l-17.5 -83.5l-20 -97.5l-20.5 -102.5h146v-70h-160l-28 -146
c13.333 -3.33301 26.5 -7.66602 39.5 -12.999l37.5 -16c16 -7.33301 32.167 -14 48.5 -20s32.5 -9 48.5 -9c11.333 0 22.833 3.16699 34.5 9.5s22.5 13.166 32.5 20.499c12 8.66699 23.333 18.667 34 30l50 -50c-15.333 -16 -31.666 -30 -48.999 -42
c-14.667 -10.667 -30.834 -20.334 -48.501 -29.001s-35.5 -13 -53.5 -13c-24 0 -46.333 3.5 -67 10.5s-40.667 15.167 -60 24.5c-16.667 7.33301 -33.334 14.166 -50.001 20.499s-33 9.5 -49 9.5z" />
    <glyph glyph-name="yen" unicode="&#xa5;" horiz-adv-x="615" 
d="M533 168h-181v-168h-87v168h-183v67h183v93h-183v67h166l-239 375h103l197 -309l198 309h99l-238 -375h165v-67h-181v-93h181v-67z" />
    <glyph glyph-name="dieresis" unicode="&#xa8;" horiz-adv-x="432" 
d="M64 662c0 14.667 4.83301 26.834 14.5 36.501s22.167 14.5 37.5 14.5c14.667 0 26.834 -4.83301 36.501 -14.5s14.5 -21.834 14.5 -36.501c0 -15.333 -4.83301 -27.833 -14.5 -37.5s-21.834 -14.5 -36.501 -14.5c-15.333 0 -27.833 4.83301 -37.5 14.5
s-14.5 22.167 -14.5 37.5zM265 662c0 14.667 5 26.834 15 36.501s22.333 14.5 37 14.5c15.333 0 27.666 -4.83301 36.999 -14.5s14 -21.834 14 -36.501c0 -15.333 -4.66699 -27.833 -14 -37.5s-21.666 -14.5 -36.999 -14.5c-14.667 0 -27 4.83301 -37 14.5
s-15 22.167 -15 37.5z" />
    <glyph glyph-name="copyright" unicode="&#xa9;" horiz-adv-x="879" 
d="M54 385c0 53.333 10.167 103.5 30.5 150.5s48 88 83 123s75.833 62.5 122.5 82.5s96.667 30 150 30s103.333 -10 150 -30s87.5 -47.5 122.5 -82.5s62.5 -76 82.5 -123s30 -97.167 30 -150.5s-10 -103.333 -30 -150s-47.5 -87.5 -82.5 -122.5s-75.833 -62.5 -122.5 -82.5
s-96.667 -30 -150 -30s-103.333 10 -150 30s-87.5 47.5 -122.5 82.5s-62.667 75.833 -83 122.5s-30.5 96.667 -30.5 150zM443 596c21.333 0 39.8301 -3.66699 55.4971 -11s28.834 -15.333 39.501 -24c12 -10 22.667 -21.333 32 -34l-45 -43c-6 8 -13 15.667 -21 23
c-7.33301 6 -16.166 11.5 -26.499 16.5s-22.5 7.5 -36.5 7.5c-11.333 0 -23 -3 -35 -9s-22.833 -15.333 -32.5 -28s-17.667 -28.667 -24 -48s-9.5 -42.333 -9.5 -69c0 -18.667 2.33301 -36.334 7 -53.001s11.334 -31.5 20.001 -44.5s19 -23.333 31 -31
s25.333 -11.5 40 -11.5c6.66699 0 13.5 0.5 20.5 1.5s14.333 3.16699 22 6.5s15.834 8 24.501 14s18.667 14.333 30 25l42 -42c-15.333 -16 -29.333 -28.5 -42 -37.5s-24.667 -15.667 -36 -20s-22 -7.16602 -32 -8.49902s-19.667 -2 -29 -2
c-25.333 0 -48.333 5.16699 -69 15.5s-38.5 24.666 -53.5 42.999s-26.5 39.833 -34.5 64.5s-12 51.334 -12 80.001c0 38 5.5 70.667 16.5 98s25 50 42 68s35.667 31.333 56 40s40.166 13 59.499 13zM111.997 385c0 -44.667 8.66699 -86.834 26 -126.501
s40.833 -74.334 70.5 -104.001s64.334 -53.167 104.001 -70.5s82.167 -26 127.5 -26c44.667 0 86.834 8.66699 126.501 26s74.334 40.833 104.001 70.5s53.167 64.334 70.5 104.001s26 81.834 26 126.501s-8.66699 87 -26 127s-40.833 74.667 -70.5 104
s-64.334 52.666 -104.001 69.999s-81.834 26 -126.501 26c-45.333 0 -87.833 -8.66699 -127.5 -26s-74.334 -40.666 -104.001 -69.999s-53.167 -64 -70.5 -104s-26 -82.333 -26 -127z" />
    <glyph glyph-name="registered" unicode="&#xae;" horiz-adv-x="879" 
d="M292 178l0.000976562 416.002h62v-14c15.333 8.66699 30.833 14.167 46.5 16.5s32.167 3.5 49.5 3.5c14 -0.666992 28.333 -3.16699 43 -7.5s28 -11.333 40 -21s22 -22 30 -37s12 -33.5 12 -55.5c0 -20.667 -2.5 -38.334 -7.5 -53.001s-11.833 -27 -20.5 -37
s-18.5 -18 -29.5 -24s-22.5 -10.667 -34.5 -14c10 -9.33301 20.833 -21 32.5 -35s22.167 -27.333 31.5 -40c12 -16.667 25.167 -33.334 39.5 -50.001s32.166 -32.667 53.499 -48h-85c-11.333 8 -22.333 18.667 -33 32s-21 27.333 -31 42c-14 19.333 -29.833 38 -47.5 56
s-34.167 30.333 -49.5 37h-40v-167h-62zM435.001 395.002c8.66699 0 17.501 1.33594 26.501 4.00293s17.333 7 25 13s14.167 14.333 19.5 25s8 24.667 8 42c0 23.333 -6.66699 40.166 -20 50.499s-28 15.5 -44 15.5c-18 1.33301 -34.833 0.166016 -50.5 -3.50098
s-30.834 -9.83398 -45.501 -18.501v-128h81zM54.002 385.005c0 53.333 10.167 103.5 30.5 150.5s48 88 83 123s75.833 62.5 122.5 82.5s96.667 30 150 30s103.333 -10 150 -30s87.5 -47.5 122.5 -82.5s62.5 -76 82.5 -123s30 -97.167 30 -150.5s-10 -103.333 -30 -150
s-47.5 -87.5 -82.5 -122.5s-75.833 -62.5 -122.5 -82.5s-96.667 -30 -150 -30s-103.333 10 -150 30s-87.5 47.5 -122.5 82.5s-62.667 75.833 -83 122.5s-30.5 96.667 -30.5 150zM112.002 385.005c0 -44.667 8.66699 -86.834 26 -126.501s40.833 -74.334 70.5 -104.001
s64.334 -53.167 104.001 -70.5s82.167 -26 127.5 -26c44.667 0 86.834 8.66699 126.501 26s74.334 40.833 104.001 70.5s53.167 64.334 70.5 104.001s26 81.834 26 126.501s-8.66699 87 -26 127s-40.833 74.667 -70.5 104s-64.334 52.666 -104.001 69.999
s-81.834 26 -126.501 26c-45.333 0 -87.833 -8.66699 -127.5 -26s-74.334 -40.666 -104.001 -69.999s-53.167 -64 -70.5 -104s-26 -82.333 -26 -127z" />
    <glyph glyph-name="acute" unicode="&#xb4;" horiz-adv-x="343" 
d="M289 756l-166 -146h-69l131 146h104z" />
    <glyph glyph-name="paragraph" unicode="&#xb6;" horiz-adv-x="732" 
d="M395 -250l-0.00292969 528c-14 -10 -29 -18.667 -45 -26c-13.333 -6.66699 -28.666 -12.5 -45.999 -17.5s-35.333 -7.5 -54 -7.5c-27.333 0 -53.166 6.5 -77.499 19.5s-45.666 31.333 -63.999 55s-32.833 52.167 -43.5 85.5s-16 70.333 -16 111
c0 37.333 6.5 72.5 19.5 105.5s31.333 61.833 55 86.5s52.167 44.167 85.5 58.5s70.333 21.5 111 21.5h333v-57h-75v-963h-57v963h-69v-963h-57z" />
    <glyph glyph-name="periodcentered" unicode="&#xb7;" horiz-adv-x="245" 
d="M64 275c0 16.667 5.66699 30.334 17 41.001s25.666 16 42.999 16c16.667 0 30.334 -5.33301 41.001 -16s16 -24.334 16 -41.001c0 -17.333 -5.33301 -31.666 -16 -42.999s-24.334 -17 -41.001 -17c-17.333 0 -31.666 5.66699 -42.999 17s-17 25.666 -17 42.999z" />
    <glyph glyph-name="cedilla" unicode="&#xb8;" horiz-adv-x="325" 
d="M197 -123c0 14 -5.49902 24.332 -16.499 30.999s-26.167 10.334 -45.5 11.001h-19l47 81h53l-25 -52c20.667 -3.33301 37.5 -10.166 50.5 -20.499s19.5 -27.166 19.5 -50.499c0 -20.667 -8.16699 -39.334 -24.5 -56.001s-43.5 -25 -81.5 -25c-12 0 -22.833 1.5 -32.5 4.5
s-18.334 6.66699 -26.001 11s-14.167 8.66602 -19.5 12.999s-9.66602 8.16602 -12.999 11.499l28 36c5.33301 -5.33301 13.333 -11.666 24 -18.999s23.667 -11 39 -11s26.166 3.66699 32.499 11s9.5 15.333 9.5 24z" />
    <glyph glyph-name="questiondown" unicode="&#xbf;" horiz-adv-x="502" 
d="M121.023 -86.9609c0 -9.99902 1.16797 -21.3291 3.50098 -33.9951s7.66602 -24.665 15.999 -35.998s20.832 -20.832 37.4971 -28.498c16.666 -7.66602 38.998 -11.499 66.9961 -11.499c25.999 0 49.1641 6.16602 69.4961 18.499s37.8311 26.165 52.4971 41.4971
c17.332 17.333 31.998 37.332 43.9971 59.9971l52.9961 -49.9971c-15.999 -25.998 -34.998 -49.3301 -56.9971 -69.9951c-18.665 -17.333 -41.4971 -33.332 -68.4961 -47.9971c-26.998 -14.666 -58.1631 -21.999 -93.4941 -21.999
c-44.6641 0 -80.6621 6.33301 -107.993 18.999s-48.3301 28.165 -62.9961 46.4971s-24.499 37.8311 -29.498 58.4971c-5 20.665 -7.5 39.3301 -7.5 55.9951c0 27.3311 4.66602 52.3291 13.999 74.9941s21.332 43.6641 35.998 62.9961
c14.666 19.333 30.998 37.665 48.9971 54.9971l53.9971 49.9971c21.999 19.999 40.8311 38.8311 56.4961 56.4961c15.666 17.666 23.499 33.498 23.499 47.4971c0 15.999 -4.5 29.498 -13.5 40.4971c-8.99902 10.999 -22.165 24.165 -39.4971 39.4971l57.9961 47.9971
c10.666 -9.33301 20.332 -18.499 28.998 -27.498c8.66699 -8.99902 16.167 -18.332 22.5 -27.998s11.333 -20.499 15 -32.498s5.5 -25.665 5.5 -40.998c0 -31.998 -9.83301 -60.4961 -29.498 -85.4941c-19.665 -24.999 -44.4971 -50.8311 -74.4961 -77.4961
c-13.999 -12.666 -28.165 -26.165 -42.498 -40.498s-27.166 -29.165 -38.499 -44.4971c-11.333 -15.333 -20.832 -31.165 -28.498 -47.4971c-7.66602 -16.333 -11.832 -33.165 -12.499 -50.4971zM310.013 504.006c0 -15.999 -5.33301 -29.165 -15.999 -39.498
s-23.998 -15.5 -39.9971 -15.5s-29.165 5.16699 -39.498 15.5s-15.499 23.499 -15.499 39.498s5.16602 29.332 15.499 39.998s23.499 15.999 39.498 15.999s29.3311 -5.33301 39.9971 -15.999s15.999 -23.999 15.999 -39.998z" />
    <glyph glyph-name="Agrave" unicode="&#xc0;" horiz-adv-x="708" 
d="M400 770l284 -770h-93l-97 262h-281l-96 -262h-93l284 770h92zM354 672c-0.666992 -9.33301 -1.66797 -18.333 -3.00098 -27s-2.66602 -15.667 -3.99902 -21l-106 -286h225l-106 286c-1.33301 4.66699 -2.33301 9.66699 -3 15c-2 8.66699 -3 19.667 -3 33zM249.999 966
l131 -146h-69l-166 146h104z" />
    <glyph glyph-name="Aacute" unicode="&#xc1;" horiz-adv-x="708" 
d="M400 770l284 -770h-93l-97 262h-281l-96 -262h-93l284 770h92zM354 672c-0.666992 -9.33301 -1.66797 -18.333 -3.00098 -27s-2.66602 -15.667 -3.99902 -21l-106 -286h225l-106 286c-1.33301 4.66699 -2.33301 9.66699 -3 15c-2 8.66699 -3 19.667 -3 33zM560.999 966
l-166 -146h-69l131 146h104z" />
    <glyph glyph-name="Acircumflex" unicode="&#xc2;" horiz-adv-x="708" 
d="M400 770l284 -770h-93l-97 262h-281l-96 -262h-93l284 770h92zM354 672c-0.666992 -9.33301 -1.66797 -18.333 -3.00098 -27s-2.66602 -15.667 -3.99902 -21l-106 -286h225l-106 286c-1.33301 4.66699 -2.33301 9.66699 -3 15c-2 8.66699 -3 19.667 -3 33zM386.999 966
l156 -146h-91l-98 95l-98 -95h-91l156 146h66z" />
    <glyph glyph-name="Atilde" unicode="&#xc3;" horiz-adv-x="708" 
d="M400 770l284 -770h-93l-97 262h-281l-96 -262h-93l284 770h92zM354 672c-0.666992 -9.33301 -1.66797 -18.333 -3.00098 -27s-2.66602 -15.667 -3.99902 -21l-106 -286h225l-106 286c-1.33301 4.66699 -2.33301 9.66699 -3 15c-2 8.66699 -3 19.667 -3 33zM557.999 878
c-8 -9.33301 -17.333 -17.665 -28 -24.998c-9.33301 -6.66699 -20.666 -12.667 -33.999 -18s-28.666 -8.66602 -45.999 -9.99902c-14.667 -1.33301 -30.834 0.666992 -48.501 6s-35.5 11.333 -53.5 18l-46.5 16c-15.667 5.33301 -29.834 7.66602 -42.501 6.99902
c-14.667 -1.33301 -27.167 -3.83301 -37.5 -7.5s-19.166 -7.83398 -26.499 -12.501c-8 -5.33301 -15 -11.333 -21 -18l-25 50c8 9.33301 17.333 17.666 28 24.999c9.33301 6.66699 20.666 12.667 33.999 18s28.666 8.66602 45.999 9.99902
c14.667 1.33301 30.834 -0.666992 48.501 -6s35.5 -11.333 53.5 -18l46.5 -16c15.667 -5.33301 29.834 -7.66602 42.501 -6.99902c14.667 0.666992 27.167 3 37.5 7s19.166 8.33301 26.499 13c8 5.33301 15 11.333 21 18z" />
    <glyph glyph-name="Adieresis" unicode="&#xc4;" horiz-adv-x="708" 
d="M400 770l284 -770h-93l-97 262h-281l-96 -262h-93l284 770h92zM354 672c-0.666992 -9.33301 -1.66797 -18.333 -3.00098 -27s-2.66602 -15.667 -3.99902 -21l-106 -286h225l-106 286c-1.33301 4.66699 -2.33301 9.66699 -3 15c-2 8.66699 -3 19.667 -3 33zM201.999 877
c0 14.667 4.83301 26.834 14.5 36.501s22.167 14.5 37.5 14.5c14.667 0 26.834 -4.83301 36.501 -14.5s14.5 -21.834 14.5 -36.501c0 -15.333 -4.83301 -27.833 -14.5 -37.5s-21.834 -14.5 -36.501 -14.5c-15.333 0 -27.833 4.83301 -37.5 14.5s-14.5 22.167 -14.5 37.5z
M402.999 877c0 14.667 5 26.834 15 36.501s22.333 14.5 37 14.5c15.333 0 27.666 -4.83301 36.999 -14.5s14 -21.834 14 -36.501c0 -15.333 -4.66699 -27.833 -14 -37.5s-21.666 -14.5 -36.999 -14.5c-14.667 0 -27 4.83301 -37 14.5s-15 22.167 -15 37.5z" />
    <glyph glyph-name="Aring" unicode="&#xc5;" horiz-adv-x="708" 
d="M400 770l284 -770h-93l-97 262h-281l-96 -262h-93l284 770h92zM354 672c-0.666992 -9.33301 -1.66797 -18.333 -3.00098 -27s-2.66602 -15.667 -3.99902 -21l-106 -286h225l-106 286c-1.33301 4.66699 -2.33301 9.66699 -3 15c-2 8.66699 -3 19.667 -3 33zM258.999 913
c0 -26.667 9.33301 -49.334 28 -68.001s41.334 -28 68.001 -28c12.667 0 24.667 2.5 36 7.5s21.166 11.833 29.499 20.5s14.833 18.834 19.5 30.501s7 24.167 7 37.5c0 12.667 -2.33301 24.667 -7 36s-11.167 21.166 -19.5 29.499s-18.166 14.833 -29.499 19.5
s-23.333 7 -36 7c-13.333 0 -25.833 -2.33301 -37.5 -7s-21.834 -11.167 -30.501 -19.5s-15.5 -18.166 -20.5 -29.499s-7.5 -23.333 -7.5 -36c0 12.667 2.5 24.667 7.5 36s11.833 21.166 20.5 29.499s18.834 14.833 30.501 19.5s24.167 7 37.5 7
c12.667 0 24.667 -2.33301 36 -7s21.166 -11.167 29.499 -19.5s14.833 -18.166 19.5 -29.499s7 -23.333 7 -36c0 -13.333 -2.33301 -25.833 -7 -37.5s-11.167 -21.834 -19.5 -30.501s-18.166 -15.5 -29.499 -20.5s-23.333 -7.5 -36 -7.5
c-26.667 0 -49.334 9.33301 -68.001 28s-28 41.334 -28 68.001c0 12.667 2.5 24.667 7.5 36s11.833 21.166 20.5 29.499s18.834 14.833 30.501 19.5s24.167 7 37.5 7c12.667 0 24.667 -2.33301 36 -7s21.166 -11.167 29.499 -19.5s14.833 -18.166 19.5 -29.499
s7 -23.333 7 -36c0 -13.333 -2.33301 -25.833 -7 -37.5s-11.167 -21.834 -19.5 -30.501s-18.166 -15.5 -29.499 -20.5s-23.333 -7.5 -36 -7.5c-26.667 0 -49.334 9.33301 -68.001 28s-28 41.334 -28 68.001zM306.999 913c0 -13.333 4.66699 -24.666 14 -33.999
s20.666 -14 33.999 -14c11.333 0 21.666 4.66699 30.999 14s14 20.666 14 33.999c0 11.333 -4.66699 21.666 -14 30.999s-19.666 14 -30.999 14c-13.333 0 -24.666 -4.66699 -33.999 -14s-14 -19.666 -14 -30.999z" />
    <glyph glyph-name="AE" unicode="&#xc6;" horiz-adv-x="978" 
d="M502 0v262h-235l-146 -262h-97l425 770h371c16 0 30.5 0.166992 43.5 0.5s24.167 0.833008 33.5 1.5c10.667 0.666992 20 1.66699 28 3v-80h-335v-258h285v-76h-285v-285h244c16 0 30.5 0.166992 43.5 0.5s24.167 0.833008 33.5 1.5c10.667 0.666992 20 1.66699 28 3v-81
h-437zM309 338h193v345z" />
    <glyph glyph-name="Ccedilla" unicode="&#xc7;" horiz-adv-x="642" 
d="M535 624c-10 14 -22.998 26.6709 -38.998 38.0039c-13.333 9.33301 -30.333 18.166 -51 26.499s-45.667 12.5 -75 12.5c-27.333 0 -54.333 -7 -81 -21s-50.334 -35 -71.001 -63s-37.334 -63.167 -50.001 -105.5s-19 -91.833 -19 -148.5c0 -42 5.83301 -81 17.5 -117
s27.667 -67.333 48 -94s43.833 -47.834 70.5 -63.501s55 -23.834 85 -24.501c32.667 -0.666992 61.167 3.5 85.5 12.5s44.833 19.167 61.5 30.5s29.167 21.833 37.5 31.5l12.5 14.5l55 -55c-8 -6.66699 -18 -16.5 -30 -29.5s-27.833 -25.833 -47.5 -38.5
s-44 -23.667 -73 -33s-64.5 -13.333 -106.5 -12c-44 1.33301 -84.833 11.666 -122.5 30.999s-70 45.666 -97 78.999s-48.167 72.833 -63.5 118.5s-23 95.5 -23 149.5c0 69.333 8.66699 130.333 26 183s40.5 96.667 69.5 132s62.333 62 100 80s76.5 27 116.5 27
c40.667 0 75.167 -5.5 103.5 -16.5s51.166 -23.167 68.499 -36.5c20.667 -15.333 37.334 -32.666 50.001 -51.999zM367.002 -122.996c0 14 -5.49902 24.332 -16.499 30.999s-26.167 10.334 -45.5 11.001h-19l47 81h53l-25 -52c20.667 -3.33301 37.5 -10.166 50.5 -20.499
s19.5 -27.166 19.5 -50.499c0 -20.667 -8.16699 -39.334 -24.5 -56.001s-43.5 -25 -81.5 -25c-12 0 -22.833 1.5 -32.5 4.5s-18.334 6.66699 -26.001 11s-14.167 8.66602 -19.5 12.999s-9.66602 8.16602 -12.999 11.499l28 36c5.33301 -5.33301 13.333 -11.666 24 -18.999
s23.667 -11 39 -11s26.166 3.66699 32.499 11s9.5 15.333 9.5 24z" />
    <glyph glyph-name="Egrave" unicode="&#xc8;" horiz-adv-x="560" 
d="M84 0v770h318c16 0 30.5 0.166992 43.5 0.5s24.167 0.833008 33.5 1.5c10.667 0.666992 20 1.66699 28 3v-80h-335v-258h285v-76h-285v-285h244c16 0 30.5 0.166992 43.5 0.5s24.167 0.833008 33.5 1.5c10.667 0.666992 20 1.66699 28 3v-81h-437zM189 966l131 -146h-69
l-166 146h104z" />
    <glyph glyph-name="Eacute" unicode="&#xc9;" horiz-adv-x="560" 
d="M84 0v770h318c16 0 30.5 0.166992 43.5 0.5s24.167 0.833008 33.5 1.5c10.667 0.666992 20 1.66699 28 3v-80h-335v-258h285v-76h-285v-285h244c16 0 30.5 0.166992 43.5 0.5s24.167 0.833008 33.5 1.5c10.667 0.666992 20 1.66699 28 3v-81h-437zM486 966l-166 -146h-69
l131 146h104z" />
    <glyph glyph-name="Ecircumflex" unicode="&#xca;" horiz-adv-x="560" 
d="M84 0v770h318c16 0 30.5 0.166992 43.5 0.5s24.167 0.833008 33.5 1.5c10.667 0.666992 20 1.66699 28 3v-80h-335v-258h285v-76h-285v-285h244c16 0 30.5 0.166992 43.5 0.5s24.167 0.833008 33.5 1.5c10.667 0.666992 20 1.66699 28 3v-81h-437zM312 966l156 -146h-91
l-98 95l-98 -95h-91l156 146h66z" />
    <glyph glyph-name="Edieresis" unicode="&#xcb;" horiz-adv-x="560" 
d="M84 0v770h318c16 0 30.5 0.166992 43.5 0.5s24.167 0.833008 33.5 1.5c10.667 0.666992 20 1.66699 28 3v-80h-335v-258h285v-76h-285v-285h244c16 0 30.5 0.166992 43.5 0.5s24.167 0.833008 33.5 1.5c10.667 0.666992 20 1.66699 28 3v-81h-437zM127 877
c0 14.667 4.83301 26.834 14.5 36.501s22.167 14.5 37.5 14.5c14.667 0 26.834 -4.83301 36.501 -14.5s14.5 -21.834 14.5 -36.501c0 -15.333 -4.83301 -27.833 -14.5 -37.5s-21.834 -14.5 -36.501 -14.5c-15.333 0 -27.833 4.83301 -37.5 14.5s-14.5 22.167 -14.5 37.5z
M328 877c0 14.667 5 26.834 15 36.501s22.333 14.5 37 14.5c15.333 0 27.666 -4.83301 36.999 -14.5s14 -21.834 14 -36.501c0 -15.333 -4.66699 -27.833 -14 -37.5s-21.666 -14.5 -36.999 -14.5c-14.667 0 -27 4.83301 -37 14.5s-15 22.167 -15 37.5z" />
    <glyph glyph-name="Igrave" unicode="&#xcc;" horiz-adv-x="251" 
d="M82 0v770h88v-770h-88zM43 966l131 -146h-69l-166 146h104z" />
    <glyph glyph-name="Iacute" unicode="&#xcd;" horiz-adv-x="251" 
d="M82 0v770h88v-770h-88zM313 966l-166 -146h-69l131 146h104z" />
    <glyph glyph-name="Icircumflex" unicode="&#xce;" horiz-adv-x="288" 
d="M100 0v770h88v-770h-88zM178 966l156 -146h-91l-98 95l-98 -95h-91l156 146h66z" />
    <glyph glyph-name="Idieresis" unicode="&#xcf;" horiz-adv-x="250" 
d="M82 0v770h88v-770h-88zM-26 877c0 14.667 4.83301 26.834 14.5 36.501s22.167 14.5 37.5 14.5c14.667 0 26.834 -4.83301 36.501 -14.5s14.5 -21.834 14.5 -36.501c0 -15.333 -4.83301 -27.833 -14.5 -37.5s-21.834 -14.5 -36.501 -14.5
c-15.333 0 -27.833 4.83301 -37.5 14.5s-14.5 22.167 -14.5 37.5zM175 877c0 14.667 5 26.834 15 36.501s22.333 14.5 37 14.5c15.333 0 27.666 -4.83301 36.999 -14.5s14 -21.834 14 -36.501c0 -15.333 -4.66699 -27.833 -14 -37.5s-21.666 -14.5 -36.999 -14.5
c-14.667 0 -27 4.83301 -37 14.5s-15 22.167 -15 37.5z" />
    <glyph glyph-name="Eth" unicode="&#xd0;" horiz-adv-x="775" 
d="M147 367l-77.999 -0.000976562v70h78v320c24 2.66699 45.5 5.16699 64.5 7.5s36.5 4.33301 52.5 6s31.167 2.83398 45.5 3.50098s29.166 1 44.499 1c46 0 90.833 -4.83301 134.5 -14.5s82.334 -28.667 116.001 -57s60.667 -68.333 81 -120s30.5 -119.5 30.5 -203.5
c0 -60.667 -7.66699 -114.5 -23 -161.5s-36.833 -86.667 -64.5 -119s-60.834 -57 -99.501 -74s-81 -25.5 -127 -25.5h-255v367zM415.001 366.999l-180 0.000976562v-291h167c32 0 61.833 7 89.5 21s51.667 34 72 60s36.166 57.833 47.499 95.5s17 80.167 17 127.5
s-4.16699 90.666 -12.5 129.999s-22.833 73 -43.5 101s-48.5 49.833 -83.5 65.5s-79.167 23.5 -132.5 23.5c-32.667 0 -59.167 -1.5 -79.5 -4.5s-34.166 -5.16699 -41.499 -6.5v-252h180v-70z" />
    <glyph glyph-name="Ntilde" unicode="&#xd1;" horiz-adv-x="722" 
d="M84 0v770h88v-1l372 -605l7 -14l-1 14v606h88v-770h-88v1l-372 607l-7 14l1 -14v-608h-88zM565 878c-8 -9.33301 -17.333 -17.665 -28 -24.998c-9.33301 -6.66699 -20.666 -12.667 -33.999 -18s-28.666 -8.66602 -45.999 -9.99902
c-14.667 -1.33301 -30.834 0.666992 -48.501 6s-35.5 11.333 -53.5 18l-46.5 16c-15.667 5.33301 -29.834 7.66602 -42.501 6.99902c-14.667 -1.33301 -27.167 -3.83301 -37.5 -7.5s-19.166 -7.83398 -26.499 -12.501c-8 -5.33301 -15 -11.333 -21 -18l-25 50
c8 9.33301 17.333 17.666 28 24.999c9.33301 6.66699 20.666 12.667 33.999 18s28.666 8.66602 45.999 9.99902c14.667 1.33301 30.834 -0.666992 48.501 -6s35.5 -11.333 53.5 -18l46.5 -16c15.667 -5.33301 29.834 -7.66602 42.501 -6.99902
c14.667 0.666992 27.167 3 37.5 7s19.166 8.33301 26.499 13c8 5.33301 15 11.333 21 18z" />
    <glyph glyph-name="Ograve" unicode="&#xd2;" 
d="M380 785c36.667 0 73.6709 -6.33496 111.004 -19.002s71.166 -34.167 101.499 -64.5s55.166 -71.166 74.499 -122.499s29 -115.666 29 -192.999c0 -78.667 -9.16699 -143.834 -27.5 -195.501s-42.5 -92.667 -72.5 -123s-64.167 -51.666 -102.5 -63.999
s-77.166 -18.5 -116.499 -18.5c-36.667 0 -73.834 6 -111.501 18s-71.834 33.167 -102.501 63.5s-55.667 71.166 -75 122.499s-29 116.333 -29 195c0 78 9.66699 142.833 29 194.5s44.333 92.834 75 123.501s65.167 52.167 103.5 64.5s76.166 18.5 113.499 18.5z
M380.004 709.998c-26 0 -52.832 -5.33691 -80.499 -16.0039s-52.667 -28.667 -75 -54s-40.833 -58.666 -55.5 -99.999s-22 -92.666 -22 -153.999c0 -62 7.16699 -113.833 21.5 -155.5s32.833 -75 55.5 -100s47.5 -42.833 74.5 -53.5s53.167 -16 78.5 -16
c27.333 0 54.666 5.16699 81.999 15.5s52 28 74 53s40 58.167 54 99.5s21 93 21 155c0 60.667 -6.83301 111.834 -20.5 153.501s-31.5 75.334 -53.5 101.001s-46.5 44 -73.5 55s-53.833 16.5 -80.5 16.5zM286.005 965.994l131 -146h-69l-166 146h104z" />
    <glyph glyph-name="Oacute" unicode="&#xd3;" 
d="M380 785c36.667 0 73.6709 -6.33496 111.004 -19.002s71.166 -34.167 101.499 -64.5s55.166 -71.166 74.499 -122.499s29 -115.666 29 -192.999c0 -78.667 -9.16699 -143.834 -27.5 -195.501s-42.5 -92.667 -72.5 -123s-64.167 -51.666 -102.5 -63.999
s-77.166 -18.5 -116.499 -18.5c-36.667 0 -73.834 6 -111.501 18s-71.834 33.167 -102.501 63.5s-55.667 71.166 -75 122.499s-29 116.333 -29 195c0 78 9.66699 142.833 29 194.5s44.333 92.834 75 123.501s65.167 52.167 103.5 64.5s76.166 18.5 113.499 18.5z
M380.004 709.998c-26 0 -52.832 -5.33691 -80.499 -16.0039s-52.667 -28.667 -75 -54s-40.833 -58.666 -55.5 -99.999s-22 -92.666 -22 -153.999c0 -62 7.16699 -113.833 21.5 -155.5s32.833 -75 55.5 -100s47.5 -42.833 74.5 -53.5s53.167 -16 78.5 -16
c27.333 0 54.666 5.16699 81.999 15.5s52 28 74 53s40 58.167 54 99.5s21 93 21 155c0 60.667 -6.83301 111.834 -20.5 153.501s-31.5 75.334 -53.5 101.001s-46.5 44 -73.5 55s-53.833 16.5 -80.5 16.5zM577.005 965.994l-166 -146h-69l131 146h104z" />
    <glyph glyph-name="Ocircumflex" unicode="&#xd4;" 
d="M380 785c36.667 0 73.6709 -6.33496 111.004 -19.002s71.166 -34.167 101.499 -64.5s55.166 -71.166 74.499 -122.499s29 -115.666 29 -192.999c0 -78.667 -9.16699 -143.834 -27.5 -195.501s-42.5 -92.667 -72.5 -123s-64.167 -51.666 -102.5 -63.999
s-77.166 -18.5 -116.499 -18.5c-36.667 0 -73.834 6 -111.501 18s-71.834 33.167 -102.501 63.5s-55.667 71.166 -75 122.499s-29 116.333 -29 195c0 78 9.66699 142.833 29 194.5s44.333 92.834 75 123.501s65.167 52.167 103.5 64.5s76.166 18.5 113.499 18.5z
M380.004 709.998c-26 0 -52.832 -5.33691 -80.499 -16.0039s-52.667 -28.667 -75 -54s-40.833 -58.666 -55.5 -99.999s-22 -92.666 -22 -153.999c0 -62 7.16699 -113.833 21.5 -155.5s32.833 -75 55.5 -100s47.5 -42.833 74.5 -53.5s53.167 -16 78.5 -16
c27.333 0 54.666 5.16699 81.999 15.5s52 28 74 53s40 58.167 54 99.5s21 93 21 155c0 60.667 -6.83301 111.834 -20.5 153.501s-31.5 75.334 -53.5 101.001s-46.5 44 -73.5 55s-53.833 16.5 -80.5 16.5zM412.005 965.994l156 -146h-91l-98 95l-98 -95h-91l156 146h66z" />
    <glyph glyph-name="Otilde" unicode="&#xd5;" 
d="M380 785c36.667 0 73.6709 -6.33496 111.004 -19.002s71.166 -34.167 101.499 -64.5s55.166 -71.166 74.499 -122.499s29 -115.666 29 -192.999c0 -78.667 -9.16699 -143.834 -27.5 -195.501s-42.5 -92.667 -72.5 -123s-64.167 -51.666 -102.5 -63.999
s-77.166 -18.5 -116.499 -18.5c-36.667 0 -73.834 6 -111.501 18s-71.834 33.167 -102.501 63.5s-55.667 71.166 -75 122.499s-29 116.333 -29 195c0 78 9.66699 142.833 29 194.5s44.333 92.834 75 123.501s65.167 52.167 103.5 64.5s76.166 18.5 113.499 18.5z
M380.004 709.998c-26 0 -52.832 -5.33691 -80.499 -16.0039s-52.667 -28.667 -75 -54s-40.833 -58.666 -55.5 -99.999s-22 -92.666 -22 -153.999c0 -62 7.16699 -113.833 21.5 -155.5s32.833 -75 55.5 -100s47.5 -42.833 74.5 -53.5s53.167 -16 78.5 -16
c27.333 0 54.666 5.16699 81.999 15.5s52 28 74 53s40 58.167 54 99.5s21 93 21 155c0 60.667 -6.83301 111.834 -20.5 153.501s-31.5 75.334 -53.5 101.001s-46.5 44 -73.5 55s-53.833 16.5 -80.5 16.5zM584.005 877.994c-8 -9.33301 -17.333 -17.665 -28 -24.998
c-9.33301 -6.66699 -20.666 -12.667 -33.999 -18s-28.666 -8.66602 -45.999 -9.99902c-14.667 -1.33301 -30.834 0.666992 -48.501 6s-35.5 11.333 -53.5 18l-46.5 16c-15.667 5.33301 -29.834 7.66602 -42.501 6.99902c-14.667 -1.33301 -27.167 -3.83301 -37.5 -7.5
s-19.166 -7.83398 -26.499 -12.501c-8 -5.33301 -15 -11.333 -21 -18l-25 50c8 9.33301 17.333 17.666 28 24.999c9.33301 6.66699 20.666 12.667 33.999 18s28.666 8.66602 45.999 9.99902c14.667 1.33301 30.834 -0.666992 48.501 -6s35.5 -11.333 53.5 -18l46.5 -16
c15.667 -5.33301 29.834 -7.66602 42.501 -6.99902c14.667 0.666992 27.167 3 37.5 7s19.166 8.33301 26.499 13c8 5.33301 15 11.333 21 18z" />
    <glyph glyph-name="Odieresis" unicode="&#xd6;" 
d="M380 785c36.667 0 73.6709 -6.33496 111.004 -19.002s71.166 -34.167 101.499 -64.5s55.166 -71.166 74.499 -122.499s29 -115.666 29 -192.999c0 -78.667 -9.16699 -143.834 -27.5 -195.501s-42.5 -92.667 -72.5 -123s-64.167 -51.666 -102.5 -63.999
s-77.166 -18.5 -116.499 -18.5c-36.667 0 -73.834 6 -111.501 18s-71.834 33.167 -102.501 63.5s-55.667 71.166 -75 122.499s-29 116.333 -29 195c0 78 9.66699 142.833 29 194.5s44.333 92.834 75 123.501s65.167 52.167 103.5 64.5s76.166 18.5 113.499 18.5z
M380.004 709.998c-26 0 -52.832 -5.33691 -80.499 -16.0039s-52.667 -28.667 -75 -54s-40.833 -58.666 -55.5 -99.999s-22 -92.666 -22 -153.999c0 -62 7.16699 -113.833 21.5 -155.5s32.833 -75 55.5 -100s47.5 -42.833 74.5 -53.5s53.167 -16 78.5 -16
c27.333 0 54.666 5.16699 81.999 15.5s52 28 74 53s40 58.167 54 99.5s21 93 21 155c0 60.667 -6.83301 111.834 -20.5 153.501s-31.5 75.334 -53.5 101.001s-46.5 44 -73.5 55s-53.833 16.5 -80.5 16.5zM227.005 876.994c0 14.667 4.83301 26.834 14.5 36.501
s22.167 14.5 37.5 14.5c14.667 0 26.834 -4.83301 36.501 -14.5s14.5 -21.834 14.5 -36.501c0 -15.333 -4.83301 -27.833 -14.5 -37.5s-21.834 -14.5 -36.501 -14.5c-15.333 0 -27.833 4.83301 -37.5 14.5s-14.5 22.167 -14.5 37.5zM428.005 876.994
c0 14.667 5 26.834 15 36.501s22.333 14.5 37 14.5c15.333 0 27.666 -4.83301 36.999 -14.5s14 -21.834 14 -36.501c0 -15.333 -4.66699 -27.833 -14 -37.5s-21.666 -14.5 -36.999 -14.5c-14.667 0 -27 4.83301 -37 14.5s-15 22.167 -15 37.5z" />
    <glyph glyph-name="Oslash" unicode="&#xd8;" 
d="M380 785c24 0 48.332 -2.66797 72.999 -8.00098s48.667 -14 72 -26l28 54h78l-49 -94c33.333 -30 60.5 -71.167 81.5 -123.5s31.833 -119.5 32.5 -201.5c0 -78.667 -9.16699 -143.834 -27.5 -195.501s-42.5 -92.667 -72.5 -123s-64.167 -51.666 -102.5 -63.999
s-77.166 -18.5 -116.499 -18.5c-25.333 0 -50.666 2.66699 -75.999 8s-49.666 14 -72.999 26l-28 -54h-78l48 94c-32.667 30 -59.334 71.167 -80.001 123.5s-31 119.5 -31 201.5c0 78 9.66699 142.833 29 194.5s44.333 92.834 75 123.501s65.167 52.167 103.5 64.5
s76.166 18.5 113.499 18.5zM607.999 383.999c0 58 -6.16602 107 -18.499 147s-28.5 73 -48.5 99l-275 -536c18 -12 36.5 -20.5 55.5 -25.5s37.5 -7.5 55.5 -7.5c27.333 0 54.666 5.16699 81.999 15.5s52 28 74 53s40 58.167 54 99.5s21 93 21 155zM380 709.999
c-26 0 -52.833 -5.33594 -80.5 -16.0029s-52.667 -28.667 -75 -54s-40.833 -58.666 -55.5 -99.999s-22 -92.666 -22 -153.999c0 -58 6.16699 -106.667 18.5 -146s28.166 -71.666 47.499 -96.999l275 535c-17.333 11.333 -35.166 19.5 -53.499 24.5s-36.5 7.5 -54.5 7.5z" />
    <glyph glyph-name="Ugrave" unicode="&#xd9;" horiz-adv-x="683" 
d="M599 239c0 -37.333 -4.50195 -69.502 -13.502 -96.502s-20.667 -49.833 -35 -68.5s-30.666 -33.667 -48.999 -45s-37 -20 -56 -26s-37.5 -10 -55.5 -12s-34 -3 -48 -3s-30.167 1 -48.5 3s-37 6.16699 -56 12.5s-37.667 15.166 -56 26.499s-34.666 26.333 -48.999 45
s-26 41.334 -35 68.001s-13.5 58.667 -13.5 96v531h88v-529c0 -38.667 6.16699 -69.667 18.5 -93s27.333 -41.166 45 -53.499s36.334 -20.333 56.001 -24s36.5 -5.5 50.5 -5.5s30.667 2 50 6s37.666 12.333 54.999 25s32.333 30.334 45 53.001s19 52.667 19 90v531h88v-531
v0zM249.998 965.998l131 -146h-69l-166 146h104z" />
    <glyph glyph-name="Uacute" unicode="&#xda;" horiz-adv-x="683" 
d="M599 239c0 -37.333 -4.50195 -69.502 -13.502 -96.502s-20.667 -49.833 -35 -68.5s-30.666 -33.667 -48.999 -45s-37 -20 -56 -26s-37.5 -10 -55.5 -12s-34 -3 -48 -3s-30.167 1 -48.5 3s-37 6.16699 -56 12.5s-37.667 15.166 -56 26.499s-34.666 26.333 -48.999 45
s-26 41.334 -35 68.001s-13.5 58.667 -13.5 96v531h88v-529c0 -38.667 6.16699 -69.667 18.5 -93s27.333 -41.166 45 -53.499s36.334 -20.333 56.001 -24s36.5 -5.5 50.5 -5.5s30.667 2 50 6s37.666 12.333 54.999 25s32.333 30.334 45 53.001s19 52.667 19 90v531h88v-531
v0zM540.998 965.998l-166 -146h-69l131 146h104z" />
    <glyph glyph-name="Ucircumflex" unicode="&#xdb;" horiz-adv-x="683" 
d="M599 239c0 -37.333 -4.50195 -69.502 -13.502 -96.502s-20.667 -49.833 -35 -68.5s-30.666 -33.667 -48.999 -45s-37 -20 -56 -26s-37.5 -10 -55.5 -12s-34 -3 -48 -3s-30.167 1 -48.5 3s-37 6.16699 -56 12.5s-37.667 15.166 -56 26.499s-34.666 26.333 -48.999 45
s-26 41.334 -35 68.001s-13.5 58.667 -13.5 96v531h88v-529c0 -38.667 6.16699 -69.667 18.5 -93s27.333 -41.166 45 -53.499s36.334 -20.333 56.001 -24s36.5 -5.5 50.5 -5.5s30.667 2 50 6s37.666 12.333 54.999 25s32.333 30.334 45 53.001s19 52.667 19 90v531h88v-531
v0zM376.998 965.998l156 -146h-91l-98 95l-98 -95h-91l156 146h66z" />
    <glyph glyph-name="Udieresis" unicode="&#xdc;" horiz-adv-x="683" 
d="M599 239c0 -37.333 -4.50195 -69.502 -13.502 -96.502s-20.667 -49.833 -35 -68.5s-30.666 -33.667 -48.999 -45s-37 -20 -56 -26s-37.5 -10 -55.5 -12s-34 -3 -48 -3s-30.167 1 -48.5 3s-37 6.16699 -56 12.5s-37.667 15.166 -56 26.499s-34.666 26.333 -48.999 45
s-26 41.334 -35 68.001s-13.5 58.667 -13.5 96v531h88v-529c0 -38.667 6.16699 -69.667 18.5 -93s27.333 -41.166 45 -53.499s36.334 -20.333 56.001 -24s36.5 -5.5 50.5 -5.5s30.667 2 50 6s37.666 12.333 54.999 25s32.333 30.334 45 53.001s19 52.667 19 90v531h88v-531
v0zM191.998 876.998c0 14.667 4.83301 26.834 14.5 36.501s22.167 14.5 37.5 14.5c14.667 0 26.834 -4.83301 36.501 -14.5s14.5 -21.834 14.5 -36.501c0 -15.333 -4.83301 -27.833 -14.5 -37.5s-21.834 -14.5 -36.501 -14.5c-15.333 0 -27.833 4.83301 -37.5 14.5
s-14.5 22.167 -14.5 37.5zM392.998 876.998c0 14.667 5 26.834 15 36.501s22.333 14.5 37 14.5c15.333 0 27.666 -4.83301 36.999 -14.5s14 -21.834 14 -36.501c0 -15.333 -4.66699 -27.833 -14 -37.5s-21.666 -14.5 -36.999 -14.5c-14.667 0 -27 4.83301 -37 14.5
s-15 22.167 -15 37.5z" />
    <glyph glyph-name="Yacute" unicode="&#xdd;" horiz-adv-x="615" 
d="M606 770l-254 -401v-369h-87v369l-256 401h103l197 -309l198 309h99zM474 976l-166 -146h-69l131 146h104z" />
    <glyph glyph-name="Thorn" unicode="&#xde;" horiz-adv-x="627" 
d="M84 0l0.000976562 770h88v-137c23.333 13.333 49 24.166 77 32.499s57 12.5 87 12.5c34 0 65.333 -6.16699 94 -18.5s53.167 -29.666 73.5 -51.999s36.166 -49 47.499 -80s17 -65.167 17 -102.5c0 -96.667 -21 -169.5 -63 -218.5s-100.667 -73.5 -176 -73.5
c-34 0 -63.5 5.16699 -88.5 15.5s-47.833 22.5 -68.5 36.5v-185h-88zM483.001 425c0 26 -4.00098 49.666 -12.001 70.999s-19.5 39.833 -34.5 55.5s-33.5 27.834 -55.5 36.501s-46.667 13 -74 13c-23.333 0 -46.333 -4.5 -69 -13.5s-44.667 -21.5 -66 -37.5v-272
c23.333 -20.667 48.5 -36.667 75.5 -48s55.5 -17 85.5 -17c44.667 0 80.834 17.333 108.501 52s41.5 88 41.5 160z" />
    <glyph glyph-name="germandbls" unicode="&#xdf;" horiz-adv-x="650" 
d="M256 468c17.333 0.666992 36.832 3.33203 58.499 7.99902s42 13 61 25s34.833 28.5 47.5 49.5s19 48.5 19 82.5c-0.666992 22.667 -5.66699 41.667 -15 57s-20.833 27.5 -34.5 36.5s-27.667 15.333 -42 19s-26.833 5.5 -37.5 5.5c-36 0 -65.333 -8 -88 -24
s-35.667 -43 -39 -81v-646h-83v480h-71v70h71v96c0 32 5.33301 59.333 16 82s25.5 41.334 44.5 56.001s41.333 25.5 67 32.5s53.167 10.5 82.5 10.5c20 0 42.5 -2.83301 67.5 -8.5s48.167 -16 69.5 -31s39.333 -35.167 54 -60.5s22 -57.333 22 -96
c-0.666992 -44.667 -8.5 -81.5 -23.5 -110.5s-34.167 -52.167 -57.5 -69.5c19.333 -6 37.833 -14.5 55.5 -25.5s33.167 -24.833 46.5 -41.5s24 -36.5 32 -59.5s12 -49.167 12 -78.5c0 -28 -3 -56.5 -9 -85.5s-18.333 -55.333 -37 -79s-45.334 -43.167 -80.001 -58.5
s-80.667 -23 -138 -23c-9.33301 0 -20.333 1 -33 3s-24.667 5 -36 9v78c9.33301 -2.66699 20.333 -4.66699 33 -6s24.334 -2 35.001 -2c36.667 0 66.834 4.5 90.501 13.5s42.167 21 55.5 36s22.5 32.333 27.5 52s7.5 40.5 7.5 62.5c0 34 -8 61 -24 81
s-36.167 35.167 -60.5 45.5s-51.333 17 -81 20s-58.167 4.16699 -85.5 3.5v72z" />
    <glyph glyph-name="agrave" unicode="&#xe0;" horiz-adv-x="562" 
d="M110 407l-5.5 10.5059l-11.5 23l-11 23c-3.33301 7 -5 10.833 -5 11.5l40.5 22c18.333 10 39.5 19.667 63.5 29s49.667 17.666 77 24.999s55 11 83 11c28.667 0 51.667 -5.83301 69 -17.5s30.833 -25.667 40.5 -42s16 -33.666 19 -51.999s4.5 -33.833 4.5 -46.5v-296
c0 -1.33301 0.166992 -4.33301 0.5 -9s2.16602 -10.5 5.49902 -17.5s8.66602 -14.333 15.999 -22s18 -14.834 32 -21.501l-54 -50c-24 9.33301 -41.667 21.666 -53 36.999s-19.333 31.666 -24 48.999c-24 -25.333 -52 -46 -84 -62s-66.667 -24 -104 -24
c-5.33301 0 -16.5 1.33301 -33.5 4s-34.5 9 -52.5 19s-34 25 -48 45s-21 47.333 -21 82c0 18 2.33301 36.167 7 54.5s14.167 35.833 28.5 52.5s34.5 31.5 60.5 44.5s60 22.5 102 28.5l88 13c22 3.33301 39 6.66602 51 9.99902v63c0 5.33301 -0.5 12.5 -1.5 21.5
s-3.66699 17.833 -8 26.5s-10.666 16.167 -18.999 22.5s-19.5 9.5 -33.5 9.5s-29.167 -2 -45.5 -6s-32.666 -8.83301 -48.999 -14.5s-32 -11.834 -47 -18.501s-28.167 -12.834 -39.5 -18.501l-27.5 -14zM206 58.0059c17.333 -1.33301 34.8301 0.496094 52.4971 5.49609
s34.667 11.833 51 20.5s31.5 18.834 45.5 30.501s26 23.834 36 36.501v118c-15.333 -3.33301 -32.666 -6.33301 -51.999 -9s-45.333 -6.66699 -78 -12c-27.333 -4 -49.166 -9.83301 -65.499 -17.5s-29 -16.5 -38 -26.5s-14.833 -20.667 -17.5 -32s-4 -22.666 -4 -33.999
c0 -17.333 3 -31.166 9 -41.499s12.833 -18.333 20.5 -24s15.334 -9.5 23.001 -11.5s13.5 -3 17.5 -3zM199.997 756.002l131 -146h-69l-166 146h104z" />
    <glyph glyph-name="aacute" unicode="&#xe1;" horiz-adv-x="562" 
d="M110 407l-5.5 10.5059l-11.5 23l-11 23c-3.33301 7 -5 10.833 -5 11.5l40.5 22c18.333 10 39.5 19.667 63.5 29s49.667 17.666 77 24.999s55 11 83 11c28.667 0 51.667 -5.83301 69 -17.5s30.833 -25.667 40.5 -42s16 -33.666 19 -51.999s4.5 -33.833 4.5 -46.5v-296
c0 -1.33301 0.166992 -4.33301 0.5 -9s2.16602 -10.5 5.49902 -17.5s8.66602 -14.333 15.999 -22s18 -14.834 32 -21.501l-54 -50c-24 9.33301 -41.667 21.666 -53 36.999s-19.333 31.666 -24 48.999c-24 -25.333 -52 -46 -84 -62s-66.667 -24 -104 -24
c-5.33301 0 -16.5 1.33301 -33.5 4s-34.5 9 -52.5 19s-34 25 -48 45s-21 47.333 -21 82c0 18 2.33301 36.167 7 54.5s14.167 35.833 28.5 52.5s34.5 31.5 60.5 44.5s60 22.5 102 28.5l88 13c22 3.33301 39 6.66602 51 9.99902v63c0 5.33301 -0.5 12.5 -1.5 21.5
s-3.66699 17.833 -8 26.5s-10.666 16.167 -18.999 22.5s-19.5 9.5 -33.5 9.5s-29.167 -2 -45.5 -6s-32.666 -8.83301 -48.999 -14.5s-32 -11.834 -47 -18.501s-28.167 -12.834 -39.5 -18.501l-27.5 -14zM206 58.0059c17.333 -1.33301 34.8301 0.496094 52.4971 5.49609
s34.667 11.833 51 20.5s31.5 18.834 45.5 30.501s26 23.834 36 36.501v118c-15.333 -3.33301 -32.666 -6.33301 -51.999 -9s-45.333 -6.66699 -78 -12c-27.333 -4 -49.166 -9.83301 -65.499 -17.5s-29 -16.5 -38 -26.5s-14.833 -20.667 -17.5 -32s-4 -22.666 -4 -33.999
c0 -17.333 3 -31.166 9 -41.499s12.833 -18.333 20.5 -24s15.334 -9.5 23.001 -11.5s13.5 -3 17.5 -3zM470.997 756.002l-166 -146h-69l131 146h104z" />
    <glyph glyph-name="acircumflex" unicode="&#xe2;" horiz-adv-x="562" 
d="M110 407l-5.5 10.5059l-11.5 23l-11 23c-3.33301 7 -5 10.833 -5 11.5l40.5 22c18.333 10 39.5 19.667 63.5 29s49.667 17.666 77 24.999s55 11 83 11c28.667 0 51.667 -5.83301 69 -17.5s30.833 -25.667 40.5 -42s16 -33.666 19 -51.999s4.5 -33.833 4.5 -46.5v-296
c0 -1.33301 0.166992 -4.33301 0.5 -9s2.16602 -10.5 5.49902 -17.5s8.66602 -14.333 15.999 -22s18 -14.834 32 -21.501l-54 -50c-24 9.33301 -41.667 21.666 -53 36.999s-19.333 31.666 -24 48.999c-24 -25.333 -52 -46 -84 -62s-66.667 -24 -104 -24
c-5.33301 0 -16.5 1.33301 -33.5 4s-34.5 9 -52.5 19s-34 25 -48 45s-21 47.333 -21 82c0 18 2.33301 36.167 7 54.5s14.167 35.833 28.5 52.5s34.5 31.5 60.5 44.5s60 22.5 102 28.5l88 13c22 3.33301 39 6.66602 51 9.99902v63c0 5.33301 -0.5 12.5 -1.5 21.5
s-3.66699 17.833 -8 26.5s-10.666 16.167 -18.999 22.5s-19.5 9.5 -33.5 9.5s-29.167 -2 -45.5 -6s-32.666 -8.83301 -48.999 -14.5s-32 -11.834 -47 -18.501s-28.167 -12.834 -39.5 -18.501l-27.5 -14zM206 58.0059c17.333 -1.33301 34.8301 0.496094 52.4971 5.49609
s34.667 11.833 51 20.5s31.5 18.834 45.5 30.501s26 23.834 36 36.501v118c-15.333 -3.33301 -32.666 -6.33301 -51.999 -9s-45.333 -6.66699 -78 -12c-27.333 -4 -49.166 -9.83301 -65.499 -17.5s-29 -16.5 -38 -26.5s-14.833 -20.667 -17.5 -32s-4 -22.666 -4 -33.999
c0 -17.333 3 -31.166 9 -41.499s12.833 -18.333 20.5 -24s15.334 -9.5 23.001 -11.5s13.5 -3 17.5 -3zM315.997 756.002l156 -146h-91l-98 95l-98 -95h-91l156 146h66z" />
    <glyph glyph-name="atilde" unicode="&#xe3;" horiz-adv-x="562" 
d="M110 407l-5.5 10.5059l-11.5 23l-11 23c-3.33301 7 -5 10.833 -5 11.5l40.5 22c18.333 10 39.5 19.667 63.5 29s49.667 17.666 77 24.999s55 11 83 11c28.667 0 51.667 -5.83301 69 -17.5s30.833 -25.667 40.5 -42s16 -33.666 19 -51.999s4.5 -33.833 4.5 -46.5v-296
c0 -1.33301 0.166992 -4.33301 0.5 -9s2.16602 -10.5 5.49902 -17.5s8.66602 -14.333 15.999 -22s18 -14.834 32 -21.501l-54 -50c-24 9.33301 -41.667 21.666 -53 36.999s-19.333 31.666 -24 48.999c-24 -25.333 -52 -46 -84 -62s-66.667 -24 -104 -24
c-5.33301 0 -16.5 1.33301 -33.5 4s-34.5 9 -52.5 19s-34 25 -48 45s-21 47.333 -21 82c0 18 2.33301 36.167 7 54.5s14.167 35.833 28.5 52.5s34.5 31.5 60.5 44.5s60 22.5 102 28.5l88 13c22 3.33301 39 6.66602 51 9.99902v63c0 5.33301 -0.5 12.5 -1.5 21.5
s-3.66699 17.833 -8 26.5s-10.666 16.167 -18.999 22.5s-19.5 9.5 -33.5 9.5s-29.167 -2 -45.5 -6s-32.666 -8.83301 -48.999 -14.5s-32 -11.834 -47 -18.501s-28.167 -12.834 -39.5 -18.501l-27.5 -14zM206 58.0059c17.333 -1.33301 34.8301 0.496094 52.4971 5.49609
s34.667 11.833 51 20.5s31.5 18.834 45.5 30.501s26 23.834 36 36.501v118c-15.333 -3.33301 -32.666 -6.33301 -51.999 -9s-45.333 -6.66699 -78 -12c-27.333 -4 -49.166 -9.83301 -65.499 -17.5s-29 -16.5 -38 -26.5s-14.833 -20.667 -17.5 -32s-4 -22.666 -4 -33.999
c0 -17.333 3 -31.166 9 -41.499s12.833 -18.333 20.5 -24s15.334 -9.5 23.001 -11.5s13.5 -3 17.5 -3zM487.997 668.002c-8 -9.33301 -17.333 -17.665 -28 -24.998c-9.33301 -6.66699 -20.666 -12.667 -33.999 -18s-28.666 -8.66602 -45.999 -9.99902
c-14.667 -1.33301 -30.834 0.666992 -48.501 6s-35.5 11.333 -53.5 18l-46.5 16c-15.667 5.33301 -29.834 7.66602 -42.501 6.99902c-14.667 -1.33301 -27.167 -3.83301 -37.5 -7.5s-19.166 -7.83398 -26.499 -12.501c-8 -5.33301 -15 -11.333 -21 -18l-25 50
c8 9.33301 17.333 17.666 28 24.999c9.33301 6.66699 20.666 12.667 33.999 18s28.666 8.66602 45.999 9.99902c14.667 1.33301 30.834 -0.666992 48.501 -6s35.5 -11.333 53.5 -18l46.5 -16c15.667 -5.33301 29.834 -7.66602 42.501 -6.99902
c14.667 0.666992 27.167 3 37.5 7s19.166 8.33301 26.499 13c8 5.33301 15 11.333 21 18z" />
    <glyph glyph-name="adieresis" unicode="&#xe4;" horiz-adv-x="562" 
d="M110 407l-5.5 10.5059l-11.5 23l-11 23c-3.33301 7 -5 10.833 -5 11.5l40.5 22c18.333 10 39.5 19.667 63.5 29s49.667 17.666 77 24.999s55 11 83 11c28.667 0 51.667 -5.83301 69 -17.5s30.833 -25.667 40.5 -42s16 -33.666 19 -51.999s4.5 -33.833 4.5 -46.5v-296
c0 -1.33301 0.166992 -4.33301 0.5 -9s2.16602 -10.5 5.49902 -17.5s8.66602 -14.333 15.999 -22s18 -14.834 32 -21.501l-54 -50c-24 9.33301 -41.667 21.666 -53 36.999s-19.333 31.666 -24 48.999c-24 -25.333 -52 -46 -84 -62s-66.667 -24 -104 -24
c-5.33301 0 -16.5 1.33301 -33.5 4s-34.5 9 -52.5 19s-34 25 -48 45s-21 47.333 -21 82c0 18 2.33301 36.167 7 54.5s14.167 35.833 28.5 52.5s34.5 31.5 60.5 44.5s60 22.5 102 28.5l88 13c22 3.33301 39 6.66602 51 9.99902v63c0 5.33301 -0.5 12.5 -1.5 21.5
s-3.66699 17.833 -8 26.5s-10.666 16.167 -18.999 22.5s-19.5 9.5 -33.5 9.5s-29.167 -2 -45.5 -6s-32.666 -8.83301 -48.999 -14.5s-32 -11.834 -47 -18.501s-28.167 -12.834 -39.5 -18.501l-27.5 -14zM206 58.0059c17.333 -1.33301 34.8301 0.496094 52.4971 5.49609
s34.667 11.833 51 20.5s31.5 18.834 45.5 30.501s26 23.834 36 36.501v118c-15.333 -3.33301 -32.666 -6.33301 -51.999 -9s-45.333 -6.66699 -78 -12c-27.333 -4 -49.166 -9.83301 -65.499 -17.5s-29 -16.5 -38 -26.5s-14.833 -20.667 -17.5 -32s-4 -22.666 -4 -33.999
c0 -17.333 3 -31.166 9 -41.499s12.833 -18.333 20.5 -24s15.334 -9.5 23.001 -11.5s13.5 -3 17.5 -3zM130.997 662.002c0 14.667 4.83301 26.834 14.5 36.501s22.167 14.5 37.5 14.5c14.667 0 26.834 -4.83301 36.501 -14.5s14.5 -21.834 14.5 -36.501
c0 -15.333 -4.83301 -27.833 -14.5 -37.5s-21.834 -14.5 -36.501 -14.5c-15.333 0 -27.833 4.83301 -37.5 14.5s-14.5 22.167 -14.5 37.5zM331.997 662.002c0 14.667 5 26.834 15 36.501s22.333 14.5 37 14.5c15.333 0 27.666 -4.83301 36.999 -14.5s14 -21.834 14 -36.501
c0 -15.333 -4.66699 -27.833 -14 -37.5s-21.666 -14.5 -36.999 -14.5c-14.667 0 -27 4.83301 -37 14.5s-15 22.167 -15 37.5z" />
    <glyph glyph-name="aring" unicode="&#xe5;" horiz-adv-x="562" 
d="M110 407l-5.5 10.5059l-11.5 23l-11 23c-3.33301 7 -5 10.833 -5 11.5l40.5 22c18.333 10 39.5 19.667 63.5 29s49.667 17.666 77 24.999s55 11 83 11c28.667 0 51.667 -5.83301 69 -17.5s30.833 -25.667 40.5 -42s16 -33.666 19 -51.999s4.5 -33.833 4.5 -46.5v-296
c0 -1.33301 0.166992 -4.33301 0.5 -9s2.16602 -10.5 5.49902 -17.5s8.66602 -14.333 15.999 -22s18 -14.834 32 -21.501l-54 -50c-24 9.33301 -41.667 21.666 -53 36.999s-19.333 31.666 -24 48.999c-24 -25.333 -52 -46 -84 -62s-66.667 -24 -104 -24
c-5.33301 0 -16.5 1.33301 -33.5 4s-34.5 9 -52.5 19s-34 25 -48 45s-21 47.333 -21 82c0 18 2.33301 36.167 7 54.5s14.167 35.833 28.5 52.5s34.5 31.5 60.5 44.5s60 22.5 102 28.5l88 13c22 3.33301 39 6.66602 51 9.99902v63c0 5.33301 -0.5 12.5 -1.5 21.5
s-3.66699 17.833 -8 26.5s-10.666 16.167 -18.999 22.5s-19.5 9.5 -33.5 9.5s-29.167 -2 -45.5 -6s-32.666 -8.83301 -48.999 -14.5s-32 -11.834 -47 -18.501s-28.167 -12.834 -39.5 -18.501l-27.5 -14zM206 58.0059c17.333 -1.33301 34.8301 0.496094 52.4971 5.49609
s34.667 11.833 51 20.5s31.5 18.834 45.5 30.501s26 23.834 36 36.501v118c-15.333 -3.33301 -32.666 -6.33301 -51.999 -9s-45.333 -6.66699 -78 -12c-27.333 -4 -49.166 -9.83301 -65.499 -17.5s-29 -16.5 -38 -26.5s-14.833 -20.667 -17.5 -32s-4 -22.666 -4 -33.999
c0 -17.333 3 -31.166 9 -41.499s12.833 -18.333 20.5 -24s15.334 -9.5 23.001 -11.5s13.5 -3 17.5 -3zM188.997 693.002c0 -26.667 9.33301 -49.334 28 -68.001s41.334 -28 68.001 -28c12.667 0 24.667 2.5 36 7.5s21.166 11.833 29.499 20.5s14.833 18.834 19.5 30.501
s7 24.167 7 37.5c0 12.667 -2.33301 24.667 -7 36s-11.167 21.166 -19.5 29.499s-18.166 14.833 -29.499 19.5s-23.333 7 -36 7c-13.333 0 -25.833 -2.33301 -37.5 -7s-21.834 -11.167 -30.501 -19.5s-15.5 -18.166 -20.5 -29.499s-7.5 -23.333 -7.5 -36
c0 12.667 2.5 24.667 7.5 36s11.833 21.166 20.5 29.499s18.834 14.833 30.501 19.5s24.167 7 37.5 7c12.667 0 24.667 -2.33301 36 -7s21.166 -11.167 29.499 -19.5s14.833 -18.166 19.5 -29.499s7 -23.333 7 -36c0 -13.333 -2.33301 -25.833 -7 -37.5
s-11.167 -21.834 -19.5 -30.501s-18.166 -15.5 -29.499 -20.5s-23.333 -7.5 -36 -7.5c-26.667 0 -49.334 9.33301 -68.001 28s-28 41.334 -28 68.001c0 12.667 2.5 24.667 7.5 36s11.833 21.166 20.5 29.499s18.834 14.833 30.501 19.5s24.167 7 37.5 7
c12.667 0 24.667 -2.33301 36 -7s21.166 -11.167 29.499 -19.5s14.833 -18.166 19.5 -29.499s7 -23.333 7 -36c0 -13.333 -2.33301 -25.833 -7 -37.5s-11.167 -21.834 -19.5 -30.501s-18.166 -15.5 -29.499 -20.5s-23.333 -7.5 -36 -7.5
c-26.667 0 -49.334 9.33301 -68.001 28s-28 41.334 -28 68.001zM236.997 693.002c0 -13.333 4.66699 -24.666 14 -33.999s20.666 -14 33.999 -14c11.333 0 21.666 4.66699 30.999 14s14 20.666 14 33.999c0 11.333 -4.66699 21.666 -14 30.999s-19.666 14 -30.999 14
c-13.333 0 -24.666 -4.66699 -33.999 -14s-14 -19.666 -14 -30.999z" />
    <glyph glyph-name="ae" unicode="&#xe6;" horiz-adv-x="896" 
d="M328 562c33.333 0 59.1699 -7.66699 77.5029 -23s31.833 -33 40.5 -53c20 23.333 43.667 41.833 71 55.5s58 20.5 92 20.5s63.167 -5.16699 87.5 -15.5s44.666 -23.333 60.999 -39s29.333 -33.167 39 -52.5s17.167 -38.166 22.5 -56.499s8.66602 -34.666 9.99902 -48.999
s2 -24.833 2 -31.5v-39h-375c-1.33301 -32.667 1.16699 -62.334 7.5 -89.001s16.166 -49.667 29.499 -69s30 -34.333 50 -45s43.333 -16 70 -16c7.33301 0 16.666 0.333008 27.999 1s24.333 4 39 10s30.667 15.5 48 28.5s35.666 32.167 54.999 57.5l51 -49
c-25.333 -31.333 -49 -55.166 -71 -71.499s-42.5 -28 -61.5 -35s-36 -11 -51 -12s-27.5 -1.5 -37.5 -1.5c-46 0 -85.167 9.5 -117.5 28.5s-58.5 44.5 -78.5 76.5c-31.333 -35.333 -64.5 -61.666 -99.5 -78.999s-71.167 -26 -108.5 -26c-5.33301 0 -16.5 1.33301 -33.5 4
s-34.5 9 -52.5 19s-34 25 -48 45s-21 47.333 -21 82c0 18 2.33301 36.167 7 54.5s14.167 35.833 28.5 52.5s34.5 31.5 60.5 44.5s60 22.5 102 28.5l47 7l34.5 5c9.66699 1.33301 18 2.83301 25 4.5l19.5 4.5v65c0 5.33301 -0.5 12.5 -1.5 21.5s-3.66699 17.833 -8 26.5
s-10.666 16.167 -18.999 22.5s-19.5 9.5 -33.5 9.5s-29.167 -2 -45.5 -6s-32.666 -8.83301 -48.999 -14.5s-32 -11.834 -47 -18.501s-28.167 -12.834 -39.5 -18.501l-27.5 -14l-10.5 -5.5l-5.5 10.5l-11.5 23l-11 23c-3.33301 7 -5 10.833 -5 11.5l40.5 22
c18.333 10 39.5 19.667 63.5 29s49.667 17.666 77 24.999s55 11 83 11zM206.004 58c17.333 -1.33301 34.8311 0.498047 52.498 5.49805s34.667 11.833 51 20.5s31.5 18.834 45.5 30.501s26 23.834 36 36.501c-5.33301 16.667 -8.83301 35.167 -10.5 55.5
s-2.5 40.166 -2.5 59.499c-14 -2.66699 -30 -5.33398 -48 -8.00098l-69 -10c-27.333 -4 -49.166 -9.83301 -65.499 -17.5s-29 -16.5 -38 -26.5s-14.833 -20.667 -17.5 -32s-4 -22.666 -4 -33.999c0 -17.333 3 -31.166 9 -41.499s12.833 -18.333 20.5 -24
s15.334 -9.5 23.001 -11.5s13.5 -3 17.5 -3zM609.002 489.998c-18.667 0 -35.5 -3.5 -50.5 -10.5s-28.333 -16.667 -40 -29s-21.834 -26.833 -30.501 -43.5s-15.667 -34.667 -21 -54h279c-2 14 -6 29 -12 45s-14.333 30.833 -25 44.5s-24.167 25 -40.5 34
s-36.166 13.5 -59.499 13.5z" />
    <glyph glyph-name="ccedilla" unicode="&#xe7;" horiz-adv-x="508" 
d="M290 562c28 0 52.668 -4.49512 74.001 -13.4951s39 -19.167 53 -30.5c16.667 -12.667 30.667 -27.334 42 -44.001l-53 -50c-7.33301 11.333 -16.666 21.666 -27.999 30.999c-9.33301 8 -21.333 15.333 -36 22s-32.667 10 -54 10c-17.333 0 -34.833 -4.5 -52.5 -13.5
s-33.834 -22.667 -48.501 -41s-26.5 -41.5 -35.5 -69.5s-13.5 -60.667 -13.5 -98c0 -27.333 3.5 -53.333 10.5 -78s16.667 -46.334 29 -65.001s27.5 -33.334 45.5 -44.001s38 -16 60 -16c10 0 19.833 0.666992 29.5 2s19.667 4.16602 30 8.49902
s21.666 10.666 33.999 18.999s25.833 19.5 40.5 33.5l52 -50c-20 -20 -38.5 -35.833 -55.5 -47.5s-33 -20.5 -48 -26.5s-29.333 -9.66699 -43 -11s-26.834 -2 -39.501 -2c-34.667 0 -66 7.16699 -94 21.5s-52 33.833 -72 58.5s-35.5 53.834 -46.5 87.501
s-16.5 70.167 -16.5 109.5c0 52 7.33301 96.667 22 134s33.334 68 56.001 92s48 41.833 76 53.5s55.333 17.5 82 17.5zM288.001 -122.995c0 14 -5.49902 24.332 -16.499 30.999s-26.167 10.334 -45.5 11.001h-19l47 81h53l-25 -52
c20.667 -3.33301 37.5 -10.166 50.5 -20.499s19.5 -27.166 19.5 -50.499c0 -20.667 -8.16699 -39.334 -24.5 -56.001s-43.5 -25 -81.5 -25c-12 0 -22.833 1.5 -32.5 4.5s-18.334 6.66699 -26.001 11s-14.167 8.66602 -19.5 12.999s-9.66602 8.16602 -12.999 11.499l28 36
c5.33301 -5.33301 13.333 -11.666 24 -18.999s23.667 -11 39 -11s26.166 3.66699 32.499 11s9.5 15.333 9.5 24z" />
    <glyph glyph-name="egrave" unicode="&#xe8;" horiz-adv-x="577" 
d="M54 269c0 40 5.50488 77.8311 16.5049 113.498s26.833 66.667 47.5 93s45.5 47.333 74.5 63s61.5 23.5 97.5 23.5c34 0 63.167 -5.16699 87.5 -15.5s44.666 -23.333 60.999 -39s29.333 -33.167 39 -52.5s17.167 -38.166 22.5 -56.499s8.66602 -34.666 9.99902 -48.999
s2 -24.833 2 -31.5v-39h-375c-1.33301 -32.667 1.16699 -62.334 7.5 -89.001s16.166 -49.667 29.499 -69s30 -34.333 50 -45s43.333 -16 70 -16c7.33301 0 16.666 0.333008 27.999 1s24.333 4 39 10s30.667 15.5 48 28.5s35.666 32.167 54.999 57.5l51 -49
c-25.333 -31.333 -49 -55.166 -71 -71.499s-42.5 -28 -61.5 -35s-36 -11 -51 -12s-27.5 -1.5 -37.5 -1.5c-40 0 -75 7.5 -105 22.5s-55 35.333 -75 61s-35 55.5 -45 89.5s-15 70 -15 108zM290.005 489.998c-18.667 0 -35.5 -3.5 -50.5 -10.5s-28.333 -16.667 -40 -29
s-21.834 -26.833 -30.501 -43.5s-15.667 -34.667 -21 -54h279c-2 14 -6 29 -12 45s-14.333 30.833 -25 44.5s-24.167 25 -40.5 34s-36.166 13.5 -59.499 13.5zM183.005 755.998l131 -146h-69l-166 146h104z" />
    <glyph glyph-name="eacute" unicode="&#xe9;" horiz-adv-x="577" 
d="M54 269c0 40 5.50488 77.8311 16.5049 113.498s26.833 66.667 47.5 93s45.5 47.333 74.5 63s61.5 23.5 97.5 23.5c34 0 63.167 -5.16699 87.5 -15.5s44.666 -23.333 60.999 -39s29.333 -33.167 39 -52.5s17.167 -38.166 22.5 -56.499s8.66602 -34.666 9.99902 -48.999
s2 -24.833 2 -31.5v-39h-375c-1.33301 -32.667 1.16699 -62.334 7.5 -89.001s16.166 -49.667 29.499 -69s30 -34.333 50 -45s43.333 -16 70 -16c7.33301 0 16.666 0.333008 27.999 1s24.333 4 39 10s30.667 15.5 48 28.5s35.666 32.167 54.999 57.5l51 -49
c-25.333 -31.333 -49 -55.166 -71 -71.499s-42.5 -28 -61.5 -35s-36 -11 -51 -12s-27.5 -1.5 -37.5 -1.5c-40 0 -75 7.5 -105 22.5s-55 35.333 -75 61s-35 55.5 -45 89.5s-15 70 -15 108zM290.005 489.998c-18.667 0 -35.5 -3.5 -50.5 -10.5s-28.333 -16.667 -40 -29
s-21.834 -26.833 -30.501 -43.5s-15.667 -34.667 -21 -54h279c-2 14 -6 29 -12 45s-14.333 30.833 -25 44.5s-24.167 25 -40.5 34s-36.166 13.5 -59.499 13.5zM484.005 755.998l-166 -146h-69l131 146h104z" />
    <glyph glyph-name="ecircumflex" unicode="&#xea;" horiz-adv-x="577" 
d="M54 269c0 40 5.50488 77.8311 16.5049 113.498s26.833 66.667 47.5 93s45.5 47.333 74.5 63s61.5 23.5 97.5 23.5c34 0 63.167 -5.16699 87.5 -15.5s44.666 -23.333 60.999 -39s29.333 -33.167 39 -52.5s17.167 -38.166 22.5 -56.499s8.66602 -34.666 9.99902 -48.999
s2 -24.833 2 -31.5v-39h-375c-1.33301 -32.667 1.16699 -62.334 7.5 -89.001s16.166 -49.667 29.499 -69s30 -34.333 50 -45s43.333 -16 70 -16c7.33301 0 16.666 0.333008 27.999 1s24.333 4 39 10s30.667 15.5 48 28.5s35.666 32.167 54.999 57.5l51 -49
c-25.333 -31.333 -49 -55.166 -71 -71.499s-42.5 -28 -61.5 -35s-36 -11 -51 -12s-27.5 -1.5 -37.5 -1.5c-40 0 -75 7.5 -105 22.5s-55 35.333 -75 61s-35 55.5 -45 89.5s-15 70 -15 108zM290.005 489.998c-18.667 0 -35.5 -3.5 -50.5 -10.5s-28.333 -16.667 -40 -29
s-21.834 -26.833 -30.501 -43.5s-15.667 -34.667 -21 -54h279c-2 14 -6 29 -12 45s-14.333 30.833 -25 44.5s-24.167 25 -40.5 34s-36.166 13.5 -59.499 13.5zM315.005 755.998l156 -146h-91l-98 95l-98 -95h-91l156 146h66z" />
    <glyph glyph-name="edieresis" unicode="&#xeb;" horiz-adv-x="577" 
d="M54 269c0 40 5.50488 77.8311 16.5049 113.498s26.833 66.667 47.5 93s45.5 47.333 74.5 63s61.5 23.5 97.5 23.5c34 0 63.167 -5.16699 87.5 -15.5s44.666 -23.333 60.999 -39s29.333 -33.167 39 -52.5s17.167 -38.166 22.5 -56.499s8.66602 -34.666 9.99902 -48.999
s2 -24.833 2 -31.5v-39h-375c-1.33301 -32.667 1.16699 -62.334 7.5 -89.001s16.166 -49.667 29.499 -69s30 -34.333 50 -45s43.333 -16 70 -16c7.33301 0 16.666 0.333008 27.999 1s24.333 4 39 10s30.667 15.5 48 28.5s35.666 32.167 54.999 57.5l51 -49
c-25.333 -31.333 -49 -55.166 -71 -71.499s-42.5 -28 -61.5 -35s-36 -11 -51 -12s-27.5 -1.5 -37.5 -1.5c-40 0 -75 7.5 -105 22.5s-55 35.333 -75 61s-35 55.5 -45 89.5s-15 70 -15 108zM290.005 489.998c-18.667 0 -35.5 -3.5 -50.5 -10.5s-28.333 -16.667 -40 -29
s-21.834 -26.833 -30.501 -43.5s-15.667 -34.667 -21 -54h279c-2 14 -6 29 -12 45s-14.333 30.833 -25 44.5s-24.167 25 -40.5 34s-36.166 13.5 -59.499 13.5zM130.005 661.998c0 14.667 4.83301 26.834 14.5 36.501s22.167 14.5 37.5 14.5
c14.667 0 26.834 -4.83301 36.501 -14.5s14.5 -21.834 14.5 -36.501c0 -15.333 -4.83301 -27.833 -14.5 -37.5s-21.834 -14.5 -36.501 -14.5c-15.333 0 -27.833 4.83301 -37.5 14.5s-14.5 22.167 -14.5 37.5zM331.005 661.998c0 14.667 5 26.834 15 36.501
s22.333 14.5 37 14.5c15.333 0 27.666 -4.83301 36.999 -14.5s14 -21.834 14 -36.501c0 -15.333 -4.66699 -27.833 -14 -37.5s-21.666 -14.5 -36.999 -14.5c-14.667 0 -27 4.83301 -37 14.5s-15 22.167 -15 37.5z" />
    <glyph glyph-name="igrave" unicode="&#xec;" horiz-adv-x="251" 
d="M167 550v-550h-83v550h83zM43 756l131 -146h-69l-166 146h104z" />
    <glyph glyph-name="iacute" unicode="&#xed;" horiz-adv-x="251" 
d="M167 550v-550h-83v550h83zM313 756l-166 -146h-69l131 146h104z" />
    <glyph glyph-name="icircumflex" unicode="&#xee;" horiz-adv-x="288" 
d="M185 550v-550h-83v550h83zM178 756l156 -146h-91l-98 95l-98 -95h-91l156 146h66z" />
    <glyph glyph-name="idieresis" unicode="&#xef;" horiz-adv-x="250" 
d="M166 550v-550h-83v550h83zM-27 662c0 14.667 4.83301 26.834 14.5 36.501s22.167 14.5 37.5 14.5c14.667 0 26.834 -4.83301 36.501 -14.5s14.5 -21.834 14.5 -36.501c0 -15.333 -4.83301 -27.833 -14.5 -37.5s-21.834 -14.5 -36.501 -14.5
c-15.333 0 -27.833 4.83301 -37.5 14.5s-14.5 22.167 -14.5 37.5zM174 662c0 14.667 5 26.834 15 36.501s22.333 14.5 37 14.5c15.333 0 27.666 -4.83301 36.999 -14.5s14 -21.834 14 -36.501c0 -15.333 -4.66699 -27.833 -14 -37.5s-21.666 -14.5 -36.999 -14.5
c-14.667 0 -27 4.83301 -37 14.5s-15 22.167 -15 37.5z" />
    <glyph glyph-name="eth" unicode="&#xf0;" horiz-adv-x="609" 
d="M255 770c19.333 0 38 -1.99414 56 -5.99414l33 51l52 -34l-26 -40c31.333 -16.667 58.333 -39.334 81 -68.001s41.5 -60.334 56.5 -95.001s26 -70.834 33 -108.501s10.5 -73.834 10.5 -108.501c0 -58.667 -5.83301 -110.834 -17.5 -156.501s-28.5 -84.334 -50.5 -116.001
s-49.167 -55.667 -81.5 -72s-69.166 -24.5 -110.499 -24.5c-45.333 0 -83 8.66699 -113 26s-54.333 38.666 -73 63.999s-31.834 52.5 -39.501 81.5s-11.5 55.167 -11.5 78.5c0 40 5.5 77.167 16.5 111.5s26.333 64 46 89s43.5 44.5 71.5 58.5s59 21 93 21
c64.667 0 124.334 -25 179.001 -75c-4 24 -9.66699 47.667 -17 71s-16.5 45.333 -27.5 66s-23.667 39 -38 55s-30.833 29 -49.5 39l-61 -94l-52 32l51 79c-2.66699 0.666992 -6.33398 1 -11.001 1c-28.667 0 -51.667 -4 -69 -12s-32.333 -16 -45 -24l-36 62
c8 5.33301 16.833 10.833 26.5 16.5s20.5 10.834 32.5 15.501s25.5 8.5 40.5 11.5s31.833 4.5 50.5 4.5zM291 66.0059c54 0 96.168 24 126.501 72s46.833 115.667 49.5 203c-28.667 36.667 -58.334 63.667 -89.001 81s-63 26 -97 26
c-21.333 0 -40.666 -5.16699 -57.999 -15.5s-32.333 -24.833 -45 -43.5s-22.5 -40.5 -29.5 -65.5s-10.5 -52.167 -10.5 -81.5c0 -16.667 2.5 -35.167 7.5 -55.5s13.5 -39.5 25.5 -57.5s27.667 -33 47 -45s43.666 -18 72.999 -18z" />
    <glyph glyph-name="ntilde" unicode="&#xf1;" horiz-adv-x="604" 
d="M84 0l-0.000976562 550.001h84v-106c15.333 14.667 32.166 29.167 50.499 43.5s37.833 27 58.5 38s42 19.833 64 26.5s44.333 10 67 10c45.333 0 77.833 -15.333 97.5 -46s29.5 -72.334 29.5 -125.001v-391h-84v391c0 27.333 -3.33301 48.666 -10 63.999
s-17.667 23 -33 23c-25.333 0 -49.5 -4.33301 -72.5 -13s-44.667 -19.5 -65 -32.5s-39.166 -27.167 -56.499 -42.5s-32.666 -29.666 -45.999 -42.999v-347h-84zM513.999 668.001c-8 -9.33301 -17.333 -17.665 -28 -24.998c-9.33301 -6.66699 -20.666 -12.667 -33.999 -18
s-28.666 -8.66602 -45.999 -9.99902c-14.667 -1.33301 -30.834 0.666992 -48.501 6s-35.5 11.333 -53.5 18l-46.5 16c-15.667 5.33301 -29.834 7.66602 -42.501 6.99902c-14.667 -1.33301 -27.167 -3.83301 -37.5 -7.5s-19.166 -7.83398 -26.499 -12.501
c-8 -5.33301 -15 -11.333 -21 -18l-25 50c8 9.33301 17.333 17.666 28 24.999c9.33301 6.66699 20.666 12.667 33.999 18s28.666 8.66602 45.999 9.99902c14.667 1.33301 30.834 -0.666992 48.501 -6s35.5 -11.333 53.5 -18l46.5 -16
c15.667 -5.33301 29.834 -7.66602 42.501 -6.99902c14.667 0.666992 27.167 3 37.5 7s19.166 8.33301 26.499 13c8 5.33301 15 11.333 21 18z" />
    <glyph glyph-name="ograve" unicode="&#xf2;" horiz-adv-x="586" 
d="M54 275c0 52.667 6.83301 97.167 20.5 133.5s31.667 65.833 54 88.5s47.833 39.167 76.5 49.5s58 15.5 88 15.5s59.333 -5.16699 88 -15.5s54.167 -26.833 76.5 -49.5s40.333 -52.334 54 -89.001s20.5 -81 20.5 -133c0 -53.333 -6.83301 -98.166 -20.5 -134.499
s-31.667 -65.833 -54 -88.5s-47.833 -39 -76.5 -49s-58 -15 -88 -15s-59.333 4.83301 -88 14.5s-54.167 25.667 -76.5 48s-40.333 51.833 -54 88.5s-20.5 82 -20.5 136zM448 275c0 38.667 -4.5 71.834 -13.5 99.501s-20.833 50.167 -35.5 67.5
s-31.334 30.166 -50.001 38.499s-37.334 12.5 -56.001 12.5c-19.333 0 -38.166 -3.83301 -56.499 -11.5s-34.833 -20.167 -49.5 -37.5s-26.5 -39.833 -35.5 -67.5s-13.5 -61.5 -13.5 -101.5c0 -39.333 4.5 -73 13.5 -101s20.833 -50.667 35.5 -68s31.167 -30 49.5 -38
s37.166 -12 56.499 -12c18.667 0 37.334 3.83301 56.001 11.5s35.334 20.167 50.001 37.5s26.5 40 35.5 68s13.5 62 13.5 102zM199 756l131 -146h-69l-166 146h104z" />
    <glyph glyph-name="oacute" unicode="&#xf3;" horiz-adv-x="586" 
d="M54 275c0 52.667 6.83301 97.167 20.5 133.5s31.667 65.833 54 88.5s47.833 39.167 76.5 49.5s58 15.5 88 15.5s59.333 -5.16699 88 -15.5s54.167 -26.833 76.5 -49.5s40.333 -52.334 54 -89.001s20.5 -81 20.5 -133c0 -53.333 -6.83301 -98.166 -20.5 -134.499
s-31.667 -65.833 -54 -88.5s-47.833 -39 -76.5 -49s-58 -15 -88 -15s-59.333 4.83301 -88 14.5s-54.167 25.667 -76.5 48s-40.333 51.833 -54 88.5s-20.5 82 -20.5 136zM448 275c0 38.667 -4.5 71.834 -13.5 99.501s-20.833 50.167 -35.5 67.5
s-31.334 30.166 -50.001 38.499s-37.334 12.5 -56.001 12.5c-19.333 0 -38.166 -3.83301 -56.499 -11.5s-34.833 -20.167 -49.5 -37.5s-26.5 -39.833 -35.5 -67.5s-13.5 -61.5 -13.5 -101.5c0 -39.333 4.5 -73 13.5 -101s20.833 -50.667 35.5 -68s31.167 -30 49.5 -38
s37.166 -12 56.499 -12c18.667 0 37.334 3.83301 56.001 11.5s35.334 20.167 50.001 37.5s26.5 40 35.5 68s13.5 62 13.5 102zM490 756l-166 -146h-69l131 146h104z" />
    <glyph glyph-name="ocircumflex" unicode="&#xf4;" horiz-adv-x="586" 
d="M54 275c0 52.667 6.83301 97.167 20.5 133.5s31.667 65.833 54 88.5s47.833 39.167 76.5 49.5s58 15.5 88 15.5s59.333 -5.16699 88 -15.5s54.167 -26.833 76.5 -49.5s40.333 -52.334 54 -89.001s20.5 -81 20.5 -133c0 -53.333 -6.83301 -98.166 -20.5 -134.499
s-31.667 -65.833 -54 -88.5s-47.833 -39 -76.5 -49s-58 -15 -88 -15s-59.333 4.83301 -88 14.5s-54.167 25.667 -76.5 48s-40.333 51.833 -54 88.5s-20.5 82 -20.5 136zM448 275c0 38.667 -4.5 71.834 -13.5 99.501s-20.833 50.167 -35.5 67.5
s-31.334 30.166 -50.001 38.499s-37.334 12.5 -56.001 12.5c-19.333 0 -38.166 -3.83301 -56.499 -11.5s-34.833 -20.167 -49.5 -37.5s-26.5 -39.833 -35.5 -67.5s-13.5 -61.5 -13.5 -101.5c0 -39.333 4.5 -73 13.5 -101s20.833 -50.667 35.5 -68s31.167 -30 49.5 -38
s37.166 -12 56.499 -12c18.667 0 37.334 3.83301 56.001 11.5s35.334 20.167 50.001 37.5s26.5 40 35.5 68s13.5 62 13.5 102zM325 756l156 -146h-91l-98 95l-98 -95h-91l156 146h66z" />
    <glyph glyph-name="otilde" unicode="&#xf5;" horiz-adv-x="586" 
d="M54 275c0 52.667 6.83301 97.167 20.5 133.5s31.667 65.833 54 88.5s47.833 39.167 76.5 49.5s58 15.5 88 15.5s59.333 -5.16699 88 -15.5s54.167 -26.833 76.5 -49.5s40.333 -52.334 54 -89.001s20.5 -81 20.5 -133c0 -53.333 -6.83301 -98.166 -20.5 -134.499
s-31.667 -65.833 -54 -88.5s-47.833 -39 -76.5 -49s-58 -15 -88 -15s-59.333 4.83301 -88 14.5s-54.167 25.667 -76.5 48s-40.333 51.833 -54 88.5s-20.5 82 -20.5 136zM448 275c0 38.667 -4.5 71.834 -13.5 99.501s-20.833 50.167 -35.5 67.5
s-31.334 30.166 -50.001 38.499s-37.334 12.5 -56.001 12.5c-19.333 0 -38.166 -3.83301 -56.499 -11.5s-34.833 -20.167 -49.5 -37.5s-26.5 -39.833 -35.5 -67.5s-13.5 -61.5 -13.5 -101.5c0 -39.333 4.5 -73 13.5 -101s20.833 -50.667 35.5 -68s31.167 -30 49.5 -38
s37.166 -12 56.499 -12c18.667 0 37.334 3.83301 56.001 11.5s35.334 20.167 50.001 37.5s26.5 40 35.5 68s13.5 62 13.5 102zM497 668c-8 -9.33301 -17.333 -17.665 -28 -24.998c-9.33301 -6.66699 -20.666 -12.667 -33.999 -18s-28.666 -8.66602 -45.999 -9.99902
c-14.667 -1.33301 -30.834 0.666992 -48.501 6s-35.5 11.333 -53.5 18l-46.5 16c-15.667 5.33301 -29.834 7.66602 -42.501 6.99902c-14.667 -1.33301 -27.167 -3.83301 -37.5 -7.5s-19.166 -7.83398 -26.499 -12.501c-8 -5.33301 -15 -11.333 -21 -18l-25 50
c8 9.33301 17.333 17.666 28 24.999c9.33301 6.66699 20.666 12.667 33.999 18s28.666 8.66602 45.999 9.99902c14.667 1.33301 30.834 -0.666992 48.501 -6s35.5 -11.333 53.5 -18l46.5 -16c15.667 -5.33301 29.834 -7.66602 42.501 -6.99902
c14.667 0.666992 27.167 3 37.5 7s19.166 8.33301 26.499 13c8 5.33301 15 11.333 21 18z" />
    <glyph glyph-name="odieresis" unicode="&#xf6;" horiz-adv-x="586" 
d="M54 275c0 52.667 6.83301 97.167 20.5 133.5s31.667 65.833 54 88.5s47.833 39.167 76.5 49.5s58 15.5 88 15.5s59.333 -5.16699 88 -15.5s54.167 -26.833 76.5 -49.5s40.333 -52.334 54 -89.001s20.5 -81 20.5 -133c0 -53.333 -6.83301 -98.166 -20.5 -134.499
s-31.667 -65.833 -54 -88.5s-47.833 -39 -76.5 -49s-58 -15 -88 -15s-59.333 4.83301 -88 14.5s-54.167 25.667 -76.5 48s-40.333 51.833 -54 88.5s-20.5 82 -20.5 136zM448 275c0 38.667 -4.5 71.834 -13.5 99.501s-20.833 50.167 -35.5 67.5
s-31.334 30.166 -50.001 38.499s-37.334 12.5 -56.001 12.5c-19.333 0 -38.166 -3.83301 -56.499 -11.5s-34.833 -20.167 -49.5 -37.5s-26.5 -39.833 -35.5 -67.5s-13.5 -61.5 -13.5 -101.5c0 -39.333 4.5 -73 13.5 -101s20.833 -50.667 35.5 -68s31.167 -30 49.5 -38
s37.166 -12 56.499 -12c18.667 0 37.334 3.83301 56.001 11.5s35.334 20.167 50.001 37.5s26.5 40 35.5 68s13.5 62 13.5 102zM140 662c0 14.667 4.83301 26.834 14.5 36.501s22.167 14.5 37.5 14.5c14.667 0 26.834 -4.83301 36.501 -14.5s14.5 -21.834 14.5 -36.501
c0 -15.333 -4.83301 -27.833 -14.5 -37.5s-21.834 -14.5 -36.501 -14.5c-15.333 0 -27.833 4.83301 -37.5 14.5s-14.5 22.167 -14.5 37.5zM341 662c0 14.667 5 26.834 15 36.501s22.333 14.5 37 14.5c15.333 0 27.666 -4.83301 36.999 -14.5s14 -21.834 14 -36.501
c0 -15.333 -4.66699 -27.833 -14 -37.5s-21.666 -14.5 -36.999 -14.5c-14.667 0 -27 4.83301 -37 14.5s-15 22.167 -15 37.5z" />
    <glyph glyph-name="oslash" unicode="&#xf8;" horiz-adv-x="586" 
d="M54 275c0 52.667 6.83398 97.166 20.501 133.499s31.667 65.833 54 88.5s47.833 39.167 76.5 49.5s58 15.5 88 15.5c34.667 0 67 -6.33301 97 -19l20 39h78l-40 -77c25.333 -22.667 45.666 -52.667 60.999 -90s23 -84 23 -140c0 -53.333 -6.83301 -98.166 -20.5 -134.499
s-31.667 -65.833 -54 -88.5s-47.833 -39 -76.5 -49s-58 -15 -88 -15c-36 0 -69.667 6.33301 -101 19l-20 -39h-78l39 77c-23.333 22 -42.333 51.667 -57 89s-22 84.333 -22 141zM448.001 274.999c0 34 -3.66992 63.668 -11.0029 89.001s-16.666 46.666 -27.999 63.999
l-183 -355c20 -11.333 42.333 -17 67 -17c18.667 0 37.334 3.83301 56.001 11.5s35.334 20.167 50.001 37.5s26.5 40 35.5 68s13.5 62 13.5 102zM137.998 275c0 -34 3.16699 -63.333 9.5 -88s15.166 -45.667 26.499 -63l182 353c-21.333 10.667 -42.333 16 -63 16
c-19.333 0 -38.166 -3.83301 -56.499 -11.5s-34.833 -20.167 -49.5 -37.5s-26.5 -39.833 -35.5 -67.5s-13.5 -61.5 -13.5 -101.5z" />
    <glyph glyph-name="ugrave" unicode="&#xf9;" horiz-adv-x="604" 
d="M196 69c24.667 0 48.502 4.33398 71.502 13.001s44.833 19.667 65.5 33s39.667 27.666 57 42.999s32.666 30 45.999 44v348h84v-550h-84v97c-15.333 -14.667 -32.333 -28.667 -51 -42s-38.334 -25 -59.001 -35s-42 -17.833 -64 -23.5s-44 -8.5 -66 -8.5
c-45.333 0 -77.833 15.167 -97.5 45.5s-29.5 72.166 -29.5 125.499v391h84v-391c0 -27.333 3.33301 -49.166 10 -65.499s17.667 -24.5 33 -24.5zM201.002 756.001l131 -146h-69l-166 146h104z" />
    <glyph glyph-name="uacute" unicode="&#xfa;" horiz-adv-x="604" 
d="M196 69c24.667 0 48.502 4.33398 71.502 13.001s44.833 19.667 65.5 33s39.667 27.666 57 42.999s32.666 30 45.999 44v348h84v-550h-84v97c-15.333 -14.667 -32.333 -28.667 -51 -42s-38.334 -25 -59.001 -35s-42 -17.833 -64 -23.5s-44 -8.5 -66 -8.5
c-45.333 0 -77.833 15.167 -97.5 45.5s-29.5 72.166 -29.5 125.499v391h84v-391c0 -27.333 3.33301 -49.166 10 -65.499s17.667 -24.5 33 -24.5zM492.002 756.001l-166 -146h-69l131 146h104z" />
    <glyph glyph-name="ucircumflex" unicode="&#xfb;" horiz-adv-x="604" 
d="M196 69c24.667 0 48.502 4.33398 71.502 13.001s44.833 19.667 65.5 33s39.667 27.666 57 42.999s32.666 30 45.999 44v348h84v-550h-84v97c-15.333 -14.667 -32.333 -28.667 -51 -42s-38.334 -25 -59.001 -35s-42 -17.833 -64 -23.5s-44 -8.5 -66 -8.5
c-45.333 0 -77.833 15.167 -97.5 45.5s-29.5 72.166 -29.5 125.499v391h84v-391c0 -27.333 3.33301 -49.166 10 -65.499s17.667 -24.5 33 -24.5zM327.002 756.001l156 -146h-91l-98 95l-98 -95h-91l156 146h66z" />
    <glyph glyph-name="udieresis" unicode="&#xfc;" horiz-adv-x="604" 
d="M196 69c24.667 0 48.502 4.33398 71.502 13.001s44.833 19.667 65.5 33s39.667 27.666 57 42.999s32.666 30 45.999 44v348h84v-550h-84v97c-15.333 -14.667 -32.333 -28.667 -51 -42s-38.334 -25 -59.001 -35s-42 -17.833 -64 -23.5s-44 -8.5 -66 -8.5
c-45.333 0 -77.833 15.167 -97.5 45.5s-29.5 72.166 -29.5 125.499v391h84v-391c0 -27.333 3.33301 -49.166 10 -65.499s17.667 -24.5 33 -24.5zM142.002 662.001c0 14.667 4.83301 26.834 14.5 36.501s22.167 14.5 37.5 14.5c14.667 0 26.834 -4.83301 36.501 -14.5
s14.5 -21.834 14.5 -36.501c0 -15.333 -4.83301 -27.833 -14.5 -37.5s-21.834 -14.5 -36.501 -14.5c-15.333 0 -27.833 4.83301 -37.5 14.5s-14.5 22.167 -14.5 37.5zM343.002 662.001c0 14.667 5 26.834 15 36.501s22.333 14.5 37 14.5
c15.333 0 27.666 -4.83301 36.999 -14.5s14 -21.834 14 -36.501c0 -15.333 -4.66699 -27.833 -14 -37.5s-21.666 -14.5 -36.999 -14.5c-14.667 0 -27 4.83301 -37 14.5s-15 22.167 -15 37.5z" />
    <glyph glyph-name="yacute" unicode="&#xfd;" horiz-adv-x="513" 
d="M105 550l149 -386.001l53.5 129l51.5 121c16 36.667 30 67.5 42 92.5s20.333 39.5 25 43.5h95c-4.66699 -4.66699 -9.33398 -10 -14.001 -16s-10.667 -16 -18 -30s-16.5 -33.333 -27.5 -58l-43 -100.5l-65.5 -157l-93 -227.5
c-12.667 -31.333 -26.5 -62.166 -41.5 -92.499s-35.167 -57.833 -60.5 -82.5c-27.333 -26 -53.5 -42.5 -78.5 -49.5s-46.167 -10.833 -63.5 -11.5l-21 73c30.667 2 53.334 7 68.001 15s27.334 17.333 38.001 28c6 6 11.833 12.333 17.5 19s11.5 15.334 17.5 26.001
s12.667 23.667 20 39s15.666 34.666 24.999 57.999l27 67l-192 500h89zM420 755.999l-166 -146h-69l131 146h104z" />
    <glyph glyph-name="thorn" unicode="&#xfe;" horiz-adv-x="622" 
d="M84 -260l-0.000976562 1030h82v-312c11.333 14.667 24.166 28.334 38.499 41.001s30 23.667 47 33s35.333 16.666 55 21.999s40.834 8 63.501 8c30.667 0 58.167 -7.83301 82.5 -23.5s45 -36.167 62 -61.5s30.167 -54.833 39.5 -88.5s14 -68.5 14 -104.5
c0 -94 -20.5 -166.833 -61.5 -218.5s-97.5 -77.5 -169.5 -77.5c-25.333 0 -53.166 7 -83.499 21s-59.5 32.333 -87.5 55v-324h-82zM369.999 480c-26 0 -49.834 -4.33008 -71.501 -12.9971s-41 -19.667 -58 -33s-31.667 -27.5 -44 -42.5s-22.5 -28.833 -30.5 -41.5v-194
c12 -12 25.333 -23.333 40 -34s29.5 -19.834 44.5 -27.501s29.833 -13.667 44.5 -18s28.667 -6.5 42 -6.5c44.667 0 80.334 18.667 107.001 56s40 90 40 158c0 25.333 -2.66699 49.666 -8 72.999s-13 44.166 -23 62.499s-22 33 -36 44s-29.667 16.5 -47 16.5z" />
    <glyph glyph-name="ydieresis" unicode="&#xff;" horiz-adv-x="513" 
d="M105 550l149 -386.001l53.5 129l51.5 121c16 36.667 30 67.5 42 92.5s20.333 39.5 25 43.5h95c-4.66699 -4.66699 -9.33398 -10 -14.001 -16s-10.667 -16 -18 -30s-16.5 -33.333 -27.5 -58l-43 -100.5l-65.5 -157l-93 -227.5
c-12.667 -31.333 -26.5 -62.166 -41.5 -92.499s-35.167 -57.833 -60.5 -82.5c-27.333 -26 -53.5 -42.5 -78.5 -49.5s-46.167 -10.833 -63.5 -11.5l-21 73c30.667 2 53.334 7 68.001 15s27.334 17.333 38.001 28c6 6 11.833 12.333 17.5 19s11.5 15.334 17.5 26.001
s12.667 23.667 20 39s15.666 34.666 24.999 57.999l27 67l-192 500h89zM101 661.999c0 14.667 4.83301 26.834 14.5 36.501s22.167 14.5 37.5 14.5c14.667 0 26.834 -4.83301 36.501 -14.5s14.5 -21.834 14.5 -36.501c0 -15.333 -4.83301 -27.833 -14.5 -37.5
s-21.834 -14.5 -36.501 -14.5c-15.333 0 -27.833 4.83301 -37.5 14.5s-14.5 22.167 -14.5 37.5zM302 661.999c0 14.667 5 26.834 15 36.501s22.333 14.5 37 14.5c15.333 0 27.666 -4.83301 36.999 -14.5s14 -21.834 14 -36.501c0 -15.333 -4.66699 -27.833 -14 -37.5
s-21.666 -14.5 -36.999 -14.5c-14.667 0 -27 4.83301 -37 14.5s-15 22.167 -15 37.5z" />
    <glyph glyph-name="dotlessi" unicode="&#x131;" horiz-adv-x="251" 
d="M167 550v-550h-83v550h83z" />
    <glyph glyph-name="OE" unicode="&#x152;" horiz-adv-x="957" 
d="M481 0c-14 -2.66699 -26.999 -5.33398 -38.999 -8.00098c-11.333 -2 -22.666 -3.66699 -33.999 -5s-21.666 -2 -30.999 -2c-36.667 0 -73.834 6 -111.501 18s-71.834 33.167 -102.501 63.5s-55.667 71.166 -75 122.499s-29 116.333 -29 195
c0 78 9.66699 142.833 29 194.5s44.333 92.834 75 123.501s65.167 52.167 103.5 64.5s76.166 18.5 113.499 18.5c16.667 0 33.5 -1.16699 50.5 -3.5s33.833 -6.16602 50.5 -11.499h318c16 0 30.5 0.166992 43.5 0.5s24.167 0.833008 33.5 1.5
c10.667 0.666992 20 1.66699 28 3v-80h-335v-258h285v-76h-285v-285h244c16 0 30.5 0.166992 43.5 0.5s24.167 0.833008 33.5 1.5c10.667 0.666992 20 1.66699 28 3v-81h-437zM481.001 683c-16 9.33301 -32.501 16.165 -49.501 20.498s-34.167 6.5 -51.5 6.5
c-26 0 -52.833 -5.33301 -80.5 -16s-52.667 -28.667 -75 -54s-40.833 -58.666 -55.5 -99.999s-22 -92.666 -22 -153.999c0 -62 7.16699 -113.833 21.5 -155.5s32.833 -75 55.5 -100s47.5 -42.833 74.5 -53.5s53.167 -16 78.5 -16c17.333 0 34.833 2 52.5 6
s34.834 10.667 51.501 20v596z" />
    <glyph glyph-name="oe" unicode="&#x153;" horiz-adv-x="971" 
d="M54 275c0 52.667 6.83789 97.165 20.5049 133.498s31.667 65.833 54 88.5s47.833 39.167 76.5 49.5s58 15.5 88 15.5c39.333 0 77 -9 113 -27s65 -47.333 87 -88c20 34.667 46.333 62.5 79 83.5s70 31.5 112 31.5c34 0 63.167 -5.16699 87.5 -15.5
s44.666 -23.333 60.999 -39s29.333 -33.167 39 -52.5s17.167 -38.166 22.5 -56.499s8.66602 -34.666 9.99902 -48.999s2 -24.833 2 -31.5v-39h-375c-1.33301 -32.667 1.16699 -62.334 7.5 -89.001s16.166 -49.667 29.499 -69s30 -34.333 50 -45s43.333 -16 70 -16
c7.33301 0 16.666 0.333008 27.999 1s24.333 4 39 10s30.667 15.5 48 28.5s35.666 32.167 54.999 57.5l51 -49c-25.333 -31.333 -49 -55.166 -71 -71.499s-42.5 -28 -61.5 -35s-36 -11 -51 -12s-27.5 -1.5 -37.5 -1.5c-46.667 0 -86.5 9.83301 -119.5 29.5
s-59.167 46.167 -78.5 79.5c-22 -39.333 -50.667 -67.333 -86 -84s-72.333 -25 -111 -25c-30 0 -59.333 4.83301 -88 14.5s-54.167 25.667 -76.5 48s-40.333 51.833 -54 88.5s-20.5 82 -20.5 136zM448.005 280.998c-0.666992 37.333 -5.49805 69.502 -14.498 96.502
s-20.833 49 -35.5 66s-31.167 29.5 -49.5 37.5s-36.833 12 -55.5 12c-19.333 0 -38.166 -3.83301 -56.499 -11.5s-34.833 -20.167 -49.5 -37.5s-26.5 -39.833 -35.5 -67.5s-13.5 -61.5 -13.5 -101.5c0 -39.333 4.5 -73 13.5 -101s20.833 -50.667 35.5 -68
s31.167 -30 49.5 -38s37.166 -12 56.499 -12c18.667 0 37 3.66699 55 11s34.167 19.166 48.5 35.499s26.166 37.666 35.499 63.999s14.666 58.5 15.999 96.5v6v12zM684.007 490c-18.667 0 -35.5 -3.5 -50.5 -10.5s-28.333 -16.667 -40 -29s-21.834 -26.833 -30.501 -43.5
s-15.667 -34.667 -21 -54h279c-2 14 -6 29 -12 45s-14.333 30.833 -25 44.5s-24.167 25 -40.5 34s-36.166 13.5 -59.499 13.5z" />
    <glyph glyph-name="Ydieresis" unicode="&#x178;" horiz-adv-x="615" 
d="M606 770l-254 -401v-369h-87v369l-256 401h103l197 -309l198 309h99zM155 877c0 14.667 4.83301 26.834 14.5 36.501s22.167 14.5 37.5 14.5c14.667 0 26.834 -4.83301 36.501 -14.5s14.5 -21.834 14.5 -36.501c0 -15.333 -4.83301 -27.833 -14.5 -37.5
s-21.834 -14.5 -36.501 -14.5c-15.333 0 -27.833 4.83301 -37.5 14.5s-14.5 22.167 -14.5 37.5zM356 877c0 14.667 5 26.834 15 36.501s22.333 14.5 37 14.5c15.333 0 27.666 -4.83301 36.999 -14.5s14 -21.834 14 -36.501c0 -15.333 -4.66699 -27.833 -14 -37.5
s-21.666 -14.5 -36.999 -14.5c-14.667 0 -27 4.83301 -37 14.5s-15 22.167 -15 37.5z" />
    <glyph glyph-name="circumflex" unicode="&#x2c6;" horiz-adv-x="496" 
d="M281 756l156 -146h-91l-98 95l-98 -95h-91l156 146h66z" />
    <glyph glyph-name="caron" unicode="&#x2c7;" horiz-adv-x="496" 
d="M215 605l-156 146h91l98 -95l98 95h91l-156 -146h-66z" />
    <glyph glyph-name="breve" unicode="&#x2d8;" horiz-adv-x="433" 
d="M120 750c0.666992 -10.667 3.83301 -21.167 9.5 -31.5s13 -19.5 22 -27.5s19.333 -14.333 31 -19s24.167 -7 37.5 -7c12 0 23.333 2.33301 34 7s20.334 11 29.001 19s15.667 17.167 21 27.5s8.66602 20.833 9.99902 31.5h60c-2.66699 -19.333 -8.16699 -38 -16.5 -56
s-19.166 -33.833 -32.499 -47.5s-29 -24.667 -47 -33s-37.333 -12.5 -58 -12.5c-22 0 -42.333 4.16699 -61 12.5s-35 19.333 -49 33s-25.333 29.5 -34 47.5s-14.334 36.667 -17.001 56h61z" />
    <glyph glyph-name="dotaccent" unicode="&#x2d9;" horiz-adv-x="191" 
d="M44 719c0 14.667 4.83301 26.834 14.5 36.501s22.167 14.5 37.5 14.5c14.667 0 26.834 -4.83301 36.501 -14.5s14.5 -21.834 14.5 -36.501c0 -15.333 -4.83301 -27.833 -14.5 -37.5s-21.834 -14.5 -36.501 -14.5c-15.333 0 -27.833 4.83301 -37.5 14.5
s-14.5 22.167 -14.5 37.5z" />
    <glyph glyph-name="ring" unicode="&#x2da;" horiz-adv-x="316" 
d="M64 693c0 -26.667 9.33301 -49.334 28 -68.001s41.334 -28 68.001 -28c12.667 0 24.667 2.5 36 7.5s21.166 11.833 29.499 20.5s14.833 18.834 19.5 30.501s7 24.167 7 37.5c0 12.667 -2.33301 24.667 -7 36s-11.167 21.166 -19.5 29.499s-18.166 14.833 -29.499 19.5
s-23.333 7 -36 7c-13.333 0 -25.833 -2.33301 -37.5 -7s-21.834 -11.167 -30.501 -19.5s-15.5 -18.166 -20.5 -29.499s-7.5 -23.333 -7.5 -36c0 12.667 2.5 24.667 7.5 36s11.833 21.166 20.5 29.499s18.834 14.833 30.501 19.5s24.167 7 37.5 7
c12.667 0 24.667 -2.33301 36 -7s21.166 -11.167 29.499 -19.5s14.833 -18.166 19.5 -29.499s7 -23.333 7 -36c0 -13.333 -2.33301 -25.833 -7 -37.5s-11.167 -21.834 -19.5 -30.501s-18.166 -15.5 -29.499 -20.5s-23.333 -7.5 -36 -7.5
c-26.667 0 -49.334 9.33301 -68.001 28s-28 41.334 -28 68.001c0 12.667 2.5 24.667 7.5 36s11.833 21.166 20.5 29.499s18.834 14.833 30.501 19.5s24.167 7 37.5 7c12.667 0 24.667 -2.33301 36 -7s21.166 -11.167 29.499 -19.5s14.833 -18.166 19.5 -29.499
s7 -23.333 7 -36c0 -13.333 -2.33301 -25.833 -7 -37.5s-11.167 -21.834 -19.5 -30.501s-18.166 -15.5 -29.499 -20.5s-23.333 -7.5 -36 -7.5c-26.667 0 -49.334 9.33301 -68.001 28s-28 41.334 -28 68.001zM112 693c0 -13.333 4.66699 -24.666 14 -33.999
s20.666 -14 33.999 -14c11.333 0 21.666 4.66699 30.999 14s14 20.666 14 33.999c0 11.333 -4.66699 21.666 -14 30.999s-19.666 14 -30.999 14c-13.333 0 -24.666 -4.66699 -33.999 -14s-14 -19.666 -14 -30.999z" />
    <glyph glyph-name="ogonek" unicode="&#x2db;" horiz-adv-x="318" 
d="M64 -69c0 15.333 4.16699 30.167 12.5 44.5s17.5 27.166 27.5 38.499c12 12.667 25.333 25 40 37l32 -20c-11.333 -8 -21.333 -17 -30 -27c-7.33301 -8.66699 -14 -19 -20 -31s-9 -25.333 -9 -40c0 -12 4.66699 -20.833 14 -26.5s18.666 -8.5 27.999 -8.5
c11.333 0 21.666 2.5 30.999 7.5s17.333 11.5 24 19.5l40 -36c-11.333 -13.333 -25.166 -24.166 -41.499 -32.499s-34.166 -12.5 -53.499 -12.5c-10.667 0 -21.5 1.83301 -32.5 5.5s-21.167 9 -30.5 16s-17 16 -23 27s-9 23.833 -9 38.5z" />
    <glyph glyph-name="tilde" unicode="&#x2dc;" horiz-adv-x="537" 
d="M473 668c-8 -9.33301 -17.333 -17.665 -28 -24.998c-9.33301 -6.66699 -20.666 -12.667 -33.999 -18s-28.666 -8.66602 -45.999 -9.99902c-14.667 -1.33301 -30.834 0.666992 -48.501 6s-35.5 11.333 -53.5 18l-46.5 16c-15.667 5.33301 -29.834 7.66602 -42.501 6.99902
c-14.667 -1.33301 -27.167 -3.83301 -37.5 -7.5s-19.166 -7.83398 -26.499 -12.501c-8 -5.33301 -15 -11.333 -21 -18l-25 50c8 9.33301 17.333 17.666 28 24.999c9.33301 6.66699 20.666 12.667 33.999 18s28.666 8.66602 45.999 9.99902
c14.667 1.33301 30.834 -0.666992 48.501 -6s35.5 -11.333 53.5 -18l46.5 -16c15.667 -5.33301 29.834 -7.66602 42.501 -6.99902c14.667 0.666992 27.167 3 37.5 7s19.166 8.33301 26.499 13c8 5.33301 15 11.333 21 18z" />
    <glyph glyph-name="hungarumlaut" unicode="&#x2dd;" horiz-adv-x="491" 
d="M294 756l-166 -146h-69l131 146h104zM432 756l-166 -146h-69l131 146h104z" />
    <glyph glyph-name="endash" unicode="&#x2013;" horiz-adv-x="659" 
d="M605 243h-551v65h551v-65z" />
    <glyph glyph-name="emdash" unicode="&#x2014;" horiz-adv-x="789" 
d="M735 243h-681v65h681v-65z" />
    <glyph glyph-name="quoteleft" unicode="&#x2018;" horiz-adv-x="205" 
d="M161 592c0 -16 -5.33398 -29.167 -16.001 -39.5s-24 -15.5 -40 -15.5c-21.333 0 -36.833 7.83301 -46.5 23.5s-14.5 35.167 -14.5 58.5c0.666992 28 7 56.833 19 86.5s28.667 57.5 50 83.5l46 -25c-14.667 -18 -27.167 -36.333 -37.5 -55s-17.166 -39 -20.499 -61
c18 0 32.5 -5.33301 43.5 -16s16.5 -24 16.5 -40z" />
    <glyph glyph-name="quoteright" unicode="&#x2019;" horiz-adv-x="205" 
d="M44 714c0 16 5.33398 29.167 16.001 39.5s24 15.5 40 15.5c21.333 0 36.833 -7.83301 46.5 -23.5s14.5 -35.167 14.5 -58.5c-0.666992 -28 -7 -56.833 -19 -86.5s-28.667 -57.5 -50 -83.5l-46 25c14.667 18 27.167 36.333 37.5 55s17.166 39 20.499 61
c-18 0 -32.5 5.33301 -43.5 16s-16.5 24 -16.5 40z" />
    <glyph glyph-name="quotedblleft" unicode="&#x201c;" horiz-adv-x="376" 
d="M161 592c0 -16 -5.33398 -29.167 -16.001 -39.5s-24 -15.5 -40 -15.5c-21.333 0 -36.833 7.83301 -46.5 23.5s-14.5 35.167 -14.5 58.5c0.666992 28 7 56.833 19 86.5s28.667 57.5 50 83.5l46 -25c-14.667 -18 -27.167 -36.333 -37.5 -55s-17.166 -39 -20.499 -61
c18 0 32.5 -5.33301 43.5 -16s16.5 -24 16.5 -40zM331.999 592c0 -16 -5.33398 -29.167 -16.001 -39.5s-24 -15.5 -40 -15.5c-21.333 0 -36.833 7.83301 -46.5 23.5s-14.5 35.167 -14.5 58.5c0.666992 28 7 56.833 19 86.5s28.667 57.5 50 83.5l46 -25
c-14.667 -18 -27.167 -36.333 -37.5 -55s-17.166 -39 -20.499 -61c18 0 32.5 -5.33301 43.5 -16s16.5 -24 16.5 -40z" />
    <glyph glyph-name="quotedblright" unicode="&#x201d;" horiz-adv-x="376" 
d="M215 714c0 16 5.33398 29.167 16.001 39.5s24 15.5 40 15.5c21.333 0 36.833 -7.83301 46.5 -23.5s14.5 -35.167 14.5 -58.5c-0.666992 -28 -7 -56.833 -19 -86.5s-28.667 -57.5 -50 -83.5l-46 25c14.667 18 27.167 36.333 37.5 55s17.166 39 20.499 61
c-18 0 -32.5 5.33301 -43.5 16s-16.5 24 -16.5 40zM44.001 714c0 16 5.33398 29.167 16.001 39.5s24 15.5 40 15.5c21.333 0 36.833 -7.83301 46.5 -23.5s14.5 -35.167 14.5 -58.5c-0.666992 -28 -7 -56.833 -19 -86.5s-28.667 -57.5 -50 -83.5l-46 25
c14.667 18 27.167 36.333 37.5 55s17.166 39 20.499 61c-18 0 -32.5 5.33301 -43.5 16s-16.5 24 -16.5 40z" />
    <glyph glyph-name="bullet" unicode="&#x2022;" horiz-adv-x="338" 
d="M54 238c0 16 3.00098 30.999 9.00098 44.999s14.167 26 24.5 36s22.666 17.833 36.999 23.5s29.833 8.5 46.5 8.5c32.667 0 59.667 -10.667 81 -32s32 -48.333 32 -81c0 -16.667 -2.83301 -32.167 -8.5 -46.5s-13.5 -26.666 -23.5 -36.999s-22 -18.5 -36 -24.5
s-29 -9 -45 -9c-34 0 -62 11 -84 33s-33 50 -33 84z" />
    <glyph glyph-name="ellipsis" unicode="&#x2026;" horiz-adv-x="614" 
d="M44 56c0 17.333 6 31.833 18 43.5s27 17.5 45 17.5c17.333 0 31.833 -5.83301 43.5 -17.5s17.5 -26.167 17.5 -43.5c0 -18 -5.83301 -33 -17.5 -45s-26.167 -18 -43.5 -18c-18 0 -33 6 -45 18s-18 27 -18 45zM245 56c0 17.333 6 31.833 18 43.5s27 17.5 45 17.5
c17.333 0 31.833 -5.83301 43.5 -17.5s17.5 -26.167 17.5 -43.5c0 -18 -5.83301 -33 -17.5 -45s-26.167 -18 -43.5 -18c-18 0 -33 6 -45 18s-18 27 -18 45zM446 56c0 17.333 6 31.833 18 43.5s27 17.5 45 17.5c17.333 0 31.833 -5.83301 43.5 -17.5s17.5 -26.167 17.5 -43.5
c0 -18 -5.83301 -33 -17.5 -45s-26.167 -18 -43.5 -18c-18 0 -33 6 -45 18s-18 27 -18 45z" />
    <glyph glyph-name="trademark" unicode="&#x2122;" horiz-adv-x="850" 
d="M401 391v359h68l123 -268l8 -30l8 30l120 268h68v-359h-71v244l-8 -32l-85 -212h-66l-87 212l-8 32v-244h-70zM54 750h317v-57h-123v-302h-71v302h-123v57z" />
    <glyph glyph-name="minus" unicode="&#x2212;" horiz-adv-x="658" 
d="M604 242h-550v67h550v-67z" />
    <glyph glyph-name=".null" horiz-adv-x="0" 
 />
    <glyph glyph-name="nonmarkingreturn" horiz-adv-x="260" 
 />
    <glyph glyph-name="zero.lnum" horiz-adv-x="677" 
d="M59 375c0 74 7.83301 136 23.5 186s36.5 90.167 62.5 120.5s56 51.833 90 64.5s69 19 105 19s70.833 -6.33301 104.5 -19s63.334 -34.167 89.001 -64.5s46.167 -70.5 61.5 -120.5s23 -112 23 -186s-7.66699 -136 -23 -186s-35.833 -90.167 -61.5 -120.5
s-55.334 -51.833 -89.001 -64.5s-68.5 -19 -104.5 -19s-71 6.33301 -105 19s-64 34.167 -90 64.5s-46.833 70.5 -62.5 120.5s-23.5 112 -23.5 186zM530 375c0 56 -4.83203 103.833 -14.499 143.5s-23 72 -40 97s-37 43.333 -60 55s-48.167 17.5 -75.5 17.5
c-26.667 0 -51.667 -5.83301 -75 -17.5s-43.833 -30 -61.5 -55s-31.5 -57.333 -41.5 -97s-15 -87.5 -15 -143.5s5.33301 -103.5 16 -142.5s24.834 -70.833 42.501 -95.5s38.167 -42.667 61.5 -54s47.666 -17 72.999 -17s49.5 5.66699 72.5 17s43.167 29.333 60.5 54
s31.166 56.5 41.499 95.5s15.5 86.5 15.5 142.5z" />
    <glyph glyph-name="one.lnum" horiz-adv-x="363" 
d="M192 0v655l-89 -75l-54 62l143 108h89v-750h-89z" />
    <glyph glyph-name="two.lnum" horiz-adv-x="536" 
d="M114 589c-10.667 10 -19.6631 18.999 -26.9961 26.999l-19 19c-5.33301 5.33301 -8 8.33301 -8 9c7.33301 12 16.666 25 27.999 39s25.166 27 41.499 39s35.333 22.167 57 30.5s46.167 12.5 73.5 12.5c28.667 0 55.334 -4.16699 80.001 -12.5s46.167 -20.5 64.5 -36.5
s32.666 -35.5 42.999 -58.5s15.5 -49.167 15.5 -78.5c0 -20 -4.83301 -43.167 -14.5 -69.5s-22.334 -54.166 -38.001 -83.499s-33.834 -59.666 -54.501 -90.999l-64 -93l-66 -88.5l-61 -77.5h317v-76h-433v64c61.333 70.667 116.333 138.667 165 204l61 85.5
c20 29 37.667 57.167 53 84.5s27.833 53 37.5 77s14.5 44.667 14.5 62c0 18.667 -3.5 35 -10.5 49s-16.333 25.667 -28 35s-24.667 16.166 -39 20.499s-28.833 6.5 -43.5 6.5c-24.667 -0.666992 -46 -6 -64 -16s-33 -21.333 -45 -34c-14 -14.667 -26 -31 -36 -49z" />
    <glyph glyph-name="three.lnum" horiz-adv-x="543" 
d="M55 663c10.667 18.667 24.668 35.6611 42.001 50.9941c14 12.667 32 24.334 54 35.001s48.333 16 79 16c22.667 0 44.167 -3.83301 64.5 -11.5s38.166 -18.5 53.499 -32.5s27.5 -30.667 36.5 -50s13.5 -40.333 13.5 -63c0 -15.333 -2.5 -29.833 -7.5 -43.5
s-11.667 -26.334 -20 -38.001s-17.833 -22.667 -28.5 -33s-21.334 -19.833 -32.001 -28.5c23.333 -3.33301 45.333 -10.166 66 -20.499s39 -23.666 55 -39.999s28.833 -35.333 38.5 -57s14.834 -45.167 15.501 -70.5c0 -50 -9.33301 -93.333 -28 -130s-42.167 -67 -70.5 -91
s-59.333 -41.833 -93 -53.5s-65.167 -17.5 -94.5 -17.5c-24 -0.666992 -46 2.33301 -66 9s-37.333 13.667 -52 21c-17.333 8.66699 -33 19 -47 31l53 50c7.33301 -6.66699 16.666 -12.334 27.999 -17.001c9.33301 -4 21 -7.66699 35 -11s30.333 -4.33301 49 -3
c20.667 0 42.834 4.16699 66.501 12.5s45.667 21.166 66 38.499s37.333 39.333 51 66s20.5 58.334 20.5 95.001c0 15.333 -3.33301 30.333 -10 45s-15.5 27.667 -26.5 39s-23.833 20.333 -38.5 27s-30 10 -46 10c-18 0 -35.333 -1.33301 -52 -4s-31.5 -5.66699 -44.5 -9
s-23.667 -6.16602 -32 -8.49902l-12.5 -3.5v68c23.333 8.66699 45.5 18.334 66.5 29.001s39.5 22.834 55.5 36.501s28.833 28.834 38.5 45.501s14.5 35.334 14.5 56.001c0 24 -8.66699 43 -26 57s-37 21 -59 21c-23.333 0 -43 -3.66699 -59 -11s-29.333 -15.333 -40 -24
c-12 -10 -22 -21.333 -30 -34z" />
    <glyph glyph-name="four.lnum" horiz-adv-x="621" 
d="M592 184h-105v-184h-89v184h-364v47l392 519h61v-490h105v-76zM398 260v336l-240 -325l-14 -14v-1l19 4h235z" />
    <glyph glyph-name="five.lnum" horiz-adv-x="596" 
d="M178 479c14.667 6.66699 30.498 12.666 47.498 17.999s38.167 8 63.5 8c40 0 75.167 -5.66699 105.5 -17s55.833 -27 76.5 -47s36.167 -43.833 46.5 -71.5s15.5 -57.5 15.5 -89.5c0 -52.667 -6.33301 -97.667 -19 -135s-30.334 -67.833 -53.001 -91.5
s-49.667 -41 -81 -52s-65.333 -16.5 -102 -16.5c-33.333 0 -62.833 4.33301 -88.5 13s-47.5 18.667 -65.5 30c-21.333 12 -39.666 26.333 -54.999 43l48 59c14 -13.333 29.667 -25.333 47 -36c14.667 -9.33301 31.667 -17.5 51 -24.5s40.333 -10.5 63 -10.5
c24 0 46.5 4.16699 67.5 12.5s39.5 21.333 55.5 39s28.5 40.334 37.5 68.001s13.5 60.834 13.5 99.501c0 17.333 -3.33301 35 -10 53s-16.667 34.5 -30 49.5s-30.166 27.333 -50.499 37s-44.5 14.5 -72.5 14.5c-22.667 0 -45.167 -2.33301 -67.5 -7
s-44.166 -14.334 -65.499 -29.001h-66v354h386v-75h-298v-196z" />
    <glyph glyph-name="six.lnum" horiz-adv-x="608" 
d="M340 461c28 0 54.6699 -3.83301 80.0029 -11.5s47.5 -20.334 66.5 -38.001s34.167 -40.834 45.5 -69.501s17 -63.667 17 -105c0 -23.333 -3.83301 -49.5 -11.5 -78.5s-20.5 -56.333 -38.5 -82s-42 -47.334 -72 -65.001s-67 -26.5 -111 -26.5
c-80.667 0 -143 30.833 -187 92.5s-66 150.5 -66 266.5c0 56.667 7 110.334 21 161.001s33.667 95.334 59 134.001s55.166 69.334 89.499 92.001s72.166 34 113.499 34c22 0 42.5 -2.83301 61.5 -8.5s36.167 -12.334 51.5 -20.001s28 -15 38 -22l21 -14.5l-53 -55
c-9.33301 7.33301 -20 14 -32 20c-10 5.33301 -22.167 10.166 -36.5 14.499s-29.833 6.5 -46.5 6.5c-26 0 -49 -5.66699 -69 -17s-37.667 -26.5 -53 -45.5s-28.333 -40.667 -39 -65s-19.334 -49.666 -26.001 -75.999s-11.667 -52.666 -15 -78.999s-5.33301 -50.5 -6 -72.5
c16.667 25.333 33.5 46.333 50.5 63s34 30 51 40s33.5 17 49.5 21s31.667 6 47 6zM316.003 58c28.667 0 52.499 6.33301 71.499 19s34.333 28.167 46 46.5s20 37.833 25 58.5s7.5 39 7.5 55c0 28 -3.5 51.667 -10.5 71s-16.167 34.833 -27.5 46.5s-24.666 20 -39.999 25
s-31.333 7.5 -48 7.5c-14 0 -28.833 -2.5 -44.5 -7.5s-31.5 -13.5 -47.5 -25.5s-32.167 -28.5 -48.5 -49.5s-31.833 -47.5 -46.5 -79.5c10.667 -54 30 -95.333 58 -124s63 -43 105 -43z" />
    <glyph glyph-name="seven.lnum" horiz-adv-x="506" 
d="M45 750l432 0.000976562v-59l-37.5 -77l-49.5 -98l-58 -110.5l-62 -113l-62 -106.5c-20.667 -34 -40.167 -64.5 -58.5 -91.5s-35 -49.333 -50 -67s-27.833 -28.834 -38.5 -33.501l-57 53c10 6 24 21 42 45s38.167 53.5 60.5 88.5s45.833 73.833 70.5 116.5l73 130
l68.5 128.5l56.5 111.5h-330v83z" />
    <glyph glyph-name="eight.lnum" horiz-adv-x="582" 
d="M499 601c0 -26 -5.33398 -49.998 -16.001 -71.998s-23.834 -42 -39.501 -60s-32.334 -33.833 -50.001 -47.5s-33.5 -24.834 -47.5 -33.501c22 -15.333 43.333 -31.333 64 -48s39 -34.167 55 -52.5s28.833 -37.833 38.5 -58.5s14.5 -42.334 14.5 -65.001
c0 -31.333 -5.33301 -57.5 -16 -78.5s-24 -38.167 -40 -51.5s-33.667 -23.333 -53 -30s-37.333 -11.5 -54 -14.5s-31.167 -4.5 -43.5 -4.5h-21.5c-2 0 -9 0.166992 -21 0.5s-26.333 2 -43 5s-34.5 7.83301 -53.5 14.5s-36.5 16.667 -52.5 30s-29.333 30.5 -40 51.5
s-16 46.833 -16 77.5c0 26 5 50.333 15 73s22.5 43.667 37.5 63s31.5 36.5 49.5 51.5s35 27.5 51 37.5c-18.667 14.667 -36.167 30 -52.5 46s-30.5 32.833 -42.5 50.5s-21.5 36 -28.5 55s-10.5 39.167 -10.5 60.5c0 30.667 6.16699 56.5 18.5 77.5s28.333 38 48 51
s41.834 22.167 66.501 27.5s49.334 8 74.001 8s49.334 -2.66699 74.001 -8s47 -14.5 67 -27.5s36.333 -30 49 -51s19 -46.833 19 -77.5zM434.999 164.002c0 14.667 -4.5 29.835 -13.5 45.502s-21 31.167 -36 46.5s-32.333 30.833 -52 46.5l-61.5 47.5
c-14 -8.66699 -28.167 -19.167 -42.5 -31.5s-27.5 -26.333 -39.5 -42s-22.167 -32.834 -30.5 -51.501s-13.166 -39 -14.499 -61c0 -28 7.16699 -49.5 21.5 -64.5s30.333 -25.833 48 -32.5s34.167 -10.334 49.5 -11.001s24 -1 26 -1s10.833 0.333008 26.5 1
s32.167 4.16699 49.5 10.5s33.166 17 47.499 32s21.5 36.833 21.5 65.5zM286.999 431.003c9.33301 4.66699 21.3311 11.999 35.998 21.999s28.834 22.333 42.501 37s25.334 31.334 35.001 50.001s14.5 39 14.5 61c0 19.333 -3.66699 35.333 -11 48s-17 22.834 -29 30.501
s-25.5 13 -40.5 16s-29.833 4.5 -44.5 4.5s-29.5 -1.5 -44.5 -4.5s-28.5 -8.33301 -40.5 -16s-21.667 -17.834 -29 -30.501s-11 -28.667 -11 -48c0 -16 3.33301 -31.5 10 -46.5s15.667 -29.5 27 -43.5s24.333 -27.667 39 -41s30 -26.333 46 -39z" />
    <glyph glyph-name="nine.lnum" horiz-adv-x="608" 
d="M268 289c-28 0 -54.665 3.83105 -79.998 11.498s-47.5 20.334 -66.5 38.001s-34.167 40.834 -45.5 69.501s-17 63.667 -17 105c0 23.333 3.83301 49.5 11.5 78.5s20.5 56.333 38.5 82s42 47.334 72 65.001s67 26.5 111 26.5c80.667 0 143 -30.833 187 -92.5
s66 -150.5 66 -266.5c0 -56.667 -7 -110.5 -21 -161.5s-33.667 -95.667 -59 -134s-55.333 -68.833 -90 -91.5s-72.334 -34 -113.001 -34c-22 0 -42.5 2.83301 -61.5 8.5s-36.167 12.334 -51.5 20.001s-28 15 -38 22l-21 14.5l53 55c9.33301 -8 20 -15 32 -21
c10 -5.33301 22 -10 36 -14s29.667 -6 47 -6c25.333 0 48.166 5.66699 68.499 17s38.166 26.5 53.499 45.5s28.333 40.667 39 65s19.334 49.666 26.001 75.999s11.667 52.666 15 78.999s5.33301 50.5 6 72.5c-16.667 -25.333 -33.5 -46.333 -50.5 -63s-34 -30 -51 -40
s-33.667 -17 -50 -21s-31.833 -6 -46.5 -6zM292.002 691.998c-28.667 0 -52.499 -6.33301 -71.499 -19s-34.333 -28.167 -46 -46.5s-20 -37.833 -25 -58.5s-7.5 -39 -7.5 -55c0 -28 3.5 -51.667 10.5 -71s16.167 -34.833 27.5 -46.5s24.666 -20 39.999 -25
s31.333 -7.5 48 -7.5c14 0 28.833 2.5 44.5 7.5s31.5 13.5 47.5 25.5s32 28.5 48 49.5s31.667 47.5 47 79.5c-10.667 54 -30 95.333 -58 124s-63 43 -105 43z" />
    </font>
</defs>
</svg>
